<svg width="72" height="72" viewBox="0 0 72 72" version="2.0" xmlns="http://www.w3.org/2000/svg" xmlns:xlink="http://www.w3.org/1999/xlink" xmlns:figma="http://www.figma.com/figma/ns">
<title>9.svg</title>
<desc>Created using Figma 0.90</desc>
<g id="Canvas" transform="translate(646 -464)" figma:type="canvas">
<mask id="mask0_outline" mask-type="alpha">
<path d="M -646 464L -574 464L -574 536L -646 536L -646 464Z" fill="#FFFFFF"/>
</mask>
<g id="9" style="mix-blend-mode:normal;" mask="url(#mask0_outline)" figma:type="frame">
<g id="Vector (Stroke)" style="mix-blend-mode:normal;" figma:type="vector">
<use xlink:href="#path0_fill" transform="translate(-637 480)" fill="#FFFFFF" style="mix-blend-mode:normal;"/>
</g>
</g>
</g>
<defs>
<path id="path0_fill" d="M 32 20L 2 20L 2 3C 2 2.44772 2.44772 2 3 2L 31 2C 31.5523 2 32 2.44772 32 3L 32 7L 32 20ZM 7.34141 32L 3 32C 2.44772 32 2 31.5523 2 31L 2 22L 32 22L 32 32L 19 32C 18.887 32 18.7784 32.0187 18.6771 32.0533C 17.8687 29.6951 15.6323 28 13 28C 10.3876 28 8.16508 29.6696 7.34141 32ZM 9 34C 9 31.7909 10.7909 30 13 30C 15.2091 30 17 31.7909 17 34C 17 36.2091 15.2091 38 13 38C 10.7909 38 9 36.2091 9 34ZM 47 34C 47 36.2091 45.2091 38 43 38C 40.7909 38 39 36.2091 39 34C 39 31.7909 40.7909 30 43 30C 45.2091 30 47 31.7909 47 34ZM 34 6L 34 3C 34 1.34315 32.6569 0 31 0L 3 0C 1.34315 1.11022e-16 0 1.34315 0 3L 0 21L 0 31C 0 32.6569 1.34315 34 3 34L 7 34C 7 37.3137 9.68629 40 13 40C 16.3137 40 19 37.3137 19 34L 37 34C 37 37.3137 39.6863 40 43 40C 46.3137 40 49 37.3137 49 34L 51 34C 52.6569 34 54 32.6569 54 31L 54 21L 54 18.5623C 53.9916 17.7367 53.7435 16.8025 53.3412 16.0816L 49.0199 8.51931C 48.1297 6.96143 46.473 6 44.6787 6L 34 6ZM 49.8483 14L 51.6047 17.0738C 51.8932 17.5617 52.0084 17.9956 52 18.5623L 52 20L 40 20L 40 14L 49.8483 14ZM 48.6586 32C 47.8349 29.6696 45.6124 28 43 28C 40.3677 28 38.1313 29.6951 37.3229 32.0533C 37.2216 32.0187 37.113 32 37 32L 34 32L 34 21L 34 8L 44.6787 8C 45.7553 8 46.7493 8.57686 47.2834 9.51158L 48.7054 12L 39 12C 38.4477 12 38 12.4477 38 13L 38 21C 38 21.5523 38.4477 22 39 22L 52 22L 52 31C 52 31.5523 51.5523 32 51 32L 48.6586 32Z"/>
</defs>
</svg>
