<svg width="72" height="72" viewBox="0 0 72 72" version="2.0" xmlns="http://www.w3.org/2000/svg" xmlns:xlink="http://www.w3.org/1999/xlink" xmlns:figma="http://www.figma.com/figma/ns">
<title>speed.svg</title>
<desc>Created using Figma 0.90</desc>
<g id="Canvas" transform="translate(981 -280)" figma:type="canvas">
<mask id="mask0_alpha" mask-type="alpha">
<path d="M -981 280L -909 280L -909 352L -981 352L -981 280Z" fill="#FFFFFF"/>
</mask>
<g id="speed" style="mix-blend-mode:normal;" mask="url(#mask0_alpha)" figma:type="frame">
<g id="Union" style="mix-blend-mode:normal;" figma:type="vector">
<use xlink:href="#path0_fill" transform="translate(-968 295)" fill="#FFFFFF" style="mix-blend-mode:normal;"/>
<use xlink:href="#path1_fill" transform="translate(-968 295)" fill="#FFFFFF" style="mix-blend-mode:normal;"/>
</g>
</g>
</g>
<defs>
<path id="path0_fill" fill-rule="evenodd" d="M 28.1306 9.84135C 24.8015 9.84135 22.1027 12.5402 22.1027 15.8693C 22.1027 19.1985 24.8015 21.8973 28.1306 21.8973C 31.4598 21.8973 34.1586 19.1985 34.1586 15.8693C 34.1586 12.5402 31.4598 9.84135 28.1306 9.84135ZM 24.112 15.8693C 24.112 13.6499 25.9112 11.8507 28.1306 11.8507C 30.3501 11.8507 32.1493 13.6499 32.1493 15.8693C 32.1493 18.0888 30.3501 19.888 28.1306 19.888C 25.9112 19.888 24.112 18.0888 24.112 15.8693Z"/>
<path id="path1_fill" fill-rule="evenodd" d="M 15.0738 13.86L 15.07 13.86L 10.3456 13.86C 8.55894 13.86 6.90674 14.809 6.0065 16.3522L 0.136904 26.4144C -0.0642866 26.7593 -0.0421501 27.1907 0.193318 27.5131C 0.428786 27.8356 0.832884 27.988 1.22263 27.9014L 9.72623 26.0117L 9.82894 26.1144L 8.14344 29.4854C 7.95341 29.8655 8.02325 30.3231 8.31593 30.629L 8.28472 30.6271C 6.9168 30.5466 5.51036 31.0408 4.31297 32.2382C 3.67377 32.8774 3.1103 33.9006 2.63317 34.9504C 2.14752 36.0204 1.68928 37.2627 1.30744 38.4078C 0.925171 39.5551 0.604161 40.646 0.382613 41.4372C 0.271256 41.8349 0.182894 42.1643 0.123352 42.3903C 0.0933667 42.5043 0.0700039 42.5948 0.0545513 42.6552L 0.0365846 42.7258L 0.0318629 42.7444L 0.0305752 42.7495L 0.0302073 42.7509C 0.0302073 42.7509 0.0300234 42.7516 1.0047 42.9953L 0.0300233 42.7516C -0.0555792 43.094 0.0447401 43.4562 0.294312 43.7057C 0.543822 43.9553 0.905978 44.0556 1.24839 43.97L 1.0047 42.9953C 1.24839 43.97 1.24906 43.9698 1.24906 43.9698L 1.25053 43.9695L 1.25556 43.9682L 1.27426 43.9634L 1.34478 43.9455C 1.40518 43.93 1.49569 43.9066 1.60968 43.8766C 1.83571 43.8171 2.16512 43.7287 2.56284 43.6174C 3.35399 43.3959 4.44493 43.0749 5.59223 42.6926C 6.73731 42.3108 7.97959 41.8525 9.04962 41.3669C 10.0994 40.8897 11.1225 40.3263 11.7617 39.6871C 12.9592 38.4896 13.4534 37.0832 13.3729 35.7153L 13.371 35.6841C 13.6768 35.9767 14.1346 36.0466 14.5146 35.8566L 17.8856 34.1711L 17.9883 34.2738L 16.0986 42.7774C 16.012 43.1672 16.1644 43.5712 16.4869 43.8067C 16.8093 44.0422 17.2407 44.0643 17.5855 43.8631L 27.6478 37.9935C 29.191 37.0933 30.14 35.4411 30.14 33.6545L 30.14 28.93L 30.14 28.9261C 31.3586 27.9664 32.6142 26.8691 33.8644 25.6218C 36.1643 23.315 38.4882 19.8484 40.2903 16.3266C 41.819 13.3327 43.0381 10.1705 43.618 7.55436C 43.9084 6.23043 44.0485 4.94308 43.9849 3.90791C 43.9159 2.85023 43.6283 1.81555 42.9063 1.0936C 42.1844 0.371677 41.1497 0.0840553 40.0921 0.015101C 39.0569 -0.0484878 37.7695 0.091567 36.4456 0.38204C 33.8295 0.96185 30.6673 2.18095 27.6734 3.70972C 24.1516 5.51179 20.685 7.83566 18.3783 10.1356C 17.1309 11.3858 16.0336 12.6414 15.0738 13.86ZM 29.8319 4.88476L 30.0732 5.126L 33.0654 8.11829L 39.1152 14.1681C 40.2958 11.6861 41.1917 9.23756 41.6558 7.12168C 41.926 5.9031 42.0396 4.8977 41.9798 4.03861C 41.9253 3.20205 41.7121 2.74099 41.4856 2.51444C 41.259 2.28786 40.7979 2.07472 39.9613 2.02017C 39.1022 1.96032 38.0968 2.07407 36.8783 2.34425C 34.7624 2.80829 32.3139 3.7042 29.8319 4.88476ZM 38.1647 16.0591L 31.6446 9.5391L 28.6524 6.54681L 27.9409 5.83535C 24.767 7.51606 21.8233 9.52576 19.7991 11.5564C 16.3545 14.9928 14.1802 18.3839 12.8204 20.9821C 12.1471 22.2658 11.699 23.3129 11.4073 24.0658C 11.3207 24.2887 11.2508 24.4788 11.1943 24.6382L 11.7446 25.1885C 11.7564 25.1997 11.7679 25.2112 11.7791 25.223L 18.7779 32.2217C 18.7891 32.2324 18.8 32.2433 18.8106 32.2545L 19.3618 32.8056C 19.5212 32.7492 19.7113 32.6793 19.9342 32.5928C 20.687 32.301 21.7342 31.8529 23.0179 31.1796C 25.6161 29.8198 29.0072 27.6454 32.4436 24.2009C 34.4743 22.1767 36.4839 19.233 38.1647 16.0591ZM 9.26982 24.0548C 9.33746 23.8611 9.42564 23.6185 9.53381 23.3394C 9.83857 22.5539 10.3323 21.4033 11.0404 20.0498C 11.682 18.8259 12.5209 17.4003 13.5856 15.8693L 10.3456 15.8693C 9.27356 15.8693 8.28227 16.4387 7.7421 17.3647L 3.03077 25.4413L 9.26982 24.0548ZM 10.2644 29.7363L 11.3266 27.612L 16.388 32.6734L 14.2637 33.7356L 10.2644 29.7363ZM 19.9452 34.7302L 18.5587 40.9692L 26.6353 36.2579C 27.5613 35.7178 28.1306 34.7265 28.1306 33.6545L 28.1306 30.4144C 26.5997 31.4791 25.1741 32.318 23.9502 32.9595C 22.5967 33.6677 21.4462 34.1615 20.6606 34.4662C 20.3815 34.5743 20.1388 34.6626 19.9452 34.7302ZM 5.73375 33.6591C 6.54569 32.8472 7.39975 32.5878 8.16674 32.633C 8.95838 32.6795 9.7388 33.0569 10.341 33.6591C 10.9431 34.2612 11.3205 35.0416 11.367 35.8333C 11.4122 36.6002 11.1528 37.4544 10.341 38.2662C 9.97549 38.6317 9.24045 39.0729 8.21813 39.5376C 7.21604 39.9939 6.07224 40.4147 4.95683 40.7864C 4.03053 41.0953 3.15212 41.3596 2.43468 41.5653C 2.64035 40.8479 2.90476 39.9695 3.21363 39.0432C 3.58535 37.9278 4.00613 36.784 4.46241 35.7819C 4.92709 34.7595 5.36829 34.0245 5.73375 33.6591Z"/>
</defs>
</svg>
