<svg width="44" height="44" viewBox="0 0 44 44" version="2.0" xmlns="http://www.w3.org/2000/svg" xmlns:xlink="http://www.w3.org/1999/xlink" xmlns:figma="http://www.figma.com/figma/ns">
<title>adress.svg</title>
<desc>Created using Figma 0.90</desc>
<g id="Canvas" transform="translate(632 259)" figma:type="canvas">
<mask id="mask0_outline" mask-type="alpha">
<path d="M -632 -259L -588 -259L -588 -215L -632 -215L -632 -259Z" fill="#FFFFFF"/>
</mask>
<g id="adress" style="mix-blend-mode:normal;" mask="url(#mask0_outline)" figma:type="frame">
<g id="Vector" style="mix-blend-mode:normal;" figma:type="vector">
<use xlink:href="#path0_fill" transform="translate(-623 -255)" fill="#31343B" style="mix-blend-mode:normal;"/>
<use xlink:href="#path1_fill" transform="translate(-623 -255)" fill="#31343B" style="mix-blend-mode:normal;"/>
</g>
</g>
</g>
<defs>
<path id="path0_fill" d="M 11.6671 34.4942C 12.4879 35.4485 13 36 13 36C 13 36 13.5121 35.4485 14.3329 34.4942C 17.6481 30.6399 26 20.2138 26 13C 26 6.37258 20.1797 0 13 0C 5.8203 0 0 6.37258 0 13C 0 20.2138 8.35191 30.6399 11.6671 34.4942ZM 12.5011 32.3867C 11.2972 30.9514 9.72483 28.9873 8.13638 26.7251C 6.5412 24.4563 5.00455 22.0088 3.83939 19.5359C 2.67125 17.0648 2 14.8175 2 13C 2 7.42223 6.979 2 13 2C 19.021 2 24 7.42223 24 13C 24 14.8175 23.3288 17.0648 22.1606 19.5359C 20.9954 22.0088 19.4588 24.4563 17.8636 26.7251C 16.2752 28.9873 14.7028 30.9514 13.4989 32.3867C 13.323 32.5964 13.1564 32.7931 13 32.9762C 12.8436 32.7931 12.677 32.5964 12.5011 32.3867Z"/>
<path id="path1_fill" d="M 13 18C 15.7614 18 18 15.7614 18 13C 18 10.2386 15.7614 8 13 8C 10.2386 8 8 10.2386 8 13C 8 15.7614 10.2386 18 13 18ZM 13 16C 11.3431 16 10 14.6569 10 13C 10 11.3431 11.3431 10 13 10C 14.6569 10 16 11.3431 16 13C 16 14.6569 14.6569 16 13 16Z"/>
</defs>
</svg>
