<svg width="72" height="72" viewBox="0 0 72 72" version="2.0" xmlns="http://www.w3.org/2000/svg" xmlns:xlink="http://www.w3.org/1999/xlink" xmlns:figma="http://www.figma.com/figma/ns">
<title>individ.svg</title>
<desc>Created using Figma 0.90</desc>
<g id="Canvas" transform="translate(1165 -280)" figma:type="canvas">
<mask id="mask0_alpha" mask-type="alpha">
<path d="M -1165 280L -1093 280L -1093 352L -1165 352L -1165 280Z" fill="#FFFFFF"/>
</mask>
<g id="individ" style="mix-blend-mode:normal;" mask="url(#mask0_alpha)" figma:type="frame">
<g id="Vector (Stroke)" style="mix-blend-mode:normal;" figma:type="vector">
<use xlink:href="#path0_fill" transform="translate(-1151.89 292)" fill="#FFFFFF" style="mix-blend-mode:normal;"/>
</g>
</g>
</g>
<defs>
<path id="path0_fill" fill-rule="evenodd" d="M 22.9504 2C 21.6625 2 20.9504 2.9547 20.9504 4C 20.9504 4.56627 21.0867 4.89837 21.2464 5.13343C 21.4282 5.4212 21.6733 5.60487 22.0234 5.86728L 22.0504 5.8875C 22.0656 5.89893 22.0811 5.91049 22.0967 5.92218C 22.4538 6.18984 22.9023 6.52592 23.2625 6.96124C 23.6827 7.48652 23.9504 8.14336 23.9504 9L 23.9504 10.3509L 30.4147 13.2324C 31.2331 11.6446 33.321 10.6236 35.098 11.639L 43.7731 16.5962C 45.7447 17.7228 46.3841 20.2629 45.1808 22.1887L 43.9861 24.1009C 42.841 25.9335 40.4473 26.5253 38.5801 25.4374L 33.9504 22.74L 33.9504 43C 33.9504 45.7614 31.7118 48 28.9504 48L 16.9504 48C 14.189 48 11.9504 45.7614 11.9504 43L 11.9504 22.6995L 7.18314 25.348C 5.18832 26.4562 2.67207 25.6737 1.65758 23.6296L 0.417876 21.1318C -0.560962 19.1595 0.238151 16.767 2.20578 15.7789L 10.9696 11.3779C 12.7919 10.4628 14.8351 11.5845 15.549 13.224L 21.9504 10.3526L 21.9504 9C 21.9504 8.60664 21.8431 8.38848 21.7008 8.21063C 21.5435 8.00084 21.3212 7.8364 21.024 7.61651C 20.9687 7.57564 20.9109 7.53285 20.8504 7.4875C 20.465 7.19834 19.968 6.79022 19.5919 6.2572C 19.1891 5.66413 18.9504 4.93373 18.9504 4C 18.9504 2.0453 20.3723 0 22.9504 0C 24.2218 0 25.2488 0.486702 25.9478 1.27314C 26.6305 2.04117 26.9504 3.03693 26.9504 4C 26.9504 4.55228 26.5027 5 25.9504 5C 25.3981 5 24.9504 4.55228 24.9504 4C 24.9504 3.46307 24.7703 2.95883 24.453 2.60186C 24.152 2.2633 23.679 2 22.9504 2ZM 22.9517 12.0954L 16.3828 15.042C 17.5386 17.0881 19.5336 19.018 22.9846 19.0126C 26.4355 19.0071 28.4205 17.0831 29.5681 15.0448L 22.9517 12.0954ZM 31.83 14.9979C 30.6025 17.6925 28.0463 21.0045 22.9878 21.0126C 17.9307 21.0206 15.3644 17.708 14.1248 15.0064C 14.1184 14.9935 14.1122 14.9804 14.1062 14.9671C 14.1019 14.9575 14.0977 14.9478 14.0937 14.9381C 13.9607 14.644 13.8434 14.3576 13.7403 14.084C 13.4148 13.2203 12.4577 12.8686 11.8671 13.1652L 3.10332 17.5662C 2.11951 18.0603 1.71995 19.2565 2.20937 20.2426L 3.44907 22.7405C 3.95632 23.7625 5.21444 24.1538 6.21185 23.5997L 10.9791 20.9512C 12.3122 20.2106 13.9504 21.1745 13.9504 22.6995L 13.9504 43C 13.9504 44.6569 15.2935 46 16.9504 46L 28.9504 46C 30.6072 46 31.9504 44.6569 31.9504 43L 31.9504 22.74C 31.9504 21.1969 33.6239 20.2351 34.9572 21.0119L 39.5869 23.7094C 40.5205 24.2533 41.7174 23.9574 42.2899 23.0411L 43.4847 21.1289C 44.0863 20.166 43.7666 18.896 42.7808 18.3327L 34.1057 13.3755C 33.5148 13.0378 32.4859 13.3758 32.1342 14.2773C 32.0501 14.493 31.9572 14.7156 31.8549 14.9428C 31.8518 14.9502 31.8486 14.9576 31.8453 14.965C 31.8404 14.9761 31.8353 14.987 31.83 14.9979Z"/>
</defs>
</svg>
