<svg width="44" height="44" viewBox="0 0 44 44" version="2.0" xmlns="http://www.w3.org/2000/svg" xmlns:xlink="http://www.w3.org/1999/xlink" xmlns:figma="http://www.figma.com/figma/ns">
<title>whatsup.svg</title>
<desc>Created using Figma 0.90</desc>
<g id="Canvas" transform="translate(684 259)" figma:type="canvas">
<mask id="mask0_outline" mask-type="alpha">
<path d="M -684 -259L -640 -259L -640 -215L -684 -215L -684 -259Z" fill="#FFFFFF"/>
</mask>
<g id="whatsup" style="mix-blend-mode:normal;" mask="url(#mask0_outline)" figma:type="frame">
<g id="Vector" style="mix-blend-mode:normal;" figma:type="vector">
<use xlink:href="#path0_fill" transform="translate(-682 -257.001)" fill="#31343B" style="mix-blend-mode:normal;"/>
<use xlink:href="#path1_fill" transform="translate(-682 -257.001)" fill="#31343B" style="mix-blend-mode:normal;"/>
</g>
</g>
</g>
<defs>
<path id="path0_fill" d="M 40 20C 40 9.03902 30.961 0 20 0C 9.03905 0 2.80146e-05 9.03902 2.80146e-05 20C 0.0105015 23.7541 1.08993 27.4557 3.0467 30.6385L 0.0628987 38.651C -0.0732858 39.0167 0.0156996 39.4282 0.29081 39.705C 0.56592 39.9818 0.976892 40.0732 1.3434 39.9392L 9.50821 36.9542C 12.4848 39.0477 16.5792 39.9985 19.9921 40C 30.9763 40.1698 40 30.9437 40 20ZM 2.69429 37.3158L 5.09385 30.8723C 5.20465 30.5747 5.16757 30.2422 4.99392 29.9764C 3.00214 26.9455 1.98908 23.6299 2.00003 20C 2.00003 10.1436 10.1436 2 20 2C 29.8564 2 38 10.1436 38 20C 38 29.8711 29.8455 38.1562 20.0159 38.0001C 20.0106 38 20.0053 38 20 38C 16.7103 38 12.8389 37.0201 10.2815 35.0399C 10.0096 34.8294 9.64875 34.7733 9.32586 34.8913L 2.69429 37.3158Z"/>
<path id="path1_fill" d="M 17.0586 17.8072C 17.1427 17.7187 17.242 17.6099 17.3488 17.4859C 17.6033 17.1902 17.9008 16.8077 18.1387 16.4065C 18.4708 15.8371 18.9213 14.8267 18.4542 13.8547C 18.2539 13.3931 17.8385 12.5616 17.4798 11.8594C 17.2971 11.5016 17.1254 11.1698 17.0002 10.9292C 16.9375 10.8086 16.886 10.7099 16.8505 10.6419C 16.8326 10.6078 16.8186 10.581 16.8091 10.563C 16.8043 10.5539 16.8007 10.5469 16.7982 10.5422C 16.797 10.5398 16.7954 10.5368 16.7954 10.5368L 16.7948 10.5356L 16.7946 10.5354L 16.7945 10.5352L 16.7944 10.535L 16.7944 10.5349L 15.9091 11C 16.7785 10.5432 16.7944 10.5349 16.7944 10.5349C 16.6216 10.206 16.2807 10 15.9091 10L 14.2728 10C 13.2497 10 12.1828 10.6022 11.4075 11.4502C 10.6032 12.3299 10 13.5874 10 15.0909C 10 16.4302 10.7727 18.3443 11.7184 20.0712C 12.6857 21.834 14.0026 23.6735 15.2147 24.8106C 16.3401 25.9274 18.162 27.23 19.9208 28.2159C 20.8067 28.711 21.7329 29.157 22.5508 29.4674C 23.365 29.7754 24.1955 30 24.9091 30C 26.1785 29.9786 27.5232 29.3994 28.3945 28.6824C 29.2702 27.9487 30 26.8761 30 25.7273L 30 24.0909C 30 23.7121 29.786 23.3659 29.4472 23.1965L 26.2216 21.5837C 25.1978 20.9494 24.1039 21.4768 23.5377 21.8333C 22.9818 22.1897 22.4776 22.6602 22.1924 22.9399C 21.4212 22.6099 20.1908 21.9084 19.0447 20.9036C 17.9384 19.8092 17.3847 18.6073 17.0586 17.8072ZM 15.5293 16.5111L 15.202 16.8383C 14.9342 17.1062 14.8407 17.5023 14.9604 17.8617L 15.1241 18.3526C 15.1303 18.3712 15.137 18.3896 15.1443 18.4078C 15.4787 19.2434 16.2303 20.8934 17.6566 22.3435C 17.6722 22.3592 17.6885 22.3743 17.7052 22.3889C 19.0975 23.5998 20.7161 24.5031 21.5923 24.8557C 21.6105 24.863 21.6289 24.8698 21.6474 24.876L 22.1383 25.0396C 22.4977 25.1594 22.8938 25.0658 23.1617 24.798L 23.489 24.4707C 23.7344 24.2253 24.1421 23.8088 24.6033 23.5258C 24.8279 23.3822 24.9476 23.3185 25.1078 23.2965C 25.1717 23.2819 25.1504 23.2799 25.1747 23.288C 25.2085 23.3104 25.2437 23.3308 25.2801 23.349L 28 24.7089L 28 25.7273C 28 26.0512 27.748 26.6149 27.1101 27.1494C 26.4677 27.7006 25.767 28.0214 24.9091 28C 24.5591 28 23.9987 27.8769 23.2584 27.5968C 22.5217 27.3191 21.7297 26.9367 20.8974 26.4705C 19.2265 25.5373 17.6191 24.3915 16.6162 23.3838C 16.6075 23.3751 16.5986 23.3665 16.5896 23.3581C 15.5146 22.3669 14.3833 20.7774 13.4726 19.1106C 12.5364 17.4011 12 15.8789 12 15.0909C 12 14.1399 12.3787 13.3519 12.8835 12.7998C 13.4173 12.2159 13.9868 12 14.2728 12L 15.3027 12C 15.4157 12.2178 15.5533 12.4845 15.6987 12.7691C 16.0598 13.4761 16.4542 14.264 16.6263 14.6666C 16.6341 14.6846 16.6423 14.7024 16.6511 14.7199C 16.6436 14.705 16.7117 14.8835 16.4111 15.3989C 16.1498 15.8576 15.7885 16.2495 15.5499 16.4903C 15.5426 16.4978 15.5363 16.5041 15.5293 16.5111Z"/>
</defs>
</svg>
