<?xml version="1.0" encoding="utf-8"?>
<!-- Generator: Adobe Illustrator 20.1.0, SVG Export Plug-In . SVG Version: 6.00 Build 0)  -->
<svg version="1.1" id="Слой_1" xmlns:figma="http://www.figma.com/figma/ns"
	 xmlns="http://www.w3.org/2000/svg" xmlns:xlink="http://www.w3.org/1999/xlink" x="0px" y="0px" viewBox="0 0 24 24"
	 style="enable-background:new 0 0 24 24;" xml:space="preserve">
<style type="text/css">
	.st0{fill:#FFFFFF;}
</style>
<path id="path0_fill" class="st0" d="M12.6,21.2C14.4,19,19,12.7,19,8.7C19,5,15.9,2,12,2S5,5,5,8.7c0,4.1,4.6,10.3,6.4,12.5
	C11.8,21.7,12,22,12,22S12.2,21.7,12.6,21.2z M11.7,20c-0.6-0.9-1.5-2-2.4-3.3c-0.9-1.3-1.7-2.8-2.3-4.2C6.4,11,6,9.7,6,8.7
	C6,5.6,8.6,3,12,3s6,2.6,6,5.7c0,1-0.4,2.4-1,3.8s-1.5,2.9-2.3,4.2C13.8,18,13,19.2,12.3,20c-0.1,0.1-0.2,0.3-0.3,0.4
	C11.9,20.3,11.8,20.2,11.7,20z"/>
<path id="path1_fill" class="st0" d="M12,12c1.7,0,3-1.3,3-3s-1.3-3-3-3S9,7.3,9,9S10.3,12,12,12z M12,11c-1.1,0-2-0.9-2-2
	s0.9-2,2-2s2,0.9,2,2S13.1,11,12,11z"/>
</svg>
