<svg width="73" height="72" viewBox="0 0 73 72" version="2.0" xmlns="http://www.w3.org/2000/svg" xmlns:xlink="http://www.w3.org/1999/xlink" xmlns:figma="http://www.figma.com/figma/ns">
<title>8.svg</title>
<desc>Created using Figma 0.90</desc>
<g id="Canvas" transform="translate(739 -464)" figma:type="canvas">
<mask id="mask0_outline" mask-type="alpha">
<path d="M -738.056 464L -666.056 464L -666.056 536L -738.056 536L -738.056 464Z" fill="#FFFFFF"/>
</mask>
<g id="8" style="mix-blend-mode:normal;" mask="url(#mask0_outline)" figma:type="frame">
<g id="Vector" style="mix-blend-mode:normal;" figma:type="vector">
<use xlink:href="#path0_fill" transform="translate(-729.056 476)" fill="#FFFFFF" style="mix-blend-mode:normal;"/>
<use xlink:href="#path1_fill" transform="translate(-729.056 476)" fill="#FFFFFF" style="mix-blend-mode:normal;"/>
<use xlink:href="#path2_fill" transform="translate(-729.056 476)" fill="#FFFFFF" style="mix-blend-mode:normal;"/>
<use xlink:href="#path3_fill" transform="translate(-729.056 476)" fill="#FFFFFF" style="mix-blend-mode:normal;"/>
<use xlink:href="#path4_fill" transform="translate(-729.056 476)" fill="#FFFFFF" style="mix-blend-mode:normal;"/>
<use xlink:href="#path5_fill" transform="translate(-729.056 476)" fill="#FFFFFF" style="mix-blend-mode:normal;"/>
<use xlink:href="#path6_fill" transform="translate(-729.056 476)" fill="#FFFFFF" style="mix-blend-mode:normal;"/>
<use xlink:href="#path7_fill" transform="translate(-729.056 476)" fill="#FFFFFF" style="mix-blend-mode:normal;"/>
<use xlink:href="#path8_fill" transform="translate(-729.056 476)" fill="#FFFFFF" style="mix-blend-mode:normal;"/>
<use xlink:href="#path9_fill" transform="translate(-729.056 476)" fill="#FFFFFF" style="mix-blend-mode:normal;"/>
</g>
</g>
</g>
<defs>
<path id="path0_fill" d="M 32 6L 31.2929 5.29289L 31.2927 5.29304L 31.2926 5.29317L 31.2925 5.29332L 31.2923 5.29347L 31.2907 5.29512L 31.2906 5.29521C 31.289 5.29675 31.2867 5.29905 31.2837 5.30211C 31.2776 5.30823 31.2684 5.31737 31.2563 5.32945C 31.2322 5.35361 31.1962 5.38955 31.1491 5.43666C 31.0549 5.53086 30.9161 5.66971 30.7375 5.8483C 30.3803 6.20547 29.8642 6.72157 29.2285 7.3573C 27.957 8.62877 26.207 10.3788 24.2929 12.2929C 23.9024 12.6834 23.9024 13.3166 24.2929 13.7071C 24.6834 14.0976 25.3166 14.0976 25.7071 13.7071C 27.6212 11.793 29.3712 10.043 30.6427 8.77152C 31.2784 8.13578 31.7945 7.61968 32.1517 7.26251C 32.3303 7.08393 32.4691 6.94507 32.5633 6.85087C 32.6104 6.80377 32.6464 6.76783 32.6706 6.74366C 32.6767 6.73754 32.682 6.73217 32.6866 6.72757C 32.6911 6.72309 32.6949 6.71934 32.6979 6.71632C 32.701 6.71326 32.7033 6.71096 32.7048 6.70942L 32.7051 6.70909L 32.7059 6.70834L 32.7065 6.70769L 32.707 6.70725L 32.7071 6.70711L 32.1271 6.12709L 32 6Z"/>
<path id="path1_fill" d="M 41.2929 34.2929C 41.2929 34.2929 41.3073 34.3073 41.9314 34.9314L 42 35L 42.0585 35.0585L 42.7072 35.707L 42.7074 35.7069L 42.7081 35.7061L 42.7085 35.7057L 42.7095 35.7047L 42.7111 35.7031C 42.7137 35.7005 42.7177 35.6965 42.7229 35.6913C 42.7285 35.6857 42.7355 35.6787 42.7439 35.6703C 42.7513 35.663 42.7596 35.6546 42.769 35.6452C 42.8094 35.6048 42.8687 35.5455 42.9444 35.4698C 43.0958 35.3184 43.3126 35.1016 43.5743 34.8399C 44.0977 34.3165 44.8009 33.6134 45.5196 32.8946C 46.9571 31.4571 48.4571 29.9571 48.7071 29.7071C 49.1432 29.271 49.4731 28.5473 49.5564 27.7979C 49.6329 27.1095 49.5103 26.2974 48.9722 25.595C 48.8931 25.4917 48.8049 25.3907 48.7071 25.2929C 48.6093 25.1951 48.5084 25.1069 48.405 25.0278C 47.7027 24.4897 46.8905 24.3671 46.2021 24.4436C 45.4527 24.5269 44.729 24.8568 44.2929 25.2929C 44.2867 25.2991 44.2782 25.3075 44.2675 25.3183C 43.4116 26.1742 28.2558 41.33 25.2929 44.2929C 22.7286 46.8572 18.8633 46.4491 16.7071 44.2929C 14.5533 42.1391 14.1389 38.306 16.7113 35.7029C 19.7089 32.6695 38.2068 14.2074 38.7071 13.7071C 39.1615 13.2527 39.465 12.499 39.5366 11.7631C 39.5883 11.2314 39.5276 10.6122 39.2417 10.0354C 39.1128 9.77528 38.938 9.52379 38.7071 9.29289C 38.4762 9.062 38.2247 8.88724 37.9646 8.75829C 37.3879 8.47241 36.7686 8.41167 36.2369 8.46341C 35.501 8.53502 34.7473 8.83846 34.2929 9.29289C 34.2371 9.34871 33.9818 9.60396 33.5682 10.0176C 30.2769 13.3088 16.958 26.6278 14.2929 29.2929C 11.7286 31.8572 7.86332 31.4491 5.70711 29.2929C 3.55089 27.1367 3.14279 23.2714 5.70711 20.7071C 8.7071 17.7071 6.67742 19.7368 8.70711 17.7071C 10.3767 16.0375 10.15 13.9085 9.80744 12.7225C 9.68385 12.2946 9.29213 12 8.84671 12C 7.5522 12.0195 6.77692 11.6849 5.98953 11.0375C 5.18578 10.4015 4.56231 9.51512 3.82593 8.43622L 3 9C 2.18627 9.58124 2.18578 9.58055 2.18578 9.58055L 2.18523 9.57978L 2.18396 9.578C 2.18396 9.578 2.18196 9.57518 2.18074 9.57345C 2.92804 10.6677 3.73481 11.7772 4.73445 12.5947C 5.58306 13.268 6.69965 13.781 8.02433 13.945C 8.12031 14.7233 7.98961 15.5962 7.29289 16.2929C 5.26321 18.3226 7.2929 16.2929 4.29289 19.2929C 0.857211 22.7286 1.44911 27.8633 4.29289 30.7071C 7.13668 33.5509 12.2714 34.1428 15.7071 30.7071C 18.3722 28.042 31.6911 14.7231 34.9824 11.4318C 35.396 11.0182 35.6513 10.7629 35.7071 10.7071C 35.6894 10.7275 35.7163 10.6942 35.7669 10.6638C 35.823 10.6274 35.8557 10.6106 35.9347 10.5782C 36.1024 10.5052 36.2278 10.4703 36.4306 10.454C 36.7981 10.4182 37.0922 10.5065 37.2929 10.7071C 37.4935 10.9078 37.5818 11.2019 37.546 11.5694C 37.5297 11.7722 37.4948 11.8976 37.4218 12.0653C 37.3894 12.1443 37.3726 12.177 37.3362 12.2331C 37.3058 12.2837 37.2725 12.3106 37.2929 12.2929C 36.7932 12.7926 18.2911 31.2588 15.2887 34.2971C 11.8611 37.7657 12.4466 42.8609 15.2929 45.7071C 18.1367 48.5509 23.2714 49.1428 26.7071 45.7071C 29.67 42.7442 44.8258 27.5884 45.6817 26.7325C 45.6925 26.7218 45.7009 26.7133 45.7071 26.7071C 45.746 26.6682 45.8638 26.5899 46.0348 26.5251C 46.1445 26.4836 46.2762 26.4477 46.4229 26.4314C 46.7582 26.3941 47.0558 26.47 47.2929 26.7071C 47.53 26.9442 47.6059 27.2418 47.5686 27.5771C 47.5523 27.7238 47.5164 27.8554 47.4749 27.9652C 47.4102 28.1362 47.3318 28.254 47.2929 28.2929C 47.0429 28.5429 45.5429 30.0429 44.1054 31.4804C 43.3866 32.1991 42.6835 32.9023 42.1601 33.4257C 41.8984 33.6874 41.6816 33.9042 41.5302 34.0556C 41.4545 34.1313 41.3952 34.1906 41.3548 34.231C 41.3346 34.2512 41.3191 34.2667 41.3087 34.2771C 41.3035 34.2823 41.2995 34.2863 41.2969 34.2889L 41.2939 34.2919L 41.2931 34.2926L 41.2929 34.2929ZM 41.2955 21.2903L 41.2929 21.2929C 38.2851 24.2791 22.7749 39.8114 22.3062 40.3295C 22.3334 40.2887 22.2655 40.3756 22.1162 40.4375C 21.9519 40.5131 21.8282 40.5498 21.6226 40.5682C 21.253 40.608 20.9365 40.5223 20.7071 40.2929C 20.47 40.0558 20.3941 39.7582 20.4314 39.4229C 20.4477 39.2762 20.4836 39.1446 20.5251 39.0349C 20.5898 38.8638 20.6682 38.746 20.7071 38.7071C 20.9571 38.4571 26.4571 32.9571 31.8946 27.5196C 34.6134 24.8009 37.3165 22.0977 39.3399 20.0743C 40.3516 19.0626 41.1934 18.2208 41.7823 17.6319C 42.0767 17.3375 42.3079 17.1063 42.4655 16.9487C 42.5443 16.8699 42.6047 16.8095 42.6454 16.7688C 42.6511 16.7631 42.6565 16.7577 42.6614 16.7528C 42.6703 16.7439 42.6779 16.7363 42.6843 16.73C 42.6869 16.7273 42.6893 16.7249 42.6915 16.7227L 42.6937 16.7206C 42.6967 16.7176 42.6991 16.7151 42.7011 16.7131L 42.7032 16.711L 42.7061 16.7081L 42.7068 16.7075L 42.7069 16.7074C 42.7069 16.7074 42.7071 16.7071 42.0692 16.0692L 42 16C 42.0234 16.0234 42.0461 16.0461 42.068 16.068L 42.7071 16.7071C 46.1428 13.2714 45.5509 8.13668 42.7071 5.29289C 39.8633 2.44911 34.7286 1.85721 31.2929 5.29289C 31.2929 5.29289 31.3053 5.30531 32 6C 32.0452 6.04519 32.0875 6.08749 32.1271 6.12709C 32.6962 6.69624 32.7071 6.70711 32.7071 6.70711C 35.2714 4.14279 39.1367 4.55089 41.2929 6.70711C 43.4491 8.86332 43.8572 12.7286 41.2929 15.2929L 41.9996 15.9996C 41.2929 15.2929 41.2926 15.2931 41.2926 15.2931L 41.2919 15.2939L 41.289 15.2968C 41.2864 15.2994 41.2825 15.3033 41.2773 15.3085C 41.267 15.3188 41.2515 15.3342 41.2312 15.3546C 41.1905 15.3953 41.1301 15.4557 41.0513 15.5345C 40.8937 15.6921 40.6625 15.9233 40.3681 16.2177C 39.7792 16.8066 38.9374 17.6484 37.9257 18.6601C 35.9023 20.6835 33.1991 23.3866 30.4804 26.1054C 25.0429 31.5429 19.5429 37.0429 19.2929 37.2929C 18.8568 37.729 18.5269 38.4527 18.4436 39.2021C 18.3671 39.8905 18.4897 40.7027 19.0278 41.4051C 19.107 41.5084 19.1951 41.6093 19.2929 41.7071C 19.4964 41.9106 19.7146 42.0718 19.9401 42.1973C 20.5687 42.5471 21.2542 42.6195 21.8367 42.5568C 22.5797 42.4768 23.3516 42.1557 23.7901 41.6705C 23.7734 41.6892 23.8798 41.5765 24.0166 41.437C 24.1546 41.2962 24.3442 41.1039 24.5801 40.8655C 25.0524 40.388 25.7057 39.73 26.4871 38.9443C 28.0503 37.3727 30.1233 35.2932 32.2763 33.1358C 36.5825 28.8209 41.2058 24.1976 42.7045 22.7097L 42.7071 22.7071C 45.2714 20.1428 49.1367 20.5509 51.2929 22.7071C 53.4491 24.8633 53.8572 28.7286 51.2929 31.2929C 48.2929 34.2929 47.2929 35.2929 45.2929 37.2929C 44.369 38.2167 43.9535 39.2602 43.8923 40.3007C 43.8495 41.2632 44.1231 42.2802 44.4646 43.0388C 44.5264 43.1731 44.5918 43.3052 44.6596 43.4341C 43.6144 42.9589 42.6105 42.2097 41.9314 41.2836C 41.3179 40.4632 41.0208 39.6997 41.1072 38.7384C 41.1659 37.8574 41.59 36.8242 42.7072 35.707C 42.7072 35.707 42.6926 35.6926 42.0585 35.0585C 42.0396 35.0396 42.0201 35.0201 42 35C 41.9764 34.9764 41.9535 34.9535 41.9314 34.9314C 41.3073 34.3073 41.2929 34.2929 41.2929 34.2929C 39.91 35.6757 39.2091 37.1426 39.1116 38.6054C 39.0417 39.9878 39.5571 41.4118 40.3186 42.4664C 41.8709 44.5831 44.6632 46 47 46L 47 45C 47.7071 44.2929 47.7076 44.2934 47.7076 44.2934L 47.7071 44.2929C 47.7071 44.2929 47.7056 44.2914 47.7042 44.2899C 47.6982 44.2838 47.6917 44.277 47.6804 44.2651C 47.6549 44.2384 47.6231 44.2044 47.5779 44.154C 47.4815 44.0467 47.3599 43.9058 47.2112 43.7142C 46.9015 43.3167 46.5586 42.8214 46.2854 42.2112C 46.0019 41.5948 45.838 41.0493 45.8889 40.4181C 45.9214 39.8648 46.1309 39.2833 46.7071 38.7071C 48.7071 36.7071 49.7071 35.7071 52.7071 32.7071C 56.1428 29.2714 55.5509 24.1367 52.7071 21.2929C 49.864 18.4498 44.7311 17.8575 41.2955 21.2903Z"/>
<path id="path2_fill" d="M 1.70711 0.292893C 1.31658 -0.097631 0.683418 -0.0976311 0.292893 0.292893C -0.097631 0.683417 -0.0976311 1.31658 0.292893 1.70711L 1.65459 3.0688C 0.717124 4.48079 0.789202 6.02834 1.09543 7.19199C 1.17152 7.47524 1.26492 7.74925 1.36319 8.00107C 1.49896 8.34901 1.64403 8.65459 1.76556 8.88368C 1.81125 8.96927 1.85636 9.05008 1.89847 9.1232C 1.9578 9.22622 2.01117 9.31399 2.05178 9.37841C 2.0607 9.39252 2.06943 9.4062 2.07782 9.41927C 2.10455 9.46085 2.12793 9.49619 2.14346 9.51922L 2.1446 9.52092C 2.15564 9.53724 2.16591 9.55218 2.17166 9.56045L 2.17407 9.56378L 3 9L 3.81373 8.41876C 3.81053 8.41415 3.80759 8.40984 3.80161 8.40094C 3.78661 8.37873 3.76932 8.35262 3.74314 8.31104C 3.68563 8.22002 3.61657 8.10544 3.53131 7.94445C 3.35018 7.60495 3.16084 7.1959 3.02957 6.68301C 2.76817 5.68966 2.80166 4.61255 3.70711 3.70711C 4.60966 2.80456 5.71009 2.76588 6.73844 3.03087C 7.26567 3.1632 7.68943 3.35445 8.03889 3.53618C 8.205 3.62196 8.32403 3.6918 8.41796 3.74956C 8.46104 3.77596 8.48841 3.7936 8.51142 3.8087C 8.52101 3.81498 8.52565 3.81806 8.53065 3.82144L 8.53078 3.82156L 8.53124 3.82185C 8.53124 3.82185 8.53065 3.82144 9.10094 3C 8.64454 3.88977 8.64388 3.88943 8.64388 3.88943L 8.64419 3.88962L 8.64454 3.88977C 8.64981 3.89256 8.65472 3.89521 8.66474 3.90071C 8.68913 3.91404 8.71812 3.93022 8.76275 3.95644C 8.86011 4.01345 8.98289 4.08875 9.14565 4.20042C 9.48831 4.4343 9.89846 4.74718 10.3344 5.19801C 11.2001 6.08619 12 7.34945 12 9C 12 9.25516 12.0975 9.50068 12.2727 9.68627C 13.001 10.4582 13.4943 12.1271 13.3767 14.1108C 13.2615 16.0555 12.571 18.0148 11.2929 19.2929C 10.2929 20.2929 8.79289 21.7929 8.29289 22.2929C 7.85676 22.729 7.52688 23.4527 7.44362 24.2021C 7.36712 24.8905 7.48968 25.7027 8.02781 26.4051C 8.10696 26.5084 8.19509 26.6093 8.29289 26.7071C 8.3907 26.8049 8.49162 26.893 8.59492 26.9722C 9.29731 27.5103 10.1095 27.6329 10.7979 27.5564C 11.5473 27.4731 12.271 27.1432 12.7071 26.7071C 12.9366 26.4776 21.1896 18.2246 25.7071 13.7071C 26.0976 13.3166 26.0976 12.6834 25.7071 12.2929C 25.3166 11.9024 24.6834 11.9024 24.2929 12.2929C 19.7754 16.8104 11.5224 25.0634 11.2929 25.2929C 11.254 25.3318 11.1362 25.4102 10.9651 25.4749C 10.8554 25.5164 10.7238 25.5523 10.5771 25.5686C 10.2418 25.6059 9.94424 25.53 9.70711 25.2929C 9.46997 25.0558 9.39413 24.7582 9.43138 24.4229C 9.44769 24.2762 9.4836 24.1446 9.52512 24.0349C 9.58985 23.8638 9.6682 23.746 9.70711 23.7071C 10.2071 23.2071 11.7071 21.7071 12.7071 20.7071C 14.429 18.9852 15.2385 16.5043 15.3732 14.229C 15.4962 12.1534 15.0685 9.99623 13.9898 8.61932C 13.8742 6.4621 12.7909 4.85289 11.7666 3.80199C 11.4745 3.50434 11.1749 3.2396 10.8998 3.01717C 10.6674 2.82921 10.4526 2.67146 10.2747 2.54958C 10.1794 2.48454 10.0886 2.42527 10.0072 2.37367C 9.91551 2.31551 9.8356 2.26708 9.77421 2.23106C 9.75778 2.22144 9.74186 2.21222 9.72672 2.20352C 9.68474 2.17941 9.64878 2.15934 9.62472 2.14616L 9.62227 2.14482C 9.62021 2.1437 9.61818 2.14259 9.61617 2.1415C 9.61439 2.14033 9.61258 2.13914 9.61076 2.13794L 9.60837 2.13637C 9.58535 2.12128 9.55048 2.09883 9.50935 2.07307C 9.49514 2.06417 9.48018 2.05488 9.46471 2.04536C 9.40103 2.00629 9.31533 1.9555 9.21488 1.89896C 9.13744 1.85538 9.05123 1.80838 8.95957 1.76069C 8.73346 1.64373 8.43559 1.50526 8.09687 1.37441C 7.83064 1.27157 7.53918 1.17342 7.2375 1.09413C 6.06018 0.790759 4.49024 0.715566 3.06951 1.6553L 1.70711 0.292893Z"/>
<path id="path3_fill" d="M 3.81565 8.42146L 3.81513 8.42072L 3.81546 8.42118L 3.81573 8.42158L 3.81565 8.42146Z"/>
<path id="path4_fill" d="M 2.17407 9.56378C 2.17563 9.56601 2.17705 9.56819 2.17831 9.56999C 2.1769 9.56792 2.17549 9.56585 2.17407 9.56378Z"/>
<path id="path5_fill" d="M 8.53256 3.82276L 8.53321 3.82321L 8.53298 3.82305L 8.53256 3.82276Z"/>
<path id="path6_fill" d="M 8.64166 3.88829L 8.64241 3.88868L 8.64193 3.88843L 8.64147 3.88819L 8.64166 3.88829Z"/>
<path id="path7_fill" d="M 4 9C 4 9.55228 3.55228 10 3 10C 2.44772 10 2 9.55228 2 9C 2 8.44772 2.44772 8 3 8C 3.55228 8 4 8.44772 4 9Z"/>
<path id="path8_fill" d="M 10 3C 10 3.55228 9.55228 4 9 4C 8.44772 4 8 3.55228 8 3C 8 2.44772 8.44772 2 9 2C 9.55228 2 10 2.44772 10 3Z"/>
<path id="path9_fill" d="M 48 45C 48 45.5523 47.5523 46 47 46C 46.4477 46 46 45.5523 46 45C 46 44.4477 46.4477 44 47 44C 47.5523 44 48 44.4477 48 45Z"/>
</defs>
</svg>
