<svg width="72" height="72" viewBox="0 0 72 72" version="2.0" xmlns="http://www.w3.org/2000/svg" xmlns:xlink="http://www.w3.org/1999/xlink" xmlns:figma="http://www.figma.com/figma/ns">
<title>5.svg</title>
<desc>Created using Figma 0.90</desc>
<g id="Canvas" transform="translate(738 -372)" figma:type="canvas">
<mask id="mask0_outline" mask-type="alpha">
<path d="M -738 372L -666 372L -666 444L -738 444L -738 372Z" fill="#FFFFFF"/>
</mask>
<g id="5" style="mix-blend-mode:normal;" mask="url(#mask0_outline)" figma:type="frame">
<g id="Vector (Stroke)" style="mix-blend-mode:normal;" figma:type="vector">
<use xlink:href="#path0_fill" transform="translate(-726 384)" fill="#FFFFFF" style="mix-blend-mode:normal;"/>
<use xlink:href="#path1_fill" transform="translate(-726 384)" fill="#FFFFFF" style="mix-blend-mode:normal;"/>
<use xlink:href="#path2_fill" transform="translate(-726 384)" fill="#FFFFFF" style="mix-blend-mode:normal;"/>
<use xlink:href="#path3_fill" transform="translate(-726 384)" fill="#FFFFFF" style="mix-blend-mode:normal;"/>
<use xlink:href="#path4_fill" transform="translate(-726 384)" fill="#FFFFFF" style="mix-blend-mode:normal;"/>
</g>
</g>
</g>
<defs>
<path id="path0_fill" d="M 20 12C 20 12.5523 20.4477 13 21 13C 21.5523 13 22 12.5523 22 12L 22 3C 22 2.44772 22.4477 2 23 2L 45 2C 45.5523 2 46 2.44772 46 3L 46 21C 46 21.5523 45.5523 22 45 22L 38 22C 37.8126 22 37.6289 22.0527 37.47 22.152L 31 26.1958L 31 23C 31 22.4477 30.5523 22 30 22L 27 22C 26.4477 22 26 22.4477 26 23C 26 23.5523 26.4477 24 27 24L 29 24L 29 28C 29 28.3635 29.1973 28.6984 29.5152 28.8746C 29.8332 29.0509 30.2217 29.0407 30.53 28.848L 38.2868 24L 45 24C 46.6569 24 48 22.6569 48 21L 48 3C 48 1.34315 46.6569 0 45 0L 23 0C 21.3431 0 20 1.34315 20 3L 20 12Z"/>
<path id="path1_fill" d="M 40 10C 40.5523 10 41 9.55228 41 9C 41 8.44772 40.5523 8 40 8L 28 8C 27.4477 8 27 8.44772 27 9C 27 9.55228 27.4477 10 28 10L 40 10Z"/>
<path id="path2_fill" d="M 40 15C 40.5523 15 41 14.5523 41 14C 41 13.4477 40.5523 13 40 13L 28 13C 27.4477 13 27 13.4477 27 14C 27 14.5523 27.4477 15 28 15L 40 15Z"/>
<path id="path3_fill" d="M 9 35C 8.47 34.152 8.46939 34.1524 8.46939 34.1524L 8.46859 34.1529L 8.46645 34.1542C 8.46645 34.1542 8.46262 34.1566 8.45999 34.1583C 8.45627 34.1607 8.45034 34.1644 8.44339 34.1688L 8.43853 34.1719C 8.42978 34.1775 8.41816 34.185 8.40439 34.1939C 8.39205 34.2019 8.37798 34.211 8.36272 34.221C 8.34768 34.2309 8.33064 34.2421 8.31178 34.2546C 8.25328 34.2933 8.17731 34.3443 8.08972 34.4045C 8.081 34.4105 8.07212 34.4166 8.06308 34.4228C 7.83814 34.5782 7.51443 34.8098 7.13949 35.0986C 6.37216 35.6904 5.31233 36.5865 4.2718 37.6896C 2.20642 39.8841 7.0141e-06 43.1213 1.63758e-12 47C -4.79606e-07 47.2652 0.105356 47.5196 0.292893 47.7071C 0.480429 47.8946 0.734783 48 1 48L 31 48C 31.5523 48 32 47.5523 32 47C 32 43.1213 29.7936 39.8841 27.7282 37.6896C 26.6877 36.5865 25.6278 35.6904 24.8605 35.0986C 24.4856 34.8098 24.1619 34.5782 23.9369 34.4228C 23.9279 34.4166 23.919 34.4105 23.9103 34.4045C 23.8227 34.3443 23.7467 34.2933 23.6882 34.2546C 23.6694 34.2421 23.6523 34.2309 23.6373 34.221C 23.622 34.211 23.6079 34.2019 23.5956 34.1939C 23.5818 34.185 23.5702 34.1775 23.5615 34.1719L 23.5566 34.1688C 23.5497 34.1644 23.5437 34.1607 23.54 34.1583C 23.5374 34.1566 23.5336 34.1542 23.5336 34.1542L 23.5314 34.1529L 23.5306 34.1524C 23.5306 34.1524 23.53 34.152 23 35L 23.53 34.152C 23.1351 33.9052 22.6222 33.9636 22.2929 34.2929L 16 40.5858L 9.70711 34.2929C 9.37784 33.9636 8.86488 33.9052 8.47 34.152L 9 35ZM 29.9391 46L 2.06089 46C 2.38973 43.2892 4.00289 40.8935 5.72821 39.0604C 6.68767 38.0385 7.62785 37.2471 8.36051 36.6826C 8.55432 36.5331 8.72797 36.4042 8.88005 36.2943L 15.2929 42.7071C 15.6834 43.0976 16.3166 43.0976 16.7071 42.7071L 23.12 36.2943C 23.272 36.4042 23.4457 36.5331 23.6395 36.6826C 24.3722 37.2471 25.3123 38.0385 26.2718 39.0604C 27.9971 40.8935 29.6103 43.2892 29.9391 46Z"/>
<path id="path4_fill" d="M 21.5481 17C 21.3163 17.3748 20.9764 17.7837 20.4249 18.2296C 18.9367 19.4612 15.9469 20.8482 10 20.9884L 10 20C 10 18.3431 11.3431 17 13 17L 21.5481 17ZM 23.9788 16.2238C 23.9842 16.1892 23.989 16.1535 23.9911 16.136C 23.9925 16.1243 23.9939 16.1109 23.9945 16.105C 23.9949 16.1006 23.9955 16.0951 23.9957 16.0929L 23.9961 16.0877L 23.9964 16.0853C 23.9964 16.0853 23.9965 16.083 23 16L 23.9965 16.083C 24.0198 15.8044 23.9252 15.5287 23.7359 15.3229C 23.5465 15.1171 23.2797 15 23 15L 13 15C 10.2386 15 8 17.2386 8 20L 8 22L 8 26C 8 30.4183 11.5817 34 16 34C 20.4183 34 24 30.4183 24 26L 24 23C 24 22.4477 23.5523 22 23 22C 22.4477 22 22 22.4477 22 23L 22 26C 22 29.3137 19.3137 32 16 32C 12.6863 32 10 29.3137 10 26L 10 22.9889C 16.2521 22.8482 19.7463 21.3873 21.7001 19.7704C 22.0561 19.4704 22.3627 19.161 22.6233 18.8586C 23.1065 18.2978 23.4316 17.7613 23.62 17.3542C 23.6458 17.297 23.6702 17.2403 23.693 17.1846C 23.8068 16.9076 23.884 16.6556 23.9236 16.4949L 23.9241 16.4928C 23.9501 16.3843 23.9697 16.2804 23.9788 16.2238Z"/>
</defs>
</svg>
