<svg width="72" height="72" viewBox="0 0 72 72" version="2.0" xmlns="http://www.w3.org/2000/svg" xmlns:xlink="http://www.w3.org/1999/xlink" xmlns:figma="http://www.figma.com/figma/ns">
<title>1.svg</title>
<desc>Created using Figma 0.90</desc>
<g id="Canvas" transform="translate(830 -280)" figma:type="canvas">
<mask id="mask0_outline" mask-type="alpha">
<path d="M -830 280L -758 280L -758 352L -830 352L -830 280Z" fill="#FFFFFF"/>
</mask>
<g id="1" style="mix-blend-mode:normal;" mask="url(#mask0_outline)" figma:type="frame">
<g id="Vector (Stroke)" style="mix-blend-mode:normal;" figma:type="vector">
<use xlink:href="#path0_fill" transform="translate(-820 295)" fill="#FFFFFF" style="mix-blend-mode:normal;"/>
<use xlink:href="#path1_fill" transform="translate(-820 295)" fill="#FFFFFF" style="mix-blend-mode:normal;"/>
<use xlink:href="#path2_fill" transform="translate(-820 295)" fill="#FFFFFF" style="mix-blend-mode:normal;"/>
<use xlink:href="#path3_fill" transform="translate(-820 295)" fill="#FFFFFF" style="mix-blend-mode:normal;"/>
<use xlink:href="#path4_fill" transform="translate(-820 295)" fill="#FFFFFF" style="mix-blend-mode:normal;"/>
</g>
</g>
</g>
<defs>
<path id="path0_fill" d="M 37.1538 34C 36.6016 34 36.1538 34.4477 36.1538 35C 36.1538 35.394 36.3817 35.7348 36.7128 35.8978C 37.2042 37.0258 37.2182 38.0826 36.9951 38.8438C 36.8678 39.2781 36.6917 39.5601 36.5163 39.7367C 36.3622 39.892 36.2086 39.9659 36.0891 39.9903C 36.0801 39.9836 36.07 39.9756 36.0587 39.9664C 35.9103 39.849 35.7543 39.6767 35.5209 39.4074C 35.0468 38.861 34.4154 38.0714 33.5598 37.269C 31.7988 35.6252 29.129 34 24.7907 34L 23 34C 22.4477 34 22 34.4477 22 35C 22 35.5523 22.4477 36 23 36L 24.7907 36C 28.5432 36 30.7421 37.3748 32.1951 38.731C 32.9465 39.4286 33.5084 40.139 34.0099 40.7176C 34.2643 41.0108 34.5416 41.3072 34.7966 41.5179C 35.0623 41.7341 35.4727 42 36 42C 37.5129 42 38.5246 40.7365 38.9144 39.4062C 39.2138 38.3844 39.2225 37.1605 38.8427 35.9041C 46.2548 35.0567 52 28.6982 52 21C 51.9906 18.313 51.2479 15.6723 50.0156 13.5034C 49.7414 13.024 49.1304 12.8578 48.651 13.132C 48.1717 13.4063 48.0054 14.0172 48.2796 14.4966C 49.4036 16.4461 50.0094 18.587 50 21C 50 28.1901 44.2382 34 37.1538 34Z"/>
<path id="path1_fill" d="M 13 12C 11.3431 12 10 13.3431 10 15C 10 16.6569 11.3431 18 13 18C 14.6569 18 16 16.6569 16 15C 16 13.3431 14.6569 12 13 12ZM 14 15C 14 15.5523 13.5523 16 13 16C 12.4477 16 12 15.5523 12 15C 12 14.4477 12.4477 14 13 14C 13.5523 14 14 14.4477 14 15Z"/>
<path id="path2_fill" d="M 23 12C 21.3431 12 20 13.3431 20 15C 20 16.6569 21.3431 18 23 18C 24.6569 18 26 16.6569 26 15C 26 13.3431 24.6569 12 23 12ZM 24 15C 24 15.5523 23.5523 16 23 16C 22.4477 16 22 15.5523 22 15C 22 14.4477 22.4477 14 23 14C 23.5523 14 24 14.4477 24 15Z"/>
<path id="path3_fill" d="M 33 12C 31.3431 12 30 13.3431 30 15C 30 16.6569 31.3431 18 33 18C 34.6569 18 36 16.6569 36 15C 36 13.3431 34.6569 12 33 12ZM 34 15C 34 15.5523 33.5523 16 33 16C 32.4477 16 32 15.5523 32 15C 32 14.4477 32.4477 14 33 14C 33.5523 14 34 14.4477 34 15Z"/>
<path id="path4_fill" d="M 14.9231 1.99709C 14.9485 1.99902 14.9741 2 15 2L 31 2C 38.1797 2 44 7.8203 44 15C 44 22.1797 38.1797 28 31 28L 29.0016 28L 27.2093 28C 22.871 28 20.2012 29.6252 18.4402 31.269C 17.5846 32.0713 16.9532 32.861 16.4791 33.4074C 16.2457 33.6767 16.0897 33.849 15.9413 33.9664C 15.93 33.9756 15.9199 33.9836 15.9109 33.9903C 15.7914 33.9659 15.6378 33.892 15.4837 33.7367C 15.3083 33.5601 15.1322 33.2781 15.0049 32.8438C 14.7818 32.0826 14.7958 31.0258 15.2872 29.8978C 15.6183 29.7348 15.8462 29.394 15.8462 29C 15.8462 28.4477 15.3984 28 14.8462 28C 7.76181 28 2 22.1901 2 15C 2 7.80985 7.76181 2 14.8462 2C 14.872 2 14.8977 1.99902 14.9231 1.99709ZM 14.9231 0.00291468C 14.8977 0.000983334 14.872 0 14.8462 0C 6.63646 0 0 6.72618 0 15C 0 22.6982 5.74521 29.0567 13.1573 29.9041C 12.7775 31.1605 12.7862 32.3844 13.0856 33.4062C 13.4754 34.7365 14.4871 36 16 36C 16.5273 36 16.9377 35.7341 17.2034 35.5179C 17.4584 35.3072 17.7357 35.0108 17.9901 34.7176C 18.4916 34.139 19.0535 33.4286 19.8049 32.731C 21.2579 31.3748 23.4568 30 27.2093 30L 29.0016 30L 31 30C 39.2843 30 46 23.2843 46 15C 46 6.71573 39.2843 0 31 0L 15 0C 14.9741 0 14.9485 0.000983334 14.9231 0.00291468Z"/>
</defs>
</svg>
