<svg width="72" height="72" viewBox="0 0 72 72" version="2.0" xmlns="http://www.w3.org/2000/svg" xmlns:xlink="http://www.w3.org/1999/xlink" xmlns:figma="http://www.figma.com/figma/ns">
<title>6.svg</title>
<desc>Created using Figma 0.90</desc>
<g id="Canvas" transform="translate(646 -372)" figma:type="canvas">
<mask id="mask0_outline" mask-type="alpha">
<path d="M -646 372L -574 372L -574 444L -646 444L -646 372Z" fill="#FFFFFF"/>
</mask>
<g id="6" style="mix-blend-mode:normal;" mask="url(#mask0_outline)" figma:type="frame">
<g id="Vector" style="mix-blend-mode:normal;" figma:type="vector">
<use xlink:href="#path0_fill" transform="translate(-631.939 385.994)" fill="#FDAD00" style="mix-blend-mode:normal;"/>
<use xlink:href="#path1_fill" transform="translate(-631.939 385.994)" fill="#FDAD00" style="mix-blend-mode:normal;"/>
<use xlink:href="#path2_fill" transform="translate(-631.939 385.994)" fill="#FDAD00" style="mix-blend-mode:normal;"/>
<use xlink:href="#path3_fill" transform="translate(-631.939 385.994)" fill="#FDAD00" style="mix-blend-mode:normal;"/>
<use xlink:href="#path4_fill" transform="translate(-631.939 385.994)" fill="#FDAD00" style="mix-blend-mode:normal;"/>
</g>
</g>
</g>
<defs>
<path id="path0_fill" d="M 32.9393 14.0057C 32.2322 13.2986 32.2325 13.2983 32.2325 13.2983L 32.2322 13.2986C 32.2322 13.2986 32.2307 13.3001 32.2292 13.3016C 32.2243 13.3064 32.2186 13.312 32.2091 13.3211C 32.1883 13.3414 32.1604 13.368 32.1199 13.4059C 32.0347 13.4855 31.9168 13.5931 31.7556 13.7322C 31.4243 14.0183 30.9664 14.3907 30.3745 14.8032C 29.6591 15.3034 28.815 15.8244 27.8627 16.2544C 28.1919 15.6929 28.602 15.0576 29.0829 14.3634C 30.2289 12.7087 31.6665 10.8722 33.0926 9.13541C 35.816 5.81761 38.4376 2.9427 38.6611 2.69824C 39.1061 2.25884 39.5963 2.02925 40.0021 2.00374C 40.5185 1.97126 41.0634 2.14397 41.4322 2.51281C 41.8011 2.88166 41.9738 3.42659 41.9413 3.94294C 41.9155 4.35316 41.6811 4.8497 41.2322 5.2986L 38.2322 8.2986C 37.8417 8.68912 37.8417 9.32229 38.2322 9.71281C 38.6228 10.1033 39.2559 10.1033 39.6465 9.71281L 42.6464 6.71281C 43.337 6.02226 43.873 5.09246 43.9374 4.06847C 44.0002 3.06974 43.6813 1.93345 42.8464 1.0986C 42.0116 0.263749 40.8753 -0.0551307 39.8766 0.00767852C 38.8526 0.0720764 37.9228 0.608045 37.2322 1.2986C 37.222 1.30884 37.212 1.31931 37.2022 1.32999C 37.1993 1.33315 34.4311 4.35375 31.5468 7.86633C 30.1061 9.62128 28.6187 11.5223 27.4389 13.2244C 26.3772 14.7568 25.466 16.2635 25.1069 17.424L 0.292893 42.2379C -0.0976311 42.6285 -0.097631 43.2616 0.292893 43.6522C 0.683418 44.0427 1.31658 44.0427 1.70711 43.6522L 26.5136 18.8456C 28.0408 18.4352 29.4495 17.7432 30.5752 17.0582C 30.9177 16.8498 31.2339 16.6421 31.5194 16.4431C 32.1013 16.0361 32.5934 15.6441 32.9443 15.3471C 32.9857 15.312 33.0251 15.2783 33.0625 15.2461C 33.1999 15.1274 33.3177 15.0217 33.4077 14.9391C 33.4366 14.9126 33.4627 14.8884 33.4856 14.867C 33.5104 14.8438 33.5331 14.8224 33.5526 14.8038C 33.5717 14.7856 33.5879 14.7701 33.6002 14.7581C 33.6032 14.7552 33.6062 14.7523 33.609 14.7496C 33.6187 14.7402 33.6268 14.7322 33.6321 14.7271C 33.6359 14.7233 33.6395 14.7197 33.6415 14.7178L 33.6445 14.7147L 33.6456 14.7136L 33.6461 14.7132C 33.6461 14.7132 33.6464 14.7128 32.9393 14.0057Z"/>
<path id="path1_fill" d="M 33.9393 14.0057C 33.9393 14.558 33.4916 15.0057 32.9393 15.0057C 32.3871 15.0057 31.9393 14.558 31.9393 14.0057C 31.9393 13.4534 32.3871 13.0057 32.9393 13.0057C 33.4916 13.0057 33.9393 13.4534 33.9393 14.0057Z"/>
<path id="path2_fill" d="M 30.9393 5.00571C 30.9393 5.55799 30.4916 6.00571 29.9393 6.00571C 29.3871 6.00571 28.9393 5.55799 28.9393 5.00571C 28.9393 4.45342 29.3871 4.00571 29.9393 4.00571C 30.4916 4.00571 30.9393 4.45342 30.9393 5.00571Z"/>
<path id="path3_fill" d="M 44.9393 46.0057C 45.4916 46.0057 45.9393 45.558 45.9393 45.0057C 45.9393 44.4534 45.4916 44.0057 44.9393 44.0057C 38.9126 44.0057 34.9388 41.72 33.3013 38.9362C 31.714 36.2379 32.1403 32.7548 35.5943 29.7614C 39.5344 26.3466 41.0766 22.5693 40.9461 19.0314C 40.817 15.5277 39.0528 12.4106 36.6685 10.2627C 36.2582 9.89308 35.6259 9.92605 35.2562 10.3364C 34.8866 10.7467 34.9196 11.379 35.3299 11.7487C 37.3858 13.6008 38.8416 16.2337 38.9475 19.105C 39.0439 21.7186 38.0264 24.6595 35.0824 27.5186C 34.8306 27.7631 34.5648 28.007 34.2844 28.25C 30.2383 31.7566 29.4147 36.2735 31.5774 39.9502C 33.6899 43.5414 38.4661 46.0057 44.9393 46.0057Z"/>
<path id="path4_fill" d="M 18.9393 0.00570583C 16.0908 0.0105725 13.4582 0.532793 11.6109 1.04171C 10.6764 1.29997 9.90187 1.56326 9.38203 1.75511C 9.14139 1.84403 8.94336 1.92182 8.80501 1.97787C 8.79109 1.98351 8.77777 1.98893 8.76507 1.99411C 8.71886 2.01301 8.67827 2.0299 8.64544 2.0437C 8.6273 2.05134 8.61153 2.05802 8.59848 2.06359C 8.59186 2.06642 8.5856 2.06911 8.57982 2.07159C 8.56865 2.0764 8.55933 2.08044 8.55287 2.08326L 8.5517 2.08376C 8.54672 2.08594 8.54229 2.08788 8.53975 2.089L 8.53565 2.09081L 8.53422 2.09144L 8.53366 2.09169C 8.53366 2.09169 8.5332 2.09189 8.93934 3.00571L 8.5332 2.09189C 8.02852 2.3162 7.80122 2.90716 8.02553 3.41184C 8.24971 3.91626 8.84017 4.14358 9.34467 3.91987L 9.34487 3.91979L 9.34512 3.91967L 9.34548 3.91952L 9.34548 3.91952C 9.34548 3.91952 9.34874 3.91809 9.35197 3.91668C 9.35953 3.91338 9.36909 3.90924 9.38395 3.9029C 9.41592 3.88924 9.45976 3.87077 9.52181 3.84542C 9.65053 3.79279 9.83181 3.72094 10.0748 3.6313C 10.5706 3.44816 11.2648 3.21144 12.1428 2.9697C 13.9205 2.47862 16.2879 2.00084 18.9393 2.00571C 21.5158 1.99054 24.0498 2.92672 26.0656 3.90552C 27.0632 4.38842 27.8765 4.86229 28.465 5.22932C 28.7545 5.40967 28.9746 5.55525 29.1306 5.66122C 29.2065 5.71268 29.2613 5.75083 29.3007 5.77855C 29.3193 5.79166 29.3319 5.8006 29.3414 5.80741C 29.3456 5.81045 29.3481 5.81219 29.3502 5.81375L 29.3512 5.81444L 29.3515 5.81467C 29.3515 5.81467 29.3512 5.81444 29.9393 5.00571C 30.5275 4.19697 30.5271 4.19665 30.5271 4.19665L 30.5265 4.19624L 30.525 4.19514C 30.525 4.19514 30.5223 4.1932 30.5205 4.19187C 30.5178 4.18996 30.5135 4.18689 30.5085 4.1833L 30.5054 4.18105C 30.4991 4.17655 30.4907 4.17052 30.4806 4.16338C 30.472 4.15732 30.4623 4.15045 30.4518 4.14302C 30.4409 4.13539 30.4286 4.12673 30.4148 4.11714C 30.3729 4.08791 30.3181 4.05004 30.2539 4.00644C 30.2505 4.0041 30.247 4.00175 30.2435 3.99936C 30.0772 3.88674 29.8287 3.72271 29.523 3.53209C 28.9085 3.14912 28.003 2.623 26.9381 2.10589C 26.6306 1.95701 26.3049 1.80722 25.9637 1.6599C 23.9649 0.796785 21.4366 0.0186613 18.9393 0.00570583Z"/>
</defs>
</svg>
