<svg width="36" height="36" viewBox="0 0 36 36" version="2.0" xmlns="http://www.w3.org/2000/svg" xmlns:xlink="http://www.w3.org/1999/xlink" xmlns:figma="http://www.figma.com/figma/ns">
<title>Union.svg</title>
<desc>Created using Figma 0.90</desc>
<g id="Canvas" transform="translate(246 276)" figma:type="canvas">
<g id="Union" style="mix-blend-mode:normal;" figma:type="vector">
<use xlink:href="#path0_fill" transform="translate(-246 -276)" fill="#FFFFFF" style="mix-blend-mode:normal;"/>
<use xlink:href="#path1_fill" transform="translate(-246 -276)" fill="#FFFFFF" style="mix-blend-mode:normal;"/>
</g>
</g>
<defs>
<path id="path0_fill" d="M 13 6C 13 5.44772 13.4477 5 14 5C 18.9706 5 23 9.02944 23 14C 23 14.5523 22.5523 15 22 15C 21.4477 15 21 14.5523 21 14C 21 10.134 17.866 7 14 7C 13.4477 7 13 6.55228 13 6Z"/>
<path id="path1_fill" d="M 26 14C 26 20.6274 20.6274 26 14 26C 7.37258 26 2 20.6274 2 14C 2 7.37258 7.37258 2 14 2C 20.6274 2 26 7.37258 26 14ZM 32.2929 30.7071L 33.2929 31.7071C 33.7406 32.1548 33.8906 32.419 33.9467 32.5589C 34.0181 32.6886 34 32.7485 34 32.997C 34 33.2455 33.8994 33.5148 33.7071 33.7071C 33.5113 33.9029 33.2567 34.0003 32.9988 34C 32.7418 33.9997 32.682 34.0179 32.555 33.9471C 32.4179 33.8919 32.1573 33.7431 31.7071 33.2929L 30.708 32.2938L 30.7071 32.2929L 28.7071 30.2929L 26.7071 28.2929C 26.2594 27.8452 26.1094 27.581 26.0533 27.4411C 25.9819 27.3114 26 27.2515 26 27.003C 26 26.7545 26.1006 26.4852 26.2929 26.2929C 26.4887 26.0971 26.7433 25.9997 27.0012 26C 27.2582 26.0003 27.318 25.9821 27.445 26.0529C 27.5821 26.1081 27.8427 26.2569 28.2929 26.7071L 30.2921 28.7063L 30.2929 28.7071L 32.2929 30.7071ZM 24.2942 25.7084C 24.0972 26.1229 24 26.5702 24 27.003C 24 27.2515 24.0181 27.69 24.1967 28.1846C 24.3906 28.669 24.7406 29.1548 25.2929 29.7071L 27.292 31.7062L 27.2929 31.7071L 29.2929 33.7071L 30.2929 34.7071C 30.8427 35.2569 31.3245 35.6078 31.8081 35.8024C 32.3016 35.9814 32.7406 35.9997 32.9963 36C 33.7638 36.0009 34.5348 35.7079 35.1213 35.1213C 35.7116 34.5311 36 33.7426 36 32.997C 36 32.7485 35.9819 32.31 35.8033 31.8154C 35.6094 31.331 35.2594 30.8452 34.7071 30.2929L 33.7083 29.2941L 33.7071 29.2929L 31.7071 27.2929L 29.7071 25.2929C 29.1573 24.7431 28.6755 24.3923 28.1919 24.1976C 27.6984 24.0186 27.2594 24.0003 27.0037 24C 26.5605 23.9995 26.116 24.097 25.7067 24.2925L 24.5815 23.1673C 26.7112 20.7111 28 17.5061 28 14C 28 6.26801 21.732 0 14 0C 6.26801 0 0 6.26801 0 14C 0 21.732 6.26801 28 14 28C 17.5061 28 20.7111 26.7112 23.1673 24.5815L 24.2942 25.7084Z"/>
</defs>
</svg>
