<svg width="72" height="72" viewBox="0 0 72 72" version="2.0" xmlns="http://www.w3.org/2000/svg" xmlns:xlink="http://www.w3.org/1999/xlink" xmlns:figma="http://www.figma.com/figma/ns">
<title>Frame-7.svg</title>
<desc>Created using Figma 0.90</desc>
<g id="Canvas" transform="translate(406 144)" figma:type="canvas">
<mask id="mask0_outline" mask-type="alpha">
<path d="M -406 -144L -334 -144L -334 -72L -406 -72L -406 -144Z" fill="#FFFFFF"/>
</mask>
<g id="Frame" style="mix-blend-mode:normal;" mask="url(#mask0_outline)" figma:type="frame">
<g id="Vector" style="mix-blend-mode:normal;" figma:type="vector">
<use xlink:href="#path0_stroke" transform="translate(-390.929 -129)" fill="#FFFFFF" style="mix-blend-mode:normal;"/>
</g>
</g>
</g>
<defs>
<path id="path0_stroke" d="M 42.9289 6L 42.9289 5L 40.9289 5L 40.9289 6L 42.9289 6ZM 36.0027 1L 37.0027 1L 37.0027 -1L 36.0027 -1L 36.0027 1ZM 36.9289 -1L 35.9289 -1L 35.9289 1L 36.9289 1L 36.9289 -1ZM 40.9289 5L 40.9289 6L 42.9289 6L 42.9289 5L 40.9289 5ZM 13.1005 39.7574L 2.17157 28.8284L 0.757359 30.2426L 11.6863 41.1716L 13.1005 39.7574ZM 42.9289 15.9289L 42.9289 6L 40.9289 6L 40.9289 15.9289L 42.9289 15.9289ZM 26 1L 36.0027 1L 36.0027 -1L 26 -1L 26 1ZM 39.7574 18.7574L 21.2218 37.2929L 22.636 38.7071L 41.1716 20.1716L 39.7574 18.7574ZM 21.2218 37.2929L 18.7574 39.7574L 20.1716 41.1716L 22.636 38.7071L 21.2218 37.2929ZM 2.17157 23.1716L 4.63604 20.7071L 3.22183 19.2929L 0.757359 21.7574L 2.17157 23.1716ZM 4.63604 20.7071L 23.1716 2.17157L 21.7574 0.757359L 3.22183 19.2929L 4.63604 20.7071ZM 22.636 37.2929L 4.63604 19.2929L 3.22183 20.7071L 21.2218 38.7071L 22.636 37.2929ZM 40.9289 15.9289C 40.9289 16.9898 40.5075 18.0072 39.7574 18.7574L 41.1716 20.1716C 42.2968 19.0464 42.9289 17.5202 42.9289 15.9289L 40.9289 15.9289ZM 11.6863 41.1716C 14.0294 43.5147 17.8284 43.5147 20.1716 41.1716L 18.7574 39.7574C 17.1953 41.3195 14.6626 41.3195 13.1005 39.7574L 11.6863 41.1716ZM 2.17157 28.8284C 0.609476 27.2663 0.609476 24.7337 2.17157 23.1716L 0.757359 21.7574C -1.58579 24.1005 -1.58579 27.8995 0.757359 30.2426L 2.17157 28.8284ZM 26 -1C 24.4087 -1 22.8826 -0.367859 21.7574 0.757359L 23.1716 2.17157C 23.9217 1.42143 24.9391 1 26 1L 26 -1ZM 36.9289 1C 39.1381 1 40.9289 2.79086 40.9289 5L 42.9289 5C 42.9289 1.68629 40.2426 -1 36.9289 -1L 36.9289 1ZM 32.9289 11C 31.8244 11 30.9289 10.1046 30.9289 9L 28.9289 9C 28.9289 11.2091 30.7198 13 32.9289 13L 32.9289 11ZM 30.9289 9C 30.9289 7.89543 31.8244 7 32.9289 7L 32.9289 5C 30.7198 5 28.9289 6.79086 28.9289 9L 30.9289 9ZM 32.9289 7C 34.0335 7 34.9289 7.89543 34.9289 9L 36.9289 9C 36.9289 6.79086 35.1381 5 32.9289 5L 32.9289 7ZM 34.9289 9C 34.9289 10.1046 34.0335 11 32.9289 11L 32.9289 13C 35.1381 13 36.9289 11.2091 36.9289 9L 34.9289 9Z"/>
</defs>
</svg>
