<svg width="72" height="72" viewBox="0 0 72 72" version="2.0" xmlns="http://www.w3.org/2000/svg" xmlns:xlink="http://www.w3.org/1999/xlink" xmlns:figma="http://www.figma.com/figma/ns">
<title>Frame-2.svg</title>
<desc>Created using Figma 0.90</desc>
<g id="Canvas" transform="translate(314 -40)" figma:type="canvas">
<mask id="mask0_outline" mask-type="alpha">
<path d="M -314 40L -242 40L -242 112L -314 112L -314 40Z" fill="#FFFFFF"/>
</mask>
<g id="Frame" style="mix-blend-mode:normal;" mask="url(#mask0_outline)" figma:type="frame">
<g id="Vector" style="mix-blend-mode:normal;" figma:type="vector">
<use xlink:href="#path0_stroke" transform="translate(-301 53)" fill="#FFFFFF" style="mix-blend-mode:normal;"/>
</g>
</g>
</g>
<defs>
<path id="path0_stroke" d="M 26 21C 25.4477 21 25 21.4477 25 22C 25 22.5523 25.4477 23 26 23L 26 21ZM 29 22L 30 22C 30 21.4477 29.5523 21 29 21L 29 22ZM 29 27L 28 27C 28 27.3635 28.1973 27.6984 28.5152 27.8746C 28.8332 28.0509 29.2217 28.0407 29.53 27.848L 29 27ZM 37 22L 37 21C 36.8126 21 36.6289 21.0527 36.47 21.152L 37 22ZM 19 11C 19 11.5523 19.4477 12 20 12C 20.5523 12 21 11.5523 21 11L 19 11ZM 39 9C 39.5523 9 40 8.55228 40 8C 40 7.44772 39.5523 7 39 7L 39 9ZM 27 7C 26.4477 7 26 7.44772 26 8C 26 8.55228 26.4477 9 27 9L 27 7ZM 39 14C 39.5523 14 40 13.5523 40 13C 40 12.4477 39.5523 12 39 12L 39 14ZM 27 12C 26.4477 12 26 12.4477 26 13C 26 13.5523 26.4477 14 27 14L 27 12ZM 30 46L 30 47C 30.5523 47 31 46.5523 31 46L 30 46ZM 0 46L -1 46C -1 46.2652 -0.894644 46.5196 -0.707107 46.7071C -0.519571 46.8946 -0.265217 47 0 47L 0 46ZM 8 34L 8.70711 33.2929C 8.37784 32.9636 7.86488 32.9052 7.47 33.152L 8 34ZM 15 41L 14.2929 41.7071C 14.6834 42.0976 15.3166 42.0976 15.7071 41.7071L 15 41ZM 22 34L 22.53 33.152C 22.1351 32.9052 21.6222 32.9636 21.2929 33.2929L 22 34ZM 23 22C 23 21.4477 22.5523 21 22 21C 21.4477 21 21 21.4477 21 22L 23 22ZM 22 15L 22.9965 15.083C 23.0198 14.8044 22.9252 14.5287 22.7359 14.3229C 22.5465 14.1171 22.2797 14 22 14L 22 15ZM 22 1L 44 1L 44 -1L 22 -1L 22 1ZM 45 2L 45 20L 47 20L 47 2L 45 2ZM 29 21L 26 21L 26 23L 29 23L 29 21ZM 28 22L 28 27L 30 27L 30 22L 28 22ZM 44 21L 37 21L 37 23L 44 23L 44 21ZM 29.53 27.848L 37.53 22.848L 36.47 21.152L 28.47 26.152L 29.53 27.848ZM 21 11L 21 2L 19 2L 19 11L 21 11ZM 39 7L 27 7L 27 9L 39 9L 39 7ZM 39 12L 27 12L 27 14L 39 14L 39 12ZM 30 45L 0 45L 0 47L 30 47L 30 45ZM 1 46C 1.00001 42.8787 2.79359 40.1159 4.72821 38.0604C 5.68767 37.0385 6.62785 36.2471 7.36051 35.6826C 7.7205 35.4049 8.01092 35.1982 8.22278 35.0526C 8.32571 34.9818 8.40209 34.931 8.45759 34.8947C 8.4839 34.8775 8.5019 34.8659 8.51557 34.8572C 8.5217 34.8532 8.52528 34.851 8.52842 34.849C 8.52963 34.8482 8.53002 34.848 8.53064 34.8476C 8.53077 34.8475 8.53075 34.8475 8.53068 34.8476C 8.53063 34.8476 8.53046 34.8477 8.53043 34.8477C 8.53023 34.8479 8.53 34.848 8 34C 7.47 33.152 7.46971 33.1522 7.46939 33.1524C 7.46924 33.1525 7.46889 33.1527 7.46859 33.1529C 7.46817 33.1531 7.46728 33.1537 7.46645 33.1542C 7.46513 33.1551 7.46262 33.1566 7.45999 33.1583C 7.45543 33.1612 7.44754 33.1662 7.43853 33.1719C 7.42193 33.1826 7.39501 33.1999 7.36272 33.221C 7.30104 33.2614 7.20554 33.3249 7.08972 33.4045C 6.86408 33.5596 6.5295 33.7982 6.13949 34.0986C 5.37216 34.6904 4.31233 35.5865 3.2718 36.6896C 1.20642 38.8841 -0.999993 42.1213 -1 46L 1 46ZM 7.29289 34.7071L 14.2929 41.7071L 15.7071 40.2929L 8.70711 33.2929L 7.29289 34.7071ZM 15.7071 41.7071L 22.7071 34.7071L 21.2929 33.2929L 14.2929 40.2929L 15.7071 41.7071ZM 22 34C 21.47 34.848 21.4698 34.8479 21.4696 34.8477C 21.4695 34.8477 21.4694 34.8476 21.4693 34.8476C 21.4693 34.8475 21.4692 34.8475 21.4694 34.8476C 21.47 34.848 21.4704 34.8482 21.4716 34.849C 21.4747 34.851 21.4783 34.8532 21.4844 34.8572C 21.4981 34.8659 21.5161 34.8775 21.5424 34.8947C 21.5979 34.931 21.6743 34.9818 21.7772 35.0526C 21.9891 35.1982 22.2795 35.4049 22.6395 35.6826C 23.3722 36.2471 24.3123 37.0385 25.2718 38.0604C 27.2064 40.1159 29 42.8787 29 46L 31 46C 31 42.1213 28.7936 38.8841 26.7282 36.6896C 25.6877 35.5865 24.6278 34.6904 23.8605 34.0986C 23.4705 33.7982 23.1359 33.5596 22.9103 33.4045C 22.7945 33.3249 22.699 33.2614 22.6373 33.221C 22.605 33.1999 22.5781 33.1826 22.5615 33.1719C 22.5525 33.1662 22.5446 33.1612 22.54 33.1583C 22.5374 33.1566 22.5349 33.1551 22.5336 33.1542C 22.5327 33.1537 22.5318 33.1531 22.5314 33.1529C 22.5311 33.1527 22.5308 33.1525 22.5306 33.1524C 22.5303 33.1522 22.53 33.152 22 34ZM 22 -1C 20.3431 -1 19 0.343146 19 2L 21 2C 21 1.44772 21.4477 1 22 1L 22 -1ZM 44 1C 44.5523 1 45 1.44772 45 2L 47 2C 47 0.343146 45.6569 -1 44 -1L 44 1ZM 45 20C 45 20.5523 44.5523 21 44 21L 44 23C 45.6569 23 47 21.6569 47 20L 45 20ZM 21 25C 21 28.3137 18.3137 31 15 31L 15 33C 19.4183 33 23 29.4183 23 25L 21 25ZM 15 31C 11.6863 31 9 28.3137 9 25L 7 25C 7 29.4183 10.5817 33 15 33L 15 31ZM 23 25L 23 22L 21 22L 21 25L 23 25ZM 12 16L 22 16L 22 14L 12 14L 12 16ZM 9 25L 9 21L 7 21L 7 25L 9 25ZM 9 21L 9 19L 7 19L 7 21L 9 21ZM 22 15C 21.0035 14.917 21.0035 14.9159 21.0036 14.9148C 21.0037 14.9145 21.0037 14.9135 21.0038 14.9129C 21.0038 14.9134 21.0042 14.9082 21.0041 14.9093C 21.0041 14.91 21.0048 14.9022 21.0047 14.9037C 21.0047 14.9038 21.0053 14.8981 21.0052 14.8984C 21.0058 14.8932 21.005 14.9017 21.0034 14.911C 20.9986 14.9419 20.9944 14.9659 20.9807 15.0207C 20.9481 15.1559 20.9055 15.2998 20.8019 15.5208C 20.5763 16.0192 20.2212 16.5858 19.4249 17.2296C 17.8555 18.5284 14.6162 20 8 20L 8 22C 14.8838 22 18.6445 20.4716 20.7001 18.7704C 21.7163 17.9142 22.3299 16.9808 22.62 16.3542C 22.7742 16.0127 22.8761 15.6879 22.9236 15.4949C 22.9499 15.3857 22.9697 15.2808 22.9788 15.2238C 22.9842 15.1892 22.989 15.1535 22.9911 15.136C 22.9925 15.1243 22.9939 15.1109 22.9945 15.105C 22.9949 15.1006 22.9955 15.0951 22.9957 15.0929C 22.9958 15.0911 22.9961 15.0886 22.9961 15.0877C 22.9962 15.0869 22.9963 15.0857 22.9964 15.0853C 22.9965 15.0842 22.9965 15.083 22 15ZM 12 14C 9.23858 14 7 16.2386 7 19L 9 19C 9 17.3431 10.3431 16 12 16L 12 14Z"/>
</defs>
</svg>
