<svg width="72" height="72" viewBox="0 0 72 72" version="2.0" xmlns="http://www.w3.org/2000/svg" xmlns:xlink="http://www.w3.org/1999/xlink" xmlns:figma="http://www.figma.com/figma/ns">
<title>Frame-10.svg</title>
<desc>Created using Figma 0.90</desc>
<g id="Canvas" transform="translate(498 52)" figma:type="canvas">
<mask id="mask0_outline" mask-type="alpha">
<path d="M -498 -52L -426 -52L -426 20L -498 20L -498 -52Z" fill="#FFFFFF"/>
</mask>
<g id="Frame" style="mix-blend-mode:normal;" mask="url(#mask0_outline)" figma:type="frame">
<g id="Vector" style="mix-blend-mode:normal;" figma:type="vector">
<use xlink:href="#path0_stroke" transform="translate(-488 -35)" fill="#FFFFFF" style="mix-blend-mode:normal;"/>
</g>
</g>
</g>
<defs>
<path id="path0_stroke" d="M 31 31C 31 31.5523 31.4477 32 32 32C 32.5523 32 33 31.5523 33 31L 31 31ZM 7 33C 7.55228 33 8 32.5523 8 32C 8 31.4477 7.55228 31 7 31L 7 33ZM 32 5C 31.4477 5 31 5.44772 31 6C 31 6.55228 31.4477 7 32 7L 32 5ZM 51.473 15.5777L 50.6047 16.0738L 50.6047 16.0738L 51.473 15.5777ZM 47 31C 46.4477 31 46 31.4477 46 32C 46 32.5523 46.4477 33 47 33L 47 31ZM 47.1517 8.01544L 48.0199 7.5193L 48.0199 7.5193L 47.1517 8.01544ZM 18 31C 17.4477 31 17 31.4477 17 32C 17 32.5523 17.4477 33 18 33L 18 31ZM 36 33C 36.5523 33 37 32.5523 37 32C 37 31.4477 36.5523 31 36 31L 36 33ZM 38 12L 38 11C 37.4477 11 37 11.4477 37 12L 38 12ZM 49 13C 49.5523 13 50 12.5523 50 12C 50 11.4477 49.5523 11 49 11L 49 13ZM 52 21C 52.5523 21 53 20.5523 53 20C 53 19.4477 52.5523 19 52 19L 52 21ZM 38 20L 37 20C 37 20.5523 37.4477 21 38 21L 38 20ZM 32 21C 32.5523 21 33 20.5523 33 20C 33 19.4477 32.5523 19 32 19L 32 21ZM 0 19C -0.552285 19 -1 19.4477 -1 20C -1 20.5523 -0.552285 21 0 21L 0 19ZM 16 33C 16 35.2091 14.2091 37 12 37L 12 39C 15.3137 39 18 36.3137 18 33L 16 33ZM 12 37C 9.79086 37 8 35.2091 8 33L 6 33C 6 36.3137 8.68629 39 12 39L 12 37ZM 8 33C 8 30.7909 9.79086 29 12 29L 12 27C 8.68629 27 6 29.6863 6 33L 8 33ZM 12 29C 14.2091 29 16 30.7909 16 33L 18 33C 18 29.6863 15.3137 27 12 27L 12 29ZM 2 1L 30 1L 30 -1L 2 -1L 2 1ZM 31 2L 31 31L 33 31L 33 2L 31 2ZM 1 30L 1 2L -1 2L -1 30L 1 30ZM 2 33L 7 33L 7 31L 2 31L 2 33ZM 2 -1C 0.343146 -1 -1 0.343146 -1 2L 1 2C 1 1.44772 1.44772 1 2 1L 2 -1ZM 30 1C 30.5523 1 31 1.44772 31 2L 33 2C 33 0.343146 31.6569 -1 30 -1L 30 1ZM -1 30C -1 31.6569 0.343146 33 2 33L 2 31C 1.44772 31 1 30.5523 1 30L -1 30ZM 32 7L 43.6787 7L 43.6787 5L 32 5L 32 7ZM 46.2834 8.51158L 50.6047 16.0738L 52.3412 15.0816L 48.0199 7.5193L 46.2834 8.51158ZM 51 17.5623L 51 30L 53 30L 53 17.5623L 51 17.5623ZM 50 31L 47 31L 47 33L 50 33L 50 31ZM 43.6787 7C 44.7553 7 45.7493 7.57686 46.2834 8.51158L 48.0199 7.5193C 47.1297 5.96143 45.473 5 43.6787 5L 43.6787 7ZM 51 30C 51 30.5523 50.5523 31 50 31L 50 33C 51.6569 33 53 31.6569 53 30L 51 30ZM 50.6047 16.0738C 50.8932 16.5617 51.0084 16.9956 51 17.5623L 53 17.5623C 52.9916 16.7367 52.7435 15.8025 52.3412 15.0816L 50.6047 16.0738ZM 18 33L 36 33L 36 31L 18 31L 18 33ZM 46 33C 46 35.2091 44.2091 37 42 37L 42 39C 45.3137 39 48 36.3137 48 33L 46 33ZM 42 37C 39.7909 37 38 35.2091 38 33L 36 33C 36 36.3137 38.6863 39 42 39L 42 37ZM 38 33C 38 30.7909 39.7909 29 42 29L 42 27C 38.6863 27 36 29.6863 36 33L 38 33ZM 42 29C 44.2091 29 46 30.7909 46 33L 48 33C 48 29.6863 45.3137 27 42 27L 42 29ZM 38 13L 49 13L 49 11L 38 11L 38 13ZM 52 19L 38 19L 38 21L 52 21L 52 19ZM 39 20L 39 12L 37 12L 37 20L 39 20ZM 32 19L 0 19L 0 21L 32 21L 32 19Z"/>
</defs>
</svg>
