<svg width="72" height="72" viewBox="0 0 72 72" version="2.0" xmlns="http://www.w3.org/2000/svg" xmlns:xlink="http://www.w3.org/1999/xlink" xmlns:figma="http://www.figma.com/figma/ns">
<title>7.svg</title>
<desc>Created using Figma 0.90</desc>
<g id="Canvas" transform="translate(950 -438)" figma:type="canvas">
<mask id="mask0_alpha" mask-type="alpha">
<path d="M -950 438L -878 438L -878 510L -950 510L -950 438Z" fill="#FFFFFF"/>
</mask>
<g id="7" style="mix-blend-mode:normal;" mask="url(#mask0_alpha)" figma:type="frame">
<g id="Union" style="mix-blend-mode:normal;" figma:type="vector">
<use xlink:href="#path0_fill" transform="translate(-929 450)" fill="#FDAD00" style="mix-blend-mode:normal;"/>
<use xlink:href="#path1_fill" transform="translate(-929 450)" fill="#FDAD00" style="mix-blend-mode:normal;"/>
</g>
</g>
</g>
<defs>
<path id="path0_fill" fill-rule="evenodd" d="M 14.0001 0L 14.0005 0L 14.0022 0L 14.0088 0L 14.0346 0L 14.1333 0L 14.4929 0L 15.6476 0L 18 0C 21.3436 0 24.3499 1.66965 26.4974 4.08563C 28.6435 6.49994 30 9.73114 30 13C 30 16.2666 28.6451 19.5303 26.4998 21.9616C 24.3553 24.3921 21.3448 26.0706 17.9893 26L 14 26C 13.7632 26 13.2278 26.1483 12.7497 26.5309C 12.3032 26.8881 12 27.3717 12 28C 12 28.6282 12.3032 29.1119 12.7497 29.4691C 13.2278 29.8517 13.7632 30 14 30L 14.0731 30C 15.748 30.0001 16.8199 30.0002 18.7351 29.5353C 19.7529 29.2253 20.7343 29.0965 21.6118 29.3178C 22.5569 29.5562 23.2515 30.167 23.6944 31.0528C 24.7587 33.1813 23.0691 35.6791 20.2697 36.463L 20.253 36.4675C 18.358 36.9776 16.4739 36.9868 14.6979 36.9955C 14.4666 36.9966 14.2371 36.9977 14.0096 36.9999C 8.90179 37.0492 5 32.5025 5 28C 5 23.5314 8.36761 19 14 19L 14.0015 19L 14.0057 19L 14.0227 19L 14.0879 19L 14.3281 19L 15.125 19L 17 19C 19.9943 19 23 16.4023 23 13C 23 9.59769 19.9943 7 17 7L 16 7L 14 7C 9.35529 7 7 9.73056 7 12C 7 12.7902 6.62732 13.6409 6.06506 14.2835C 5.48627 14.945 4.60474 15.5 3.5 15.5C 2.39526 15.5 1.51373 14.945 0.934937 14.2835C 0.372681 13.6409 0 12.7902 0 12C 0 6.44772 4.44769 0 14.0001 0ZM 2 12C 2 12.2098 2.12732 12.6091 2.44006 12.9665C 2.73627 13.305 3.10474 13.5 3.5 13.5C 3.89526 13.5 4.26373 13.305 4.55994 12.9665C 4.87268 12.6091 5 12.2098 5 12C 5 8.26944 8.64471 5 14 5L 16 5L 17 5C 21.0057 5 25 8.40231 25 13C 25 17.5977 21.0057 21 17 21L 15.125 21L 14.3281 21L 14.0879 21L 14.0227 21L 14.0057 21L 14.0015 21L 14 21C 9.63239 21 7 24.4686 7 28C 7 31.4975 10.0988 35.0375 13.9904 35.0001C 14.2651 34.9974 14.5369 34.9966 14.8063 34.9958L 14.8096 34.9958L 14.8129 34.9958L 14.8162 34.9958L 14.8195 34.9958L 14.8211 34.9958C 16.5262 34.9907 18.1335 34.9859 19.722 34.5394L 19.7303 34.537C 21.9309 33.9209 22.1559 32.4478 21.9056 31.9472C 21.6912 31.5185 21.4374 31.3365 21.1227 31.2571C 20.7498 31.1631 20.1728 31.1864 19.3027 31.4531C 19.2897 31.4572 19.2766 31.4611 19.2634 31.4647C 19.2491 31.4686 19.235 31.4721 19.2208 31.4754C 17.0339 31.9931 15.7228 32 14 32C 13.2368 32 12.2722 31.6483 11.5003 31.0309C 10.6968 30.3881 10 29.3717 10 28C 10 26.6283 10.6968 25.6119 11.5003 24.9691C 12.2722 24.3517 13.2368 24 14 24L 18 24L 18.0222 24.0002C 20.662 24.0589 23.1471 22.7386 25.0002 20.6384C 26.8549 18.5364 28 15.7334 28 13C 28 10.2689 26.8565 7.50006 25.0026 5.41437C 23.1501 3.33035 20.6564 2 18 2L 15.6476 2L 14.4929 2L 14.1333 2L 14.0346 2L 14.0088 2L 14.0022 2L 14.0005 2L 14.0001 2C 5.55231 2 2 7.55228 2 12Z"/>
<path id="path1_fill" fill-rule="evenodd" d="M 11 44C 11 41.7909 12.7908 40 15 40C 17.2092 40 19 41.7909 19 44C 19 46.2091 17.2092 48 15 48C 12.7908 48 11 46.2091 11 44ZM 15 42C 13.8954 42 13 42.8954 13 44C 13 45.1046 13.8954 46 15 46C 16.1046 46 17 45.1046 17 44C 17 42.8954 16.1046 42 15 42Z"/>
</defs>
</svg>
