<svg width="72" height="72" viewBox="0 0 72 72" version="2.0" xmlns="http://www.w3.org/2000/svg" xmlns:xlink="http://www.w3.org/1999/xlink" xmlns:figma="http://www.figma.com/figma/ns">
<title>Frame-6.svg</title>
<desc>Created using Figma 0.90</desc>
<g id="Canvas" transform="translate(406 52)" figma:type="canvas">
<mask id="mask0_outline" mask-type="alpha">
<path d="M -406 -52L -334 -52L -334 20L -406 20L -406 -52Z" fill="#FFFFFF"/>
</mask>
<g id="Frame" style="mix-blend-mode:normal;" mask="url(#mask0_outline)" figma:type="frame">
<g id="Ellipse 10" style="mix-blend-mode:normal;" figma:type="ellipse">
<use xlink:href="#path0_fill" transform="translate(-372 -18)" fill="#FFFFFF" style="mix-blend-mode:normal;"/>
</g>
<g id="Vector" style="mix-blend-mode:normal;" figma:type="vector">
<use xlink:href="#path1_stroke" transform="translate(-398 -44)" fill="#FFFFFF" style="mix-blend-mode:normal;"/>
</g>
</g>
</g>
<defs>
<path id="path0_fill" d="M 4 2C 4 3.10457 3.10457 4 2 4C 0.895431 4 0 3.10457 0 2C 0 0.895431 0.895431 0 2 0C 3.10457 0 4 0.895431 4 2Z"/>
<path id="path1_stroke" d="M 16.5 35.3791L 16.2149 34.4206L 15.7303 34.5647L 15.5591 35.0405L 16.5 35.3791ZM 14.5 26.4792L 13.7941 27.1875L 14.1964 27.5884L 14.7467 27.4483L 14.5 26.4792ZM 25 0L 25.9643 -0.264856L 25.633 -1.47094L 24.5294 -0.882353L 25 0ZM 19 13L 18.0136 13.1644L 18.0221 13.2157L 18.036 13.2659L 19 13ZM 22.179 24.524L 22.4258 25.4931L 23.4143 25.2414L 23.143 24.2581L 22.179 24.524ZM 24.5 33L 25.464 32.7341L 25.1928 31.7507L 24.2149 32.0415L 24.5 33ZM 26.8573 41.143L 27.5214 41.8906L 27.9859 41.478L 27.8218 40.8788L 26.8573 41.143ZM 35.907 39.7104L 34.9427 39.9752L 35.069 40.435L 35.5058 40.6263L 35.907 39.7104ZM 53.8992 16.6934L 54.899 16.6724L 54.8727 15.4223L 53.659 15.7227L 53.8992 16.6934ZM 45.4941 28.2845L 45.7336 29.2554L 45.7841 29.243L 45.8331 29.2253L 45.4941 28.2845ZM 38.5391 30L 37.5706 30.2491L 37.8173 31.208L 38.7786 30.9709L 38.5391 30ZM 36.2406 21.064L 36.0004 20.0932L 35.0207 20.3357L 35.2721 21.3131L 36.2406 21.064ZM 8.5 40C 4.35786 40 1 36.6421 1 32.5L -1 32.5C -1 37.7467 3.25329 42 8.5 42L 8.5 40ZM 1 32.5C 1 28.3579 4.35786 25 8.5 25L 8.5 23C 3.25329 23 -1 27.2533 -1 32.5L 1 32.5ZM 15.5591 35.0405C 14.5177 37.9337 11.7489 40 8.5 40L 8.5 42C 12.6188 42 16.1229 39.3794 17.4409 35.7178L 15.5591 35.0405ZM 8.5 25C 10.5667 25 12.4365 25.8346 13.7941 27.1875L 15.2059 25.7709C 13.4887 24.0596 11.1172 23 8.5 23L 8.5 25ZM 19.9864 12.8356C 19.2917 8.66759 20.6726 5.69618 22.2206 3.74688C 23.0054 2.7521 23.8042 2.05596 24.4559 1.56232C 24.7712 1.32256 25.0218 1.15593 25.2125 1.0363C 25.3028 0.979486 25.3666 0.94169 25.416 0.913208C 25.4383 0.900337 25.4518 0.892781 25.4634 0.886306C 25.4681 0.883723 25.4698 0.882772 25.4722 0.881469C 25.4728 0.881136 25.473 0.881027 25.4727 0.881196C 25.4729 0.881123 25.4719 0.881632 25.472 0.881596C 25.4718 0.881692 25.4715 0.881882 25.4714 0.88193C 25.471 0.882134 25.4706 0.882353 25 0C 24.5294 -0.882353 24.5289 -0.882103 24.5284 -0.881838C 24.5282 -0.881729 24.5277 -0.881448 24.5273 -0.88123C 24.5268 -0.88095 24.5255 -0.880292 24.5245 -0.879731C 24.523 -0.878923 24.5199 -0.877226 24.5169 -0.875602C 24.5121 -0.872992 24.5031 -0.868068 24.4936 -0.862808C 24.477 -0.853596 24.4485 -0.837593 24.4162 -0.818969C 24.3565 -0.784464 24.2606 -0.727533 24.1488 -0.657394C 23.9352 -0.52312 23.6116 -0.306937 23.2472 -0.031066C 22.5395 0.506536 21.557 1.3729 20.6544 2.50312C 18.8273 4.80382 17.2083 8.33241 18.0136 13.1644L 19.9864 12.8356ZM 23.143 24.2581L 19.964 12.7341L 18.036 13.2659L 21.215 24.7899L 23.143 24.2581ZM 27.8218 40.8788C 27.0044 37.8948 26.1225 35.1224 25.464 32.7341L 23.536 33.2659C 24.2052 35.6915 25.0865 38.4621 25.8928 41.4071L 27.8218 40.8788ZM 24.0357 0.264856L 34.9427 39.9752L 36.8713 39.4455L 25.9643 -0.264856L 24.0357 0.264856ZM 45.8331 29.2253C 50.4417 27.5647 52.7277 24.4268 53.841 21.7081C 54.3854 20.368 54.6606 19.0873 54.7835 18.2072C 54.8459 17.7544 54.8763 17.3664 54.8889 17.1144C 54.8954 16.9825 54.8982 16.8711 54.8991 16.8021C 54.8995 16.7648 54.8995 16.7322 54.8995 16.7132C 54.8994 16.7023 54.8993 16.6921 54.8992 16.6866C 54.8992 16.6832 54.8991 16.6796 54.8991 16.6779C 54.8991 16.6768 54.8991 16.6754 54.899 16.6748C 54.899 16.6743 54.899 16.6737 54.899 16.6735C 54.899 16.6729 54.899 16.6724 53.8992 16.6934C 52.8994 16.7145 52.8994 16.714 52.8994 16.7136C 52.8994 16.7135 52.8994 16.7131 52.8994 16.7129C 52.8994 16.7129 52.8994 16.7119 52.8994 16.712C 52.8994 16.7117 52.8994 16.7119 52.8994 16.7126C 52.8994 16.7153 52.8995 16.7173 52.8995 16.7226C 52.8996 16.736 52.8996 16.7514 52.8992 16.7771C 52.8985 16.8341 52.8968 16.9083 52.8914 17.0149C 52.8803 17.2397 52.8575 17.5398 52.8025 17.932C 52.6907 18.7419 52.4741 19.7791 51.9902 20.9502C 51.0469 23.2537 49.1304 25.9113 45.1551 27.3438L 45.8331 29.2253ZM 38.7786 30.9709L 45.7336 29.2554L 45.2546 27.3136L 38.2996 29.0291L 38.7786 30.9709ZM 53.659 15.7227L 36.0004 20.0932L 36.4809 22.0347L 54.1395 17.6641L 53.659 15.7227ZM 39.5076 29.7509L 37.2091 20.8148L 35.2721 21.3131L 37.5706 30.2491L 39.5076 29.7509ZM 21.9323 23.5549L 14.2533 25.5101L 14.7467 27.4483L 22.4258 25.4931L 21.9323 23.5549ZM 16.7851 36.3376L 24.7851 33.9585L 24.2149 32.0415L 16.2149 34.4206L 16.7851 36.3376ZM 40 47.5C 40 51.6421 36.6421 55 32.5 55L 32.5 57C 37.7467 57 42 52.7467 42 47.5L 40 47.5ZM 32.5 55C 28.3579 55 25 51.6421 25 47.5L 23 47.5C 23 52.7467 27.2533 57 32.5 57L 32.5 55ZM 25 47.5C 25 45.2687 25.9731 43.2659 27.5214 41.8906L 26.1932 40.3953C 24.2357 42.1341 23 44.6734 23 47.5L 25 47.5ZM 35.5058 40.6263C 38.1535 41.786 40 44.4285 40 47.5L 42 47.5C 42 43.6059 39.6572 40.2612 36.3082 38.7944L 35.5058 40.6263ZM 35 47.5C 35 48.8807 33.8807 50 32.5 50L 32.5 52C 34.9853 52 37 49.9853 37 47.5L 35 47.5ZM 32.5 50C 31.1193 50 30 48.8807 30 47.5L 28 47.5C 28 49.9853 30.0147 52 32.5 52L 32.5 50ZM 30 47.5C 30 46.1193 31.1193 45 32.5 45L 32.5 43C 30.0147 43 28 45.0147 28 47.5L 30 47.5ZM 32.5 45C 33.8807 45 35 46.1193 35 47.5L 37 47.5C 37 45.0147 34.9853 43 32.5 43L 32.5 45ZM 11 32.5C 11 33.8807 9.88071 35 8.5 35L 8.5 37C 10.9853 37 13 34.9853 13 32.5L 11 32.5ZM 8.5 35C 7.11929 35 6 33.8807 6 32.5L 4 32.5C 4 34.9853 6.01472 37 8.5 37L 8.5 35ZM 6 32.5C 6 31.1193 7.11929 30 8.5 30L 8.5 28C 6.01472 28 4 30.0147 4 32.5L 6 32.5ZM 8.5 30C 9.88071 30 11 31.1193 11 32.5L 13 32.5C 13 30.0147 10.9853 28 8.5 28L 8.5 30Z"/>
</defs>
</svg>
