<svg width="72" height="72" viewBox="0 0 72 72" version="2.0" xmlns="http://www.w3.org/2000/svg" xmlns:xlink="http://www.w3.org/1999/xlink" xmlns:figma="http://www.figma.com/figma/ns">
<title>3.svg</title>
<desc>Created using Figma 0.90</desc>
<g id="Canvas" transform="translate(646 -280)" figma:type="canvas">
<mask id="mask0_outline" mask-type="alpha">
<path d="M -646 280L -574 280L -574 352L -646 352L -646 280Z" fill="#FFFFFF"/>
</mask>
<g id="3" style="mix-blend-mode:normal;" mask="url(#mask0_outline)" figma:type="frame">
<g id="Group" style="mix-blend-mode:normal;" figma:type="frame">
<g id="Union" style="mix-blend-mode:normal;" figma:type="vector">
<use xlink:href="#path0_fill" transform="translate(-631 291)" fill="#FFFFFF" style="mix-blend-mode:normal;"/>
<use xlink:href="#path1_fill" transform="translate(-631 291)" fill="#FFFFFF" style="mix-blend-mode:normal;"/>
</g>
</g>
</g>
</g>
<defs>
<path id="path0_fill" fill-rule="evenodd" d="M 29.7059 25.5214L 38.7059 22.7521C 39.349 22.5543 40 23.0351 40 23.7079L 40 43.5229C 40 43.9619 39.7137 44.3495 39.2941 44.4786L 29 47.646L 29 26.4771C 29 26.0381 29.2863 25.6505 29.7059 25.5214ZM 21 32.9762C 20.8436 32.7931 20.677 32.5964 20.5011 32.3867C 19.2972 30.9514 17.7248 28.9873 16.1364 26.7251C 14.5412 24.4563 13.0046 22.0088 11.8394 19.5359C 10.6712 17.0648 10 14.8175 10 13C 10 7.42223 14.979 2 21 2C 27.021 2 32 7.42223 32 13C 32 14.8175 31.3288 17.0648 30.1606 19.5359C 28.9954 22.0088 27.4588 24.4563 25.8636 26.7251C 24.2752 28.9873 22.7028 30.9514 21.4989 32.3867C 21.323 32.5964 21.1564 32.7931 21 32.9762ZM 15 28.578C 16.7884 31.0626 18.5261 33.1676 19.6671 34.4942C 20.4879 35.4485 21 36 21 36C 21 36 21.5121 35.4485 22.3329 34.4942C 23.4739 33.1676 25.2116 31.0626 27 28.578L 27 47.6743L 15 44.2457L 15 28.578ZM 11.3187 22.8713C 11.8609 23.8358 12.4424 24.7889 13.0413 25.7147C 13.0144 25.8051 13 25.9009 13 26L 13 44.2614L 3.29409 47.2479C 2.65103 47.4457 2 46.9649 2 46.2921L 2 26.4771C 2 26.0381 2.28632 25.6505 2.70591 25.5214L 11.3187 22.8713ZM 27.7253 49.9615C 27.9114 50.0147 28.109 50.0127 28.2941 49.9558L 39.8823 46.3902C 41.141 46.0029 42 44.8399 42 43.5229L 42 23.7079C 42 21.6895 40.0469 20.247 38.1177 20.8406L 30.5044 23.1832C 32.4926 19.7091 34 16.0647 34 13C 34 6.37258 28.1797 0 21 0C 13.8203 0 8 6.37258 8 13C 8 15.4484 8.96212 18.2669 10.3629 21.0728L 2.11774 23.6098C 0.858968 23.9971 0 25.1601 0 26.4771L 0 46.2921C 0 48.3105 1.9531 49.753 3.88226 49.1594L 14.0105 46.043L 27.7253 49.9615Z"/>
<path id="path1_fill" d="M 21 18C 23.7614 18 26 15.7614 26 13C 26 10.2386 23.7614 8 21 8C 18.2386 8 16 10.2386 16 13C 16 15.7614 18.2386 18 21 18ZM 21 16C 19.3431 16 18 14.6569 18 13C 18 11.3431 19.3431 10 21 10C 22.6569 10 24 11.3431 24 13C 24 14.6569 22.6569 16 21 16Z"/>
</defs>
</svg>
