<svg width="72" height="72" viewBox="0 0 72 72" version="2.0" xmlns="http://www.w3.org/2000/svg" xmlns:xlink="http://www.w3.org/1999/xlink" xmlns:figma="http://www.figma.com/figma/ns">
<title>4.svg</title>
<desc>Created using Figma 0.90</desc>
<g id="Canvas" transform="translate(830 -372)" figma:type="canvas">
<mask id="mask0_outline" mask-type="alpha">
<path d="M -830 372L -758 372L -758 444L -830 444L -830 372Z" fill="#FFFFFF"/>
</mask>
<g id="4" style="mix-blend-mode:normal;" mask="url(#mask0_outline)" figma:type="frame">
<g id="Vector (Stroke)" style="mix-blend-mode:normal;" figma:type="vector">
<use xlink:href="#path0_fill" transform="translate(-816 386.009)" fill="#FFFFFF" style="mix-blend-mode:normal;"/>
</g>
</g>
</g>
<defs>
<path id="path0_fill" d="M 5.99979 19.9909C 5.99943 19.9911 5.99915 19.9911 5.99901 19.9911C 5.99875 19.9912 5.99896 19.9911 6 19.9911C 6 19.991 6 19.9909 6 19.9909C 6.00001 19.9901 6.00005 19.9899 6 19.9902C 5.99997 19.9903 5.99991 19.9906 5.99979 19.9909ZM 1.99979 17.9914C 1.99991 17.9917 1.99997 17.992 2 17.9921C 2.00006 17.9924 2 17.9922 2 17.9911C 1.9999 17.9911 1.9998 17.9911 1.99971 17.9911C 1.99892 17.9911 1.99877 17.9911 1.99901 17.9911C 1.99915 17.9912 1.99943 17.9912 1.99979 17.9914ZM 23.965 9.21678C 22.8251 8.05786 22.8886 5.56736 24.8048 3.61927C 26.7202 1.67192 29.1408 1.62328 30.2643 2.76551C 31.4042 3.92443 31.3407 6.41494 29.4245 8.36302C 27.509 10.3104 25.0885 10.359 23.965 9.21678ZM 22 9.95852C 22.0073 9.96942 22.0147 9.98029 22.0221 9.99115L 21.9779 9.99115C 21.9853 9.98029 21.9927 9.96942 22 9.95852ZM 13.381 9.99115L 2 9.99115C 0.89543 9.99115 0 10.8866 0 11.9911L 0 17.9911C 0 19.0957 0.89543 19.9911 2 19.9911L 4 19.9911L 4 41.9911C 4 43.0957 4.89543 43.9911 6 43.9911L 16 43.9911L 17 43.9911L 27 43.9911L 28 43.9911L 38 43.9911C 39.1046 43.9911 40 43.0957 40 41.9911L 40 19.9911L 42 19.9911C 43.1046 19.9911 44 19.0957 44 17.9911L 44 11.9911C 44 10.8866 43.1046 9.99115 42 9.99115L 30.619 9.99115C 30.6975 9.9177 30.7747 9.84247 30.8504 9.76551C 33.2007 7.37608 33.8891 3.59857 31.6901 1.36302C 29.4748 -0.88923 25.73 -0.173376 23.3789 2.21678C 22.8197 2.78534 22.3545 3.43248 22 4.11874C 21.6455 3.43248 21.1803 2.78534 20.6211 2.21678C 18.27 -0.173376 14.5252 -0.88923 12.3099 1.36302C 10.1109 3.59857 10.7993 7.37607 13.1496 9.76551C 13.2253 9.84247 13.3025 9.9177 13.381 9.99115ZM 20.035 9.21678C 18.9115 10.359 16.491 10.3104 14.5755 8.36302C 12.6593 6.41493 12.5958 3.92443 13.7357 2.76551C 14.8592 1.62328 17.2798 1.67192 19.1952 3.61927C 21.1114 5.56735 21.1749 8.05786 20.035 9.21678ZM 16 11.9911L 28 11.9911L 28 17.9911L 27 17.9911L 17 17.9911L 16 17.9911L 16 11.9911ZM 6 17.9911L 2 17.9911C 2 17.9922 2.00006 17.9924 2 17.9921C 1.99997 17.992 1.99991 17.9917 1.99979 17.9914C 1.99943 17.9912 1.99915 17.9912 1.99901 17.9911C 1.99877 17.9911 1.99892 17.9911 1.99971 17.9911C 1.9998 17.9911 1.9999 17.9911 2 17.9911L 2 11.9911L 14 11.9911L 14 17.9911L 6 17.9911ZM 16 19.9911L 16 41.9911L 6 41.9911L 6 19.9911C 5.99896 19.9911 5.99875 19.9912 5.99901 19.9911C 5.99915 19.9911 5.99943 19.9911 5.99979 19.9909C 5.99991 19.9906 5.99997 19.9903 6 19.9902C 6.00005 19.9899 6.00001 19.9901 6 19.9909C 6 19.9909 6 19.991 6 19.9911L 14 19.9911L 15 19.9911L 16 19.9911ZM 26 19.9911L 26 41.9911L 18 41.9911L 18 19.9911L 26 19.9911ZM 38.0002 19.9909C 38.0006 19.9911 38.0008 19.9911 38.001 19.9911C 38.0012 19.9912 38.0011 19.9912 38.0003 19.9911C 38.0002 19.9911 38.0001 19.9911 38 19.9911L 38 41.9911L 28 41.9911L 28 19.9911L 29 19.9911L 30 19.9911L 38 19.9911C 37.9993 19.9904 37.999 19.9904 37.9997 19.9907C 37.9998 19.9908 37.9999 19.9908 38 19.9909C 38.0001 19.9909 38.0001 19.9909 38.0002 19.9909ZM 38 19.9911C 38.0001 19.9911 38.0002 19.9911 38.0003 19.9911C 38.0011 19.9912 38.0012 19.9912 38.001 19.9911C 38.0008 19.9911 38.0006 19.9911 38.0002 19.9909C 38.0001 19.9909 38.0001 19.9909 38 19.9909C 37.9999 19.9908 37.9998 19.9908 37.9997 19.9907C 37.999 19.9904 37.9993 19.9904 38 19.9911ZM 42 11.9911L 42 17.9911L 38 17.9911L 30 17.9911L 30 11.9911L 42 11.9911Z"/>
</defs>
</svg>
