<svg width="72" height="72" viewBox="0 0 72 72" version="2.0" xmlns="http://www.w3.org/2000/svg" xmlns:xlink="http://www.w3.org/1999/xlink" xmlns:figma="http://www.figma.com/figma/ns">
<title>Frame-3.svg</title>
<desc>Created using Figma 0.90</desc>
<g id="Canvas" transform="translate(314 144)" figma:type="canvas">
<mask id="mask0_outline" mask-type="alpha">
<path d="M -314 -144L -242 -144L -242 -72L -314 -72L -314 -144Z" fill="#FFFFFF"/>
</mask>
<g id="Frame" style="mix-blend-mode:normal;" mask="url(#mask0_outline)" figma:type="frame">
<g id="Vector" style="mix-blend-mode:normal;" figma:type="vector">
<use xlink:href="#path0_stroke" transform="translate(-304 -131)" fill="#FFFFFF" style="mix-blend-mode:normal;"/>
</g>
</g>
</g>
<defs>
<path id="path0_stroke" d="M 26 0L 26.5584 -0.829588C 26.2248 -1.05409 25.7893 -1.057 25.4528 -0.83697L 26 0ZM -0.547249 16.163C -1.00949 16.4653 -1.13921 17.085 -0.83697 17.5472C -0.534732 18.0095 0.0850038 18.1392 0.547249 17.837L -0.547249 16.163ZM 51.4416 18.3296C 51.8998 18.638 52.5212 18.5165 52.8296 18.0584C 53.138 17.6002 53.0165 16.9788 52.5584 16.6704L 51.4416 18.3296ZM 0 45C -0.552285 45 -1 45.4477 -1 46C -1 46.5523 -0.552285 47 0 47L 0 45ZM 52 47C 52.5523 47 53 46.5523 53 46C 53 45.4477 52.5523 45 52 45L 52 47ZM 5 15C 5 14.4477 4.55228 14 4 14C 3.44772 14 3 14.4477 3 15L 5 15ZM 49 15C 49 14.4477 48.5523 14 48 14C 47.4477 14 47 14.4477 47 15L 49 15ZM 10 21L 10 20C 9.44772 20 9 20.4477 9 21L 10 21ZM 42 21L 43 21C 43 20.4477 42.5523 20 42 20L 42 21ZM 16 38L 16 37C 15.4477 37 15 37.4477 15 38L 16 38ZM 16 46L 15 46C 15 46.5523 15.4477 47 16 47L 16 46ZM 21 30L 21 29C 20.4477 29 20 29.4477 20 30L 21 30ZM 31 30L 32 30C 32 29.4477 31.5523 29 31 29L 31 30ZM 31 38L 31 39C 31.5523 39 32 38.5523 32 38L 31 38ZM 21 38L 20 38C 20 38.5523 20.4477 39 21 39L 21 38ZM 36 38L 37 38C 37 37.4477 36.5523 37 36 37L 36 38ZM 36 46L 36 47C 36.5523 47 37 46.5523 37 46L 36 46ZM 4 45L 0 45L 0 47L 4 47L 4 45ZM 48 47L 52 47L 52 45L 48 45L 48 47ZM 0.547249 17.837L 26.5472 0.83697L 25.4528 -0.83697L -0.547249 16.163L 0.547249 17.837ZM 25.4416 0.829588L 51.4416 18.3296L 52.5584 16.6704L 26.5584 -0.829588L 25.4416 0.829588ZM 4 47L 10 47L 10 45L 4 45L 4 47ZM 9 21L 9 46L 11 46L 11 21L 9 21ZM 42 20L 10 20L 10 22L 42 22L 42 20ZM 10 47L 42 47L 42 45L 10 45L 10 47ZM 42 47L 48 47L 48 45L 42 45L 42 47ZM 41 21L 41 46L 43 46L 43 21L 41 21ZM 3 15L 3 46L 5 46L 5 15L 3 15ZM 47 15L 47 46L 49 46L 49 15L 47 15ZM 16 39L 26 39L 26 37L 16 37L 16 39ZM 25 38L 25 46L 27 46L 27 38L 25 38ZM 26 45L 16 45L 16 47L 26 47L 26 45ZM 17 46L 17 38L 15 38L 15 46L 17 46ZM 21 31L 31 31L 31 29L 21 29L 21 31ZM 30 30L 30 38L 32 38L 32 30L 30 30ZM 31 37L 21 37L 21 39L 31 39L 31 37ZM 22 38L 22 30L 20 30L 20 38L 22 38ZM 26 39L 36 39L 36 37L 26 37L 26 39ZM 35 38L 35 46L 37 46L 37 38L 35 38ZM 36 45L 26 45L 26 47L 36 47L 36 45Z"/>
</defs>
</svg>
