<svg width="72" height="72" viewBox="0 0 72 72" version="2.0" xmlns="http://www.w3.org/2000/svg" xmlns:xlink="http://www.w3.org/1999/xlink" xmlns:figma="http://www.figma.com/figma/ns">
<title>Frame-8.svg</title>
<desc>Created using Figma 0.90</desc>
<g id="Canvas" transform="translate(498 -40)" figma:type="canvas">
<mask id="mask0_outline" mask-type="alpha">
<path d="M -498 40L -426 40L -426 112L -498 112L -498 40Z" fill="#FFFFFF"/>
</mask>
<g id="Frame" style="mix-blend-mode:normal;" mask="url(#mask0_outline)" figma:type="frame">
<g id="Vector" style="mix-blend-mode:normal;" figma:type="vector">
<use xlink:href="#path0_stroke" transform="translate(-483.95 47)" fill="#FFFFFF" style="mix-blend-mode:normal;"/>
</g>
</g>
</g>
<defs>
<path id="path0_stroke" d="M 4.95016 54C 4.95016 53.4477 4.50245 53 3.95016 53C 3.39788 53 2.95016 53.4477 2.95016 54L 4.95016 54ZM 40.9502 54C 40.9502 53.4477 40.5024 53 39.9502 53C 39.3979 53 38.9502 53.4477 38.9502 54L 40.9502 54ZM 13.6758 12.7314L 12.74 13.084L 13.6758 12.7314ZM 1.65433 15.6726L 1.20556 14.7789L 1.65433 15.6726ZM 5.69728 23.4738L 6.18292 24.348L 6.18292 24.348L 5.69728 23.4738ZM 2.95018 54C 2.95018 54.5523 3.39789 55 3.95018 55C 4.50246 55 4.95018 54.5523 4.95018 54L 2.95018 54ZM 38.9502 54C 38.9502 54.5523 39.3979 55 39.9502 55C 40.5025 55 40.9502 54.5523 40.9502 54L 38.9502 54ZM 38.0833 23.5734L 37.5799 24.4374L 37.5799 24.4374L 38.0833 23.5734ZM 42.2767 16.4644L 42.7729 15.5962L 42.2767 16.4644ZM 30.2024 12.9139L 31.134 13.2773L 30.2024 12.9139ZM 21.986 19.0126L 21.9876 20.0126L 21.986 19.0126ZM 10.4645 20.8254L 9.97889 19.9512L 9.97889 19.9512L 10.4645 20.8254ZM 10.4181 11.2715L 10.8669 12.1652L 10.4181 11.2715ZM 0.313407 19.6872L -0.58234 20.1318L -0.58234 20.1318L 0.313407 19.6872ZM 1.55311 22.1851L 2.44885 21.7405L 2.44885 21.7405L 1.55311 22.1851ZM 33.4536 20.876L 33.957 20.0119L 33.957 20.0119L 33.4536 20.876ZM 42.1378 22.571L 41.2897 22.0411L 41.2897 22.0411L 42.1378 22.571ZM 43.3325 20.6588L 44.1806 21.1887L 44.1806 21.1887L 43.3325 20.6588ZM 33.6016 11.5072L 33.1055 12.3755L 33.1055 12.3755L 33.6016 11.5072ZM 29.5246 14.4712C 30.029 14.6961 30.6202 14.4694 30.8451 13.965C 31.07 13.4606 30.8433 12.8694 30.3389 12.6445L 29.5246 14.4712ZM 13.6091 12.6455C 13.1052 12.8715 12.8799 13.4632 13.106 13.9671C 13.332 14.4711 13.9238 14.6963 14.4277 14.4703L 13.6091 12.6455ZM 23.9502 3C 23.9502 3.55228 24.3979 4 24.9502 4C 25.5025 4 25.9502 3.55228 25.9502 3L 23.9502 3ZM 21.9502 8L 20.9502 8L 20.9502 8L 21.9502 8ZM 7.95016 57C 6.1637 57 4.95016 55.7595 4.95016 54.5L 2.95016 54.5C 2.95016 57.1065 5.31835 59 7.95016 59L 7.95016 57ZM 4.95016 54.5L 4.95016 54L 2.95016 54L 2.95016 54.5L 4.95016 54.5ZM 38.9502 54.5C 38.9502 55.7595 37.7366 57 35.9502 57L 35.9502 59C 38.582 59 40.9502 57.1065 40.9502 54.5L 38.9502 54.5ZM 40.9502 54.5L 40.9502 54L 38.9502 54L 38.9502 54.5L 40.9502 54.5ZM 12.9502 54C 12.9502 53.9982 12.9503 53.9989 12.9498 54.0003C 12.9494 54.001 12.9494 54.0007 12.9502 54C 12.9509 53.9993 12.9512 53.9993 12.9505 53.9996C 12.9491 54.0002 12.9483 54 12.9502 54L 12.9502 52C 11.8456 52 10.9502 52.8954 10.9502 54L 12.9502 54ZM 12.9502 54C 12.952 54 12.9512 54.0002 12.9499 53.9996C 12.9491 53.9993 12.9494 53.9993 12.9502 54C 12.9509 54.0007 12.9509 54.001 12.9506 54.0003C 12.95 53.9989 12.9502 53.9982 12.9502 54L 14.9502 54C 14.9502 52.8954 14.0547 52 12.9502 52L 12.9502 54ZM 21.9502 54C 21.9502 53.9982 21.9503 53.9989 21.9498 54.0003C 21.9494 54.001 21.9494 54.0007 21.9502 54C 21.9509 53.9993 21.9512 53.9993 21.9505 53.9996C 21.9491 54.0002 21.9483 54 21.9502 54L 21.9502 52C 20.8456 52 19.9502 52.8954 19.9502 54L 21.9502 54ZM 21.9502 54C 21.952 54 21.9512 54.0002 21.9499 53.9996C 21.9491 53.9993 21.9494 53.9993 21.9502 54C 21.9509 54.0007 21.9509 54.001 21.9506 54.0003C 21.95 53.9989 21.9502 53.9982 21.9502 54L 23.9502 54C 23.9502 52.8954 23.0547 52 21.9502 52L 21.9502 54ZM 30.9502 54C 30.9502 53.9982 30.9503 53.9989 30.9498 54.0003C 30.9494 54.001 30.9494 54.0007 30.9502 54C 30.9509 53.9993 30.9512 53.9993 30.9505 53.9996C 30.9491 54.0002 30.9483 54 30.9502 54L 30.9502 52C 29.8456 52 28.9502 52.8954 28.9502 54L 30.9502 54ZM 30.9502 54C 30.952 54 30.9512 54.0002 30.9499 53.9996C 30.9491 53.9993 30.9494 53.9993 30.9502 54C 30.9509 54.0007 30.9509 54.001 30.9506 54.0003C 30.95 53.9989 30.9502 53.9982 30.9502 54L 32.9502 54C 32.9502 52.8954 32.0547 52 30.9502 52L 30.9502 54ZM 32.9502 36L 32.9502 21.74L 30.9502 21.74L 30.9502 36L 32.9502 36ZM 29.2707 12.5505C 28.306 15.0234 26.282 18.0057 21.9844 18.0126L 21.9876 20.0126C 27.5085 20.0038 30.0487 16.0594 31.134 13.2773L 29.2707 12.5505ZM 21.9844 18.0126C 17.5921 18.0195 15.5584 14.8913 14.6116 12.3787L 12.74 13.084C 13.7945 15.882 16.3351 20.0215 21.9876 20.0126L 21.9844 18.0126ZM 32.9502 21.74L 37.5799 24.4374L 38.5867 22.7094L 33.957 20.0119L 32.9502 21.74ZM 31.9502 35L 11.9502 35L 11.9502 37L 31.9502 37L 31.9502 35ZM 11.9502 36C 11.2432 35.2928 11.2429 35.293 11.2427 35.2933C 11.2425 35.2934 11.2422 35.2938 11.2419 35.294C 11.2416 35.2944 11.2408 35.2952 11.24 35.296C 11.2387 35.2973 11.2364 35.2996 11.2339 35.3021C 11.2295 35.3066 11.222 35.3142 11.2132 35.3231C 11.1969 35.3398 11.1708 35.3666 11.139 35.3996C 11.078 35.4633 10.9844 35.5622 10.8699 35.6868C 10.6457 35.931 10.3162 36.3017 9.92985 36.7683C 9.16717 37.69 8.12565 39.0584 7.09854 40.725C 5.06549 44.0326 2.97196 48.7912 2.95018 54L 4.95018 54C 4.92839 49.2064 6.83487 44.965 8.80182 41.7732C 9.77471 40.1901 10.7332 38.934 11.4705 38.0436C 11.8341 37.604 12.1297 37.2718 12.343 37.0395C 12.4472 36.926 12.5255 36.8433 12.5816 36.7849C 12.6085 36.7569 12.6273 36.7376 12.6413 36.7234C 12.6476 36.7169 12.6516 36.7128 12.6549 36.7095C 12.6562 36.7082 12.6568 36.7076 12.6575 36.7069C 12.6577 36.7067 12.6578 36.7066 12.6577 36.7067C 12.6577 36.7067 12.6575 36.7069 12.6575 36.7069C 12.6574 36.707 12.6572 36.7072 11.9502 36ZM 40.9502 54C 40.9284 48.7912 38.8349 44.0326 36.8018 40.725C 35.7747 39.0584 34.7332 37.69 33.9705 36.7683C 33.5841 36.3017 33.2547 35.931 33.0305 35.6868C 32.916 35.5622 32.8224 35.4633 32.7613 35.3996C 32.7296 35.3666 32.7035 35.3398 32.6872 35.3231C 32.6784 35.3142 32.6709 35.3066 32.6665 35.3021C 32.664 35.2996 32.6616 35.2973 32.6604 35.296C 32.6596 35.2952 32.6588 35.2944 32.6584 35.294C 32.6581 35.2938 32.6578 35.2934 32.6577 35.2933C 32.6574 35.293 32.6572 35.2928 31.9502 36C 31.2432 36.7072 31.243 36.707 31.2428 36.7069C 31.2428 36.7069 31.2427 36.7067 31.2427 36.7067C 31.2426 36.7066 31.2427 36.7067 31.2429 36.7069C 31.2436 36.7076 31.2442 36.7082 31.2455 36.7095C 31.2487 36.7128 31.2527 36.7169 31.2591 36.7234C 31.273 36.7376 31.2919 36.7569 31.3187 36.7849C 31.3748 36.8433 31.4531 36.926 31.5574 37.0395C 31.7707 37.2718 32.0662 37.604 32.4298 38.0436C 33.1672 38.934 34.1256 40.1901 35.0985 41.7732C 37.0655 44.965 38.972 49.2064 38.9502 54L 40.9502 54ZM 6.18292 24.348L 10.9502 21.6995L 9.97889 19.9512L 5.21164 22.5997L 6.18292 24.348ZM 10.9502 21.6995L 10.9502 36L 12.9502 36L 12.9502 21.6995L 10.9502 21.6995ZM 42.7729 15.5962L 34.0978 10.639L 33.1055 12.3755L 41.7806 17.3327L 42.7729 15.5962ZM 9.96935 10.3779L 1.20556 14.7789L 2.1031 16.5662L 10.8669 12.1652L 9.96935 10.3779ZM 42.9858 23.1009L 44.1806 21.1887L 42.4845 20.1289L 41.2897 22.0411L 42.9858 23.1009ZM -0.58234 20.1318L 0.65736 22.6296L 2.44885 21.7405L 1.20915 19.2426L -0.58234 20.1318ZM 14.6116 12.3787C 13.9625 10.6564 11.8484 9.43427 9.96935 10.3779L 10.8669 12.1652C 11.4574 11.8686 12.4146 12.2203 12.74 13.084L 14.6116 12.3787ZM 1.20556 14.7789C -0.762066 15.767 -1.56118 18.1595 -0.58234 20.1318L 1.20915 19.2426C 0.719735 18.2565 1.11929 17.0603 2.1031 16.5662L 1.20556 14.7789ZM 5.21164 22.5997C 4.21423 23.1538 2.9561 22.7625 2.44885 21.7405L 0.65736 22.6296C 1.67185 24.6737 4.1881 25.4562 6.18292 24.348L 5.21164 22.5997ZM 32.9502 21.74C 32.9502 21.7345 32.9508 21.7335 32.9503 21.7354C 32.9498 21.7372 32.9489 21.7392 32.9479 21.7409C 32.9462 21.7437 32.9463 21.7422 32.9502 21.74C 32.9541 21.7378 32.9554 21.7384 32.9521 21.7385C 32.9501 21.7385 32.9479 21.7383 32.9462 21.7378C 32.9442 21.7373 32.9455 21.7372 32.9502 21.74L 33.957 20.0119C 32.6237 19.2351 30.9502 20.1969 30.9502 21.74L 32.9502 21.74ZM 37.5799 24.4374C 39.4471 25.5253 41.8407 24.9335 42.9858 23.1009L 41.2897 22.0411C 40.7172 22.9574 39.5203 23.2533 38.5867 22.7094L 37.5799 24.4374ZM 41.7806 17.3327C 42.7664 17.896 43.0861 19.166 42.4845 20.1289L 44.1806 21.1887C 45.3839 19.2629 44.7445 16.7228 42.7729 15.5962L 41.7806 17.3327ZM 31.134 13.2773C 31.4857 12.3758 32.5145 12.0378 33.1055 12.3755L 34.0978 10.639C 32.2047 9.55725 29.9588 10.7866 29.2707 12.5505L 31.134 13.2773ZM 10.9502 21.6995C 10.9547 21.697 10.9559 21.697 10.954 21.6975C 10.9523 21.6979 10.9503 21.6981 10.9484 21.6981C 10.9452 21.698 10.9465 21.6973 10.9502 21.6995C 10.9539 21.7017 10.9539 21.7031 10.9523 21.7004C 10.9514 21.6988 10.9505 21.6968 10.9501 21.6952C 10.9496 21.6933 10.9502 21.6943 10.9502 21.6995L 12.9502 21.6995C 12.9502 20.1745 11.312 19.2106 9.97889 19.9512L 10.9502 21.6995ZM 21.543 10.9134L 29.5246 14.4712L 30.3389 12.6445L 22.3573 9.08664L 21.543 10.9134ZM 14.4277 14.4703L 22.3595 10.9124L 21.5409 9.08759L 13.6091 12.6455L 14.4277 14.4703ZM 22.9502 8C 22.9502 7.14336 22.6825 6.48652 22.2623 5.96124C 21.8863 5.50691 21.4142 5.16066 21.0502 4.8875C 20.6856 4.61416 20.4326 4.42853 20.2461 4.13343C 20.0865 3.89837 19.9502 3.56627 19.9502 3L 17.9502 3C 17.9502 3.93373 18.1889 4.66413 18.5917 5.2572C 18.9677 5.79022 19.4648 6.19834 19.8502 6.4875C 20.2361 6.77684 20.514 6.96184 20.7006 7.21063C 20.8428 7.38848 20.9502 7.60664 20.9502 8L 22.9502 8ZM 19.9502 3C 19.9502 1.9547 20.6622 1 21.9502 1L 21.9502 -1C 19.3721 -1 17.9502 1.0453 17.9502 3L 19.9502 3ZM 21.9502 1C 22.6788 1 23.1518 1.2633 23.4528 1.60186C 23.7701 1.95883 23.9502 2.46307 23.9502 3L 25.9502 3C 25.9502 2.03693 25.6303 1.04117 24.9476 0.273136C 24.2485 -0.513298 23.2215 -1 21.9502 -1L 21.9502 1ZM 20.9502 8L 20.9502 10L 22.9502 10L 22.9502 8L 20.9502 8ZM 10.9502 54C 10.9502 55.755 9.76015 57 7.95016 57L 7.95016 59C 10.8921 59 12.9502 56.832 12.9502 54L 10.9502 54ZM 17.4502 57C 16.6203 57 16.0303 56.6633 15.6253 56.1535C 15.2012 55.6197 14.9502 54.8509 14.9502 54L 12.9502 54C 12.9502 55.2172 13.3053 56.4484 14.0593 57.3975C 14.8324 58.3707 15.9924 59 17.4502 59L 17.4502 57ZM 19.9502 54C 19.9502 54.8509 19.6991 55.6197 19.275 56.1535C 18.8701 56.6633 18.2801 57 17.4502 57L 17.4502 59C 18.9079 59 20.0679 58.3707 20.841 57.3975C 21.5951 56.4484 21.9502 55.2172 21.9502 54L 19.9502 54ZM 26.4502 57C 25.6203 57 25.0303 56.6633 24.6253 56.1535C 24.2012 55.6197 23.9502 54.8509 23.9502 54L 21.9502 54C 21.9502 55.2172 22.3053 56.4484 23.0593 57.3975C 23.8324 58.3707 24.9924 59 26.4502 59L 26.4502 57ZM 28.9502 54C 28.9502 54.8509 28.6991 55.6197 28.275 56.1535C 27.8701 56.6633 27.2801 57 26.4502 57L 26.4502 59C 27.9079 59 29.0679 58.3707 29.841 57.3975C 30.5951 56.4484 30.9502 55.2172 30.9502 54L 28.9502 54ZM 35.9502 57C 34.1402 57 32.9502 55.755 32.9502 54L 30.9502 54C 30.9502 56.832 33.0083 59 35.9502 59L 35.9502 57Z"/>
</defs>
</svg>
