<svg width="44" height="44" viewBox="0 0 44 44" version="2.0" xmlns="http://www.w3.org/2000/svg" xmlns:xlink="http://www.w3.org/1999/xlink" xmlns:figma="http://www.figma.com/figma/ns">
<title>phone.svg</title>
<desc>Created using Figma 0.90</desc>
<g id="Canvas" transform="translate(734 259)" figma:type="canvas">
<mask id="mask0_outline" mask-type="alpha">
<path d="M -734 -259L -690 -259L -690 -215L -734 -215L -734 -259Z" fill="#FFFFFF"/>
</mask>
<g id="phone" style="mix-blend-mode:normal;" mask="url(#mask0_outline)" figma:type="frame">
<g id="Subtract (Stroke)" style="mix-blend-mode:normal;" figma:type="vector">
<use xlink:href="#path0_fill" transform="translate(-729 -254)" fill="#31343B" style="mix-blend-mode:normal;"/>
</g>
</g>
</g>
<defs>
<path id="path0_fill" d="M 9.60198 11.3474L 9.02017 11.9293C 8.75233 12.1971 8.65881 12.5933 8.77859 12.9526L 9.0695 13.8253C 9.07569 13.8439 9.08243 13.8623 9.0897 13.8805C 9.67869 15.3525 10.9393 18.148 13.3838 20.6162C 13.3995 20.6319 13.4157 20.6471 13.4324 20.6617C 15.8429 22.7634 18.607 24.3031 20.1195 24.9103C 20.1377 24.9176 20.1561 24.9243 20.1747 24.9305L 21.0474 25.2214C 21.4067 25.3412 21.8029 25.2477 22.0707 24.9798L 22.6526 24.398C 23.0889 23.9617 23.8784 23.1634 24.7692 22.6099C 25.2667 22.2966 25.662 22.1389 25.9722 22.0901C 26.2584 22.0449 26.4722 22.0924 26.6271 22.1957C 26.6616 22.2187 26.6975 22.2395 26.7346 22.2581L 32 24.8908L 32 27.1818C 32 28.0785 31.3662 29.2785 30.1396 30.3062C 28.9086 31.3506 27.4124 32.0214 25.7273 32C 24.9636 32 23.8623 31.7416 22.5175 31.2329C 21.1763 30.7265 19.7161 30.022 18.2156 29.1819C 15.2083 27.501 12.2646 25.4006 10.4344 23.5656C 10.4257 23.5569 10.4168 23.5483 10.4077 23.5399C 8.44183 21.7214 6.35601 18.7956 4.71346 15.7924C 3.0455 12.7466 2 9.88802 2 8.27273C 2 6.36715 2.7605 4.78371 3.77439 3.67477C 4.81727 2.53412 6.02309 2 6.81818 2L 9.12154 2C 9.14712 2.04912 9.17417 2.10109 9.20257 2.1557C 9.42371 2.58098 9.72433 3.16186 10.0458 3.79133C 10.6894 5.05116 11.402 6.4754 11.7172 7.2121C 11.7249 7.2301 11.7332 7.24788 11.7419 7.2654C 11.9223 7.62608 11.8394 8.2726 11.2915 9.21214C 10.7829 10.0949 10.0779 10.867 9.64165 11.3076C 9.62777 11.3216 9.61517 11.3343 9.60198 11.3474ZM 10.9575 13.1649L 10.8714 12.9065L 11.0162 12.7617C 11.0312 12.7466 11.0476 12.7301 11.0634 12.7141C 11.1819 12.5944 11.3259 12.443 11.485 12.2665C 11.9541 11.7463 12.5547 11.0082 13.0191 10.2197C 13.5978 9.22754 14.2006 7.74827 13.5448 6.39932C 13.2009 5.60296 12.4676 4.13584 11.8269 2.88156C 11.503 2.24736 11.1991 1.66002 10.977 1.233C 10.8658 1.01919 10.7746 0.844551 10.7115 0.72391C 10.6799 0.663452 10.6552 0.616171 10.6384 0.584228C 10.63 0.568191 10.6235 0.555847 10.6192 0.547615C 10.617 0.543467 10.6154 0.540281 10.6143 0.538181L 10.613 0.535752L 10.6127 0.535248L 10.6126 0.535118L 10.6125 0.534875L 9.72727 1C 10.5941 0.544546 10.6125 0.534875 10.6125 0.534875C 10.4397 0.205979 10.0988 0 9.72727 0L 6.81818 0C 5.286 0 3.58273 0.920425 2.29833 2.32523C 0.984954 3.76174 0 5.81467 0 8.27273C 0 10.4393 1.28178 13.6898 2.95927 16.753C 4.65846 19.8522 6.93005 23.0283 9.03303 24.9927C 10.9857 26.9366 14.144 29.1938 17.239 30.9272C 18.793 31.7962 20.3874 32.5644 21.8098 33.1035C 23.2286 33.6402 24.6 34 25.7273 34C 27.824 33.9786 29.9641 33.0494 31.424 31.8392C 32.8884 30.6124 34 28.9034 34 27.1818L 34 24.2727C 34 23.894 33.786 23.5477 33.4472 23.3783L 27.679 20.4942C 26.2707 19.6019 24.6969 20.2919 23.7036 20.9174C 22.6307 21.6003 21.6747 22.5474 21.2383 22.9838L 21.0935 23.1286L 20.8351 23.0425C 19.4388 22.4812 16.9964 21.1245 14.7732 19.1774C 12.5938 17.0111 11.5326 14.6 10.9575 13.1649Z"/>
</defs>
</svg>
