<?xml version="1.0" encoding="utf-8"?>
<!-- Generator: Adobe Illustrator 20.1.0, SVG Export Plug-In . SVG Version: 6.00 Build 0)  -->
<svg version="1.1" id="Слой_1" xmlns:figma="http://www.figma.com/figma/ns"
	 xmlns="http://www.w3.org/2000/svg" xmlns:xlink="http://www.w3.org/1999/xlink" x="0px" y="0px" viewBox="0 0 24 24"
	 style="enable-background:new 0 0 24 24;" xml:space="preserve">
<style type="text/css">
	.st0{fill:#FFFFFF;}
</style>
<path id="path0_fill" class="st0" d="M12,23.9L12,23.9C18.6,24,24,18.6,24,12S18.6,0,12,0S0,5.4,0,12c0,2.3,0.7,4.5,1.9,6.4L0,23.3
	c-0.1,0.2,0,0.4,0.1,0.5C0.3,24,0.5,24,0.7,24l5-1.8C7.5,23.4,9.9,23.9,12,23.9z M1.4,22.7l1.5-4.1c0.1-0.1,0-0.3,0-0.4
	c-1.3-2-1.9-4-1.9-6.2C1,6,6,1,12,1s11,5,11,11s-5,11-11,10.9l0,0c-2,0-4.4-0.5-5.9-1.7c-0.1-0.1-0.3-0.1-0.5-0.1L1.4,22.7z"/>
<path id="path1_fill" class="st0" d="M10.1,10.6c0.1-0.1,0.1-0.1,0.2-0.2c0.2-0.2,0.3-0.4,0.5-0.7C11,9.4,11.2,8.8,11,8.3l0,0
	l-0.4,0.2L10,8.7l0,0c0,0,0,0,0,0.1S10,9,9.8,9.3C9.7,9.5,9.5,9.8,9.4,9.9l0,0l-0.2,0.2C9,10.3,9,10.5,9,10.7L9.1,11l0,0
	c0.2,0.5,0.7,1.5,1.5,2.4l0,0c0.8,0.7,1.8,1.3,2.3,1.5l0,0l0.3,0.1c0.2,0.1,0.4,0,0.5-0.1l0.2-0.2c0.1-0.1,0.4-0.4,0.7-0.6
	c0.3-0.2,0.4-0.2,0.5-0.1l0,0c0,0,0,0,0.1,0l1.7,0.9v0.7c0,0.2-0.2,0.6-0.6,1C16,16.8,15.6,17,15,17c-0.2,0-0.6-0.1-1-0.3
	c-0.5-0.2-0.9-0.4-1.5-0.7c-1-0.6-2-1.3-2.6-1.9l0,0c-0.7-0.6-1.4-1.6-1.9-2.6c-0.7-1-1-2-1-2.5c0-0.6,0.2-1.1,0.6-1.5
	C7.9,7.2,8.3,7,8.5,7h0.7L10,8.7h0.5L11,8.3l-1-2C9.9,6.1,9.7,6,9.5,6h-1C7.9,6,7.3,6.3,6.8,6.9C6.4,7.4,6,8.1,6,9
	c0,0.8,0.5,1.9,1,3c0.6,1.1,1.4,2.2,2.1,2.9c0.7,0.7,1.8,1.5,2.9,2.1c0.5,0.3,1.1,0.6,1.6,0.8c0.5,0.2,1,0.3,1.4,0.3
	c0.8,0,1.5-0.4,2.1-0.8c0.5-0.4,0.9-1.1,0.9-1.7v-1c0-0.2-0.1-0.4-0.3-0.4l-2-1c-0.6-0.4-1.2-0.1-1.5,0.1c-0.4,0.2-0.7,0.6-0.9,0.7
	c-0.5-0.2-1.3-0.6-2-1.3C10.6,11.9,10.3,11.1,10.1,10.6z"/>
</svg>
