<?xml version="1.0" encoding="utf-8"?>
<!-- Generator: Adobe Illustrator 20.1.0, SVG Export Plug-In . SVG Version: 6.00 Build 0)  -->
<svg version="1.1" id="Слой_1" xmlns:figma="http://www.figma.com/figma/ns"
	 xmlns="http://www.w3.org/2000/svg" xmlns:xlink="http://www.w3.org/1999/xlink" x="0px" y="0px" viewBox="0 0 24 24"
	 style="enable-background:new 0 0 24 24;" xml:space="preserve">
<style type="text/css">
	.st0{fill:#FFFFFF;}
</style>
<path id="path0_fill" class="st0" d="M8.6,3.3C8.5,3.1,8.3,3,8.1,3H6.6C5.8,3,4.9,3.5,4.2,4.2C3.5,5,3,6.1,3,7.4
	c0,1.1,0.7,2.9,1.6,4.5s2.1,3.3,3.2,4.4c1,1,2.7,2.2,4.4,3.1c0.8,0.5,1.7,0.9,2.4,1.2c0.8,0.3,1.5,0.5,2.1,0.5c1.1,0,2.2-0.5,3-1.1
	s1.4-1.5,1.4-2.5V16c0-0.2-0.1-0.3-0.3-0.4l-3.1-1.5c-0.8-0.5-1.6-0.1-2.1,0.2c-0.6,0.4-1,0.8-1.2,1l0,0L14,15.2
	c-0.7-0.3-2-1-3.2-2.1c-1.2-1.2-1.7-2.4-2-3.2L8.7,9.8l0.1-0.1l0,0C8.9,9.6,8.9,9.6,9,9.5c0.3-0.3,0.6-0.7,0.8-1.1
	c0.3-0.5,0.6-1.3,0.3-2C9.8,5.8,9.6,5.3,9.2,4.5C9,4.2,8.9,4,8.8,3.7C8.7,3.5,8.7,3.5,8.6,3.3C8.6,3.3,8.6,3.3,8.6,3.3L8.6,3.3
	L8.6,3.3L8.6,3.3L8.6,3.3L8.6,3.3L8.6,3.3z M20,16.2v1.2c0,0.5-0.3,1.1-1,1.7S17.5,20,16.6,20c-0.4,0-1-0.1-1.7-0.4
	s-1.5-0.6-2.3-1.1c-1.6-0.9-3.2-2-4.1-3l0,0c-1-1-2.2-2.5-3-4.1C4.6,9.8,4,8.2,4,7.4c0-1,0.4-1.9,1-2.5C5.5,4.3,6.2,4,6.6,4h1.2
	c0,0,0.1,0,0.1,0.1C8,4.3,8.2,4.6,8.3,5C8.7,5.7,9,6.4,9.2,6.8l0,0C9.3,7,9.3,7.4,9,7.9S8.3,8.8,8.1,9l0,0L7.8,9.3
	C7.6,9.5,7.7,9.8,7.7,9.8l0.2,0.5l0,0c0.3,0.8,1,2.3,2.3,3.6l0,0c1.3,1.1,2.7,1.9,3.5,2.3l0,0l0.5,0.2c0.2,0.1,0.4,0,0.5-0.1L15,16
	c0.2-0.2,0.7-0.7,1.1-1c0.5-0.4,0.7-0.4,1-0.3c0,0,0.1,0,0.1,0.1L20,16.2z"/>
</svg>
