<svg width="36" height="26" viewBox="0 0 36 26" version="2.0" xmlns="http://www.w3.org/2000/svg" xmlns:xlink="http://www.w3.org/1999/xlink" xmlns:figma="http://www.figma.com/figma/ns">
<title>Union.svg</title>
<desc>Created using Figma 0.90</desc>
<g id="Canvas" transform="translate(351 253)" figma:type="canvas">
<g id="Union" style="mix-blend-mode:normal;" figma:type="vector">
<use xlink:href="#path0_fill" transform="translate(-351 -253)" fill="#FFFFFF" style="mix-blend-mode:normal;"/>
<use xlink:href="#path1_fill" transform="translate(-351 -253)" fill="#FFFFFF" style="mix-blend-mode:normal;"/>
<use xlink:href="#path2_fill" transform="translate(-351 -253)" fill="#FFFFFF" style="mix-blend-mode:normal;"/>
</g>
</g>
<defs>
<path id="path0_fill" d="M 17 10C 17 9.44772 17.4477 9 18 9C 20.2091 9 22 10.7909 22 13C 22 13.5523 21.5523 14 21 14C 20.4477 14 20 13.5523 20 13C 20 11.8954 19.1046 11 18 11C 17.4477 11 17 10.5523 17 10Z"/>
<path id="path1_fill" fill-rule="evenodd" d="M 26 13C 26 17.4183 22.4183 21 18 21C 13.5817 21 10 17.4183 10 13C 10 8.58172 13.5817 5 18 5C 22.4183 5 26 8.58172 26 13ZM 24 13C 24 16.3137 21.3137 19 18 19C 14.6863 19 12 16.3137 12 13C 12 9.68629 14.6863 7 18 7C 21.3137 7 24 9.68629 24 13Z"/>
<path id="path2_fill" fill-rule="evenodd" d="M 23.6166 24.4502C 21.6893 25.3656 19.7181 26 18 26C 16.5026 26 14.813 25.5181 13.1277 24.7883C 12.8793 24.6807 12.631 24.5677 12.3834 24.4502C 10.4559 23.5326 8.4333 22.2614 6.65 20.925C 4.86488 19.5849 3.22821 18.1112 2.06509 16.805C 1.47728 16.1426 0.965609 15.466 0.621629 14.8826C 0.280218 14.3001 0 13.6435 0 13C 0 12.3565 0.280218 11.6999 0.621629 11.1174C 0.965609 10.534 1.47728 9.85744 2.06509 9.19501C 3.22821 7.88883 4.86488 6.41508 6.65 5.075C 8.4333 3.73858 10.4559 2.46735 12.3834 1.54985C 14.3107 0.634378 16.2819 0 18 0C 19.4974 0 21.187 0.481874 22.8723 1.21174C 23.1207 1.3193 23.369 1.43226 23.6166 1.54985C 25.5441 2.46735 27.5667 3.73858 29.35 5.075C 31.1351 6.41508 32.7718 7.88883 33.9349 9.19501C 34.5227 9.85744 35.0344 10.534 35.3784 11.1174C 35.7198 11.6999 36 12.3565 36 13C 36 13.6435 35.7198 14.3001 35.3784 14.8826C 35.0344 15.466 34.5227 16.1426 33.9349 16.805C 32.7718 18.1112 31.1351 19.5849 29.35 20.925C 27.5667 22.2614 25.5441 23.5326 23.6166 24.4502ZM 33.6529 13.8713C 33.3719 14.3543 32.9773 14.8731 32.4401 15.4763C 31.3532 16.7013 29.8649 18.0401 28.15 19.325C 26.4333 20.6136 24.5809 21.7799 22.7584 22.6436C 20.9357 23.5094 19.2819 24 18 24C 16.7181 24 15.0643 23.5094 13.2416 22.6436C 11.4191 21.7799 9.5667 20.6136 7.85 19.325C 6.13512 18.0401 4.64679 16.7013 3.55991 15.4763C 3.02272 14.8731 2.62814 14.3543 2.34712 13.8713C 2.16639 13.5629 2.07504 13.337 2.03254 13.1861C 2.00836 13.1002 2 13.0386 2 13C 2 12.9614 2.00836 12.8998 2.03254 12.8139C 2.07504 12.663 2.16639 12.4371 2.34712 12.1287C 2.62814 11.6457 3.02272 11.1269 3.55991 10.5237C 4.64679 9.29867 6.13512 7.95992 7.85 6.675C 9.5667 5.38642 11.4191 4.22015 13.2416 3.3564C 15.0643 2.49062 16.7181 2 18 2C 19.2819 2 20.9357 2.49062 22.7584 3.3564C 24.5809 4.22015 26.4333 5.38642 28.15 6.675C 29.8649 7.95992 31.3532 9.29867 32.4401 10.5237C 32.9773 11.1269 33.3719 11.6457 33.6529 12.1287C 33.8336 12.4371 33.925 12.663 33.9675 12.8139C 33.9916 12.8998 34 12.9614 34 13C 34 13.0386 33.9916 13.1002 33.9675 13.1861C 33.925 13.337 33.8336 13.5629 33.6529 13.8713Z"/>
</defs>
</svg>
