<svg width="72" height="72" viewBox="0 0 72 72" version="2.0" xmlns="http://www.w3.org/2000/svg" xmlns:xlink="http://www.w3.org/1999/xlink" xmlns:figma="http://www.figma.com/figma/ns">
<title>Frame-11.svg</title>
<desc>Created using Figma 0.90</desc>
<g id="Canvas" transform="translate(498 144)" figma:type="canvas">
<mask id="mask0_outline" mask-type="alpha">
<path d="M -498 -144L -426 -144L -426 -72L -498 -72L -498 -144Z" fill="#FFFFFF"/>
</mask>
<g id="Frame" style="mix-blend-mode:normal;" mask="url(#mask0_outline)" figma:type="frame">
<g id="Vector" style="mix-blend-mode:normal;" figma:type="vector">
<use xlink:href="#path0_stroke" transform="translate(-483 -128.987)" fill="#FFFFFF" style="mix-blend-mode:normal;"/>
</g>
</g>
</g>
<defs>
<path id="path0_stroke" d="M 14 9.98665L 14 8.98665L 13 8.98665L 13 9.98665L 14 9.98665ZM 28 9.98665L 29 9.98665L 29 8.98665L 28 8.98665L 28 9.98665ZM 28 17.9866L 28 18.9866L 29 18.9866L 29 17.9866L 28 17.9866ZM 14 17.9866L 13 17.9866L 13 18.9866L 14 18.9866L 14 17.9866ZM 16 17.9866L 16 16.9866L 15 16.9866L 15 17.9866L 16 17.9866ZM 26 17.9866L 27 17.9866L 27 16.9866L 26 16.9866L 26 17.9866ZM 26 41.9866L 26 42.9866L 27 42.9866L 27 41.9866L 26 41.9866ZM 16 41.9866L 15 41.9866L 15 42.9866L 16 42.9866L 16 41.9866ZM 5 18.9866L 37 18.9866L 37 16.9866L 5 16.9866L 5 18.9866ZM 37 18.9866L 37 40.9866L 39 40.9866L 39 18.9866L 37 18.9866ZM 37 40.9866L 5 40.9866L 5 42.9866L 37 42.9866L 37 40.9866ZM 5 40.9866L 5 18.9866L 3 18.9866L 3 40.9866L 5 40.9866ZM 5 16.9866C 3.89543 16.9866 3 17.8821 3 18.9866L 5 18.9866C 5 18.9848 5.00018 18.9856 4.99959 18.987C 4.99928 18.9877 4.99927 18.9874 5 18.9866C 5.00073 18.9859 5.00103 18.9859 5.00031 18.9862C 4.99892 18.9868 4.99816 18.9866 5 18.9866L 5 16.9866ZM 37 18.9866C 37.0018 18.9866 37.0011 18.9868 36.9997 18.9862C 36.999 18.9859 36.9993 18.9859 37 18.9866C 37.0007 18.9874 37.0007 18.9877 37.0004 18.987C 36.9998 18.9856 37 18.9848 37 18.9866L 39 18.9866C 39 17.8821 38.1046 16.9866 37 16.9866L 37 18.9866ZM 37 40.9866C 37 40.9885 36.9998 40.9877 37.0004 40.9863C 37.0007 40.9856 37.0007 40.9859 37 40.9866C 36.9993 40.9874 36.999 40.9874 36.9997 40.9871C 37.0011 40.9865 37.0018 40.9866 37 40.9866L 37 42.9866C 38.1046 42.9866 39 42.0912 39 40.9866L 37 40.9866ZM 5 40.9866C 4.99816 40.9866 4.99892 40.9865 5.00031 40.9871C 5.00103 40.9874 5.00073 40.9874 5 40.9866C 4.99927 40.9859 4.99928 40.9856 4.99959 40.9863C 5.00018 40.9877 5 40.9885 5 40.9866L 3 40.9866C 3 42.0912 3.89543 42.9866 5 42.9866L 5 40.9866ZM 1 10.9866L 41 10.9866L 41 8.98665L 1 8.98665L 1 10.9866ZM 41 10.9866L 41 16.9866L 43 16.9866L 43 10.9866L 41 10.9866ZM 41 16.9866L 1 16.9866L 1 18.9866L 41 18.9866L 41 16.9866ZM 1 16.9866L 1 10.9866L -1 10.9866L -1 16.9866L 1 16.9866ZM 1 8.98665C -0.10457 8.98665 -1 9.88208 -1 10.9866L 1 10.9866C 1 10.9848 1.00018 10.9856 0.999589 10.987C 0.999283 10.9877 0.999273 10.9874 1 10.9866C 1.00073 10.9859 1.00103 10.9859 1.00031 10.9862C 0.998917 10.9868 0.998155 10.9866 1 10.9866L 1 8.98665ZM 41 10.9866C 41.0018 10.9866 41.0011 10.9868 40.9997 10.9862C 40.999 10.9859 40.9993 10.9859 41 10.9866C 41.0007 10.9874 41.0007 10.9877 41.0004 10.987C 40.9998 10.9856 41 10.9848 41 10.9866L 43 10.9866C 43 9.88208 42.1046 8.98665 41 8.98665L 41 10.9866ZM 41 16.9866C 41 16.9885 40.9998 16.9877 41.0004 16.9863C 41.0007 16.9856 41.0007 16.9859 41 16.9866C 40.9993 16.9874 40.999 16.9874 40.9997 16.9871C 41.0011 16.9865 41.0018 16.9866 41 16.9866L 41 18.9866C 42.1046 18.9866 43 18.0912 43 16.9866L 41 16.9866ZM 1 16.9866C 0.998155 16.9866 0.998917 16.9865 1.00031 16.9871C 1.00103 16.9874 1.00073 16.9874 1 16.9866C 0.999273 16.9859 0.999283 16.9856 0.999589 16.9863C 1.00018 16.9877 1 16.9885 1 16.9866L -1 16.9866C -1 18.0912 -0.10457 18.9866 1 18.9866L 1 16.9866ZM 14 10.9866L 28 10.9866L 28 8.98665L 14 8.98665L 14 10.9866ZM 27 9.98665L 27 17.9866L 29 17.9866L 29 9.98665L 27 9.98665ZM 28 16.9866L 14 16.9866L 14 18.9866L 28 18.9866L 28 16.9866ZM 15 17.9866L 15 9.98665L 13 9.98665L 13 17.9866L 15 17.9866ZM 16 18.9866L 26 18.9866L 26 16.9866L 16 16.9866L 16 18.9866ZM 25 17.9866L 25 41.9866L 27 41.9866L 27 17.9866L 25 17.9866ZM 26 40.9866L 16 40.9866L 16 42.9866L 26 42.9866L 26 40.9866ZM 17 41.9866L 17 17.9866L 15 17.9866L 15 41.9866L 17 41.9866ZM 29.2643 1.76101C 30.4042 2.91993 30.3407 5.41044 28.4245 7.35852L 29.8504 8.76101C 32.2007 6.37158 32.8891 2.59407 30.6901 0.358519L 29.2643 1.76101ZM 28.4245 7.35852C 26.509 9.30587 24.0885 9.35451 22.965 8.21228L 21.5392 9.61477C 23.7545 11.867 27.4993 11.1512 29.8504 8.76101L 28.4245 7.35852ZM 22.965 8.21228C 21.8251 7.05336 21.8886 4.56286 23.8048 2.61477L 22.3789 1.21228C 20.0286 3.60172 19.3402 7.37922 21.5392 9.61477L 22.965 8.21228ZM 23.8048 2.61477C 25.7202 0.667418 28.1408 0.618785 29.2643 1.76101L 30.6901 0.358519C 28.4748 -1.89373 24.73 -1.17787 22.3789 1.21228L 23.8048 2.61477ZM 18.1952 2.61477C 20.1114 4.56286 20.1749 7.05336 19.035 8.21228L 20.4608 9.61477C 22.6598 7.37922 21.9714 3.60172 19.6211 1.21228L 18.1952 2.61477ZM 19.035 8.21228C 17.9115 9.35451 15.491 9.30587 13.5755 7.35852L 12.1496 8.76101C 14.5007 11.1512 18.2455 11.867 20.4608 9.61477L 19.035 8.21228ZM 13.5755 7.35852C 11.6593 5.41044 11.5958 2.91993 12.7357 1.76101L 11.3099 0.358519C 9.11093 2.59407 9.79935 6.37157 12.1496 8.76101L 13.5755 7.35852ZM 12.7357 1.76101C 13.8592 0.618785 16.2798 0.667418 18.1952 2.61477L 19.6211 1.21228C 17.27 -1.17788 13.5252 -1.89373 11.3099 0.358519L 12.7357 1.76101Z"/>
</defs>
</svg>
