<svg width="72" height="72" viewBox="0 0 72 72" version="2.0" xmlns="http://www.w3.org/2000/svg" xmlns:xlink="http://www.w3.org/1999/xlink" xmlns:figma="http://www.figma.com/figma/ns">
<title>Frame-9.svg</title>
<desc>Created using Figma 0.90</desc>
<g id="Canvas" transform="translate(406 -40)" figma:type="canvas">
<mask id="mask0_outline" mask-type="alpha">
<path d="M -406 40L -334 40L -334 112L -406 112L -406 40Z" fill="#FFFFFF"/>
</mask>
<g id="Frame" style="mix-blend-mode:normal;" mask="url(#mask0_outline)" figma:type="frame">
<g id="Vector" style="mix-blend-mode:normal;" figma:type="vector">
<use xlink:href="#path0_stroke" transform="translate(-393 53)" fill="#FFFFFF" style="mix-blend-mode:normal;"/>
</g>
</g>
</g>
<defs>
<path id="path0_stroke" d="M 9 18C 9 17.4477 8.55228 17 8 17C 7.44772 17 7 17.4477 7 18L 9 18ZM 39 18C 39 17.4477 38.5523 17 38 17C 37.4477 17 37 17.4477 37 18L 39 18ZM 24 24C 24 23.4477 23.5523 23 23 23C 22.4477 23 22 23.4477 22 24L 24 24ZM 22 26C 22 26.5523 22.4477 27 23 27C 23.5523 27 24 26.5523 24 26L 22 26ZM 24 10C 24 9.44772 23.5523 9 23 9C 22.4477 9 22 9.44772 22 10L 24 10ZM 22 18C 22 18.5523 22.4477 19 23 19C 23.5523 19 24 18.5523 24 18L 22 18ZM 14 5C 14.5523 5 15 4.55228 15 4C 15 3.44772 14.5523 3 14 3L 14 5ZM 32 3C 31.4477 3 31 3.44772 31 4C 31 4.55228 31.4477 5 32 5L 32 3ZM 15.7071 0.292893C 15.3166 -0.0976311 14.6834 -0.0976311 14.2929 0.292893C 13.9024 0.683418 13.9024 1.31658 14.2929 1.70711L 15.7071 0.292893ZM 31.7071 1.70711C 32.0976 1.31658 32.0976 0.683418 31.7071 0.292893C 31.3166 -0.0976311 30.6834 -0.0976311 30.2929 0.292893L 31.7071 1.70711ZM 29.7718 12.7621L 29.2862 13.6363L 29.7718 12.7621ZM 16.2282 12.7621L 16.7138 13.6363L 16.2282 12.7621ZM 37 18L 37 45L 39 45L 39 18L 37 18ZM 37 45L 9 45L 9 47L 37 47L 37 45ZM 9 45L 9 18L 7 18L 7 45L 9 45ZM 37 45C 37 45.0018 36.9998 45.0011 37.0004 44.9997C 37.0007 44.999 37.0007 44.9993 37 45C 36.9993 45.0007 36.999 45.0007 36.9997 45.0004C 37.0011 44.9998 37.0018 45 37 45L 37 47C 38.1046 47 39 46.1046 39 45L 37 45ZM 9 45C 8.99816 45 8.99892 44.9998 9.00031 45.0004C 9.00103 45.0007 9.00073 45.0007 9 45C 8.99927 44.9993 8.99928 44.999 8.99959 44.9997C 9.00018 45.0011 9 45.0018 9 45L 7 45C 7 46.1046 7.89543 47 9 47L 9 45ZM 22 24L 22 26L 24 26L 24 24L 22 24ZM 22 10L 22 18L 24 18L 24 10L 22 10ZM 7 18L 7 20L 9 20L 9 18L 7 18ZM 6 21L 2 21L 2 23L 6 23L 6 21ZM 1 20L 1 15L -1 15L -1 20L 1 20ZM 7 20C 7 20.5523 6.55228 21 6 21L 6 23C 7.65685 23 9 21.6569 9 20L 7 20ZM 2 21C 1.44772 21 1 20.5523 1 20L -1 20C -1 21.6569 0.343146 23 2 23L 2 21ZM 45 15L 45 20L 47 20L 47 15L 45 15ZM 44 21L 40 21L 40 23L 44 23L 44 21ZM 39 20L 39 18L 37 18L 37 20L 39 20ZM 45 20C 45 20.5523 44.5523 21 44 21L 44 23C 45.6569 23 47 21.6569 47 20L 45 20ZM 40 21C 39.4477 21 39 20.5523 39 20L 37 20C 37 21.6569 38.3431 23 40 23L 40 21ZM 11 5L 14 5L 14 3L 11 3L 11 5ZM 1 15C 1 9.47715 5.47715 5 11 5L 11 3C 4.37258 3 -1 8.37258 -1 15L 1 15ZM 35 3L 32 3L 32 5L 35 5L 35 3ZM 47 15C 47 8.37258 41.6274 3 35 3L 35 5C 40.5228 5 45 9.47715 45 15L 47 15ZM 15 1L 31 1L 31 -1L 15 -1L 15 1ZM 31 1L 31 11.4507L 33 11.4507L 33 1L 31 1ZM 15 11.4507L 15 1L 13 1L 13 11.4507L 15 11.4507ZM 30.2574 11.888C 28.3422 10.824 25.5681 9.28275 23.4856 8.12584L 22.5144 9.87416C 24.5968 11.0311 27.371 12.5723 29.2862 13.6363L 30.2574 11.888ZM 16.7138 13.6363C 18.629 12.5723 21.4032 11.0311 23.4856 9.87416L 22.5144 8.12584C 20.4319 9.28275 17.6578 10.824 15.7426 11.888L 16.7138 13.6363ZM 23.7071 8.29289C 22.145 6.7308 20.145 4.7308 18.5355 3.12132C 17.7308 2.31658 17.0237 1.60948 16.5178 1.10355C 16.2648 0.850592 16.0621 0.647927 15.9227 0.508502C 15.853 0.43879 15.7991 0.384888 15.7626 0.348414C 15.7444 0.330176 15.7305 0.316296 15.7212 0.306976C 15.7165 0.302315 15.713 0.298795 15.7107 0.296439C 15.7095 0.295261 15.7086 0.294375 15.708 0.293783C 15.7077 0.293487 15.7075 0.293264 15.7073 0.293116C 15.7073 0.293042 15.7072 0.292986 15.7072 0.292949C 15.7071 0.292912 15.7071 0.292893 15 1C 14.2929 1.70711 14.2929 1.70713 14.2929 1.70716C 14.293 1.7072 14.293 1.70726 14.2931 1.70733C 14.2933 1.70748 14.2935 1.7077 14.2938 1.708C 14.2944 1.70859 14.2953 1.70947 14.2964 1.71065C 14.2988 1.71301 14.3023 1.71653 14.307 1.72119C 14.3163 1.73051 14.3302 1.74439 14.3484 1.76263C 14.3849 1.7991 14.4388 1.853 14.5085 1.92272C 14.6479 2.06214 14.8506 2.26481 15.1036 2.51777C 15.6095 3.02369 16.3166 3.7308 17.1213 4.53553C 18.7308 6.14501 20.7308 8.14501 22.2929 9.70711L 23.7071 8.29289ZM 23.7071 9.70711L 31.7071 1.70711L 30.2929 0.292893L 22.2929 8.29289L 23.7071 9.70711ZM 15 -1C 13.8954 -1 13 -0.10457 13 1L 15 1C 15 0.998155 15.0002 0.998917 14.9996 1.00031C 14.9993 1.00103 14.9993 1.00073 15 1C 15.0007 0.999273 15.001 0.999283 15.0003 0.999589C 14.9989 1.00018 14.9982 1 15 1L 15 -1ZM 31 1C 31.0018 1 31.0011 1.00018 30.9997 0.999589C 30.999 0.999283 30.9993 0.999273 31 1C 31.0007 1.00073 31.0007 1.00103 31.0004 1.00031C 30.9998 0.998917 31 0.998155 31 1L 33 1C 33 -0.10457 32.1046 -1 31 -1L 31 1ZM 31 11.4507C 31 11.8323 30.5904 12.0729 30.2574 11.888L 29.2862 13.6363C 30.9528 14.5622 33 13.3566 33 11.4507L 31 11.4507ZM 13 11.4507C 13 13.3566 15.0472 14.5622 16.7138 13.6363L 15.7426 11.888C 15.4096 12.0729 15 11.8323 15 11.4507L 13 11.4507Z"/>
</defs>
</svg>
