<svg width="72" height="72" viewBox="0 0 72 72" version="2.0" xmlns="http://www.w3.org/2000/svg" xmlns:xlink="http://www.w3.org/1999/xlink" xmlns:figma="http://www.figma.com/figma/ns">
<title>Frame-5.svg</title>
<desc>Created using Figma 0.90</desc>
<g id="Canvas" transform="translate(222 -40)" figma:type="canvas">
<mask id="mask0_outline" mask-type="alpha">
<path d="M -222 40L -150 40L -150 112L -222 112L -222 40Z" fill="#FFFFFF"/>
</mask>
<g id="Frame" style="mix-blend-mode:normal;" mask="url(#mask0_outline)" figma:type="frame">
<g id="Vector" style="mix-blend-mode:normal;" figma:type="vector">
<use xlink:href="#path0_stroke" transform="translate(-203 55)" fill="#FFFFFF" style="mix-blend-mode:normal;"/>
</g>
</g>
</g>
<defs>
<path id="path0_stroke" d="M 0 15L -0.938096 14.6536C -0.979041 14.7645 -1 14.8818 -1 15L 0 15ZM 34 15L 35 15C 35 14.8818 34.979 14.7645 34.9381 14.6536L 34 15ZM 13 15L 12.0194 14.8039C 12.0065 14.8685 12 14.9341 12 15L 13 15ZM 21 15L 22 15C 22 14.9341 21.9935 14.8685 21.9806 14.8039L 21 15ZM 21 27L 20.4181 27.8132C 20.7228 28.0313 21.1239 28.0607 21.4572 27.8894C 21.7905 27.718 22 27.3747 22 27L 21 27ZM 13 27L 12 27C 12 27.3937 12.2309 27.7507 12.59 27.9121C 12.949 28.0735 13.3694 28.0092 13.6638 27.7479L 13 27ZM 17 27L 16.3362 27.7479C 16.6867 28.0589 17.2061 28.0849 17.5858 27.8105L 17 27ZM 15 26L 15 27L 15 26ZM 16 0L 16 -1C 15.5233 -1 15.1129 -0.66354 15.0194 -0.196116L 16 0ZM 18 0L 18.9806 -0.196116C 18.8871 -0.66354 18.4767 -1 18 -1L 18 0ZM 5.29712 0.653626L 4.35903 0.307252L 5.29712 0.653626ZM 28.7029 0.653626L 29.641 0.307252L 28.7029 0.653626ZM 0 16L 34 16L 34 14L 0 14L 0 16ZM 33 15L 33 40L 35 40L 35 15L 33 15ZM 32 41L 2 41L 2 43L 32 43L 32 41ZM 1 40L 1 15L -1 15L -1 40L 1 40ZM 33 40C 33 40.5523 32.5523 41 32 41L 32 43C 33.6569 43 35 41.6569 35 40L 33 40ZM 2 41C 1.44772 41 1 40.5523 1 40L -1 40C -1 41.6569 0.343146 43 2 43L 2 41ZM 13 16L 21 16L 21 14L 13 14L 13 16ZM 20 15L 20 27L 22 27L 22 15L 20 15ZM 14 27L 14 15L 12 15L 12 27L 14 27ZM 17 27C 17.6638 26.2521 17.6636 26.2519 17.6635 26.2518C 17.6634 26.2518 17.6633 26.2516 17.6632 26.2515C 17.663 26.2514 17.6627 26.2511 17.6624 26.2509C 17.6621 26.2506 17.6613 26.2499 17.6607 26.2493C 17.6598 26.2485 17.6578 26.2468 17.6559 26.2451C 17.6529 26.2425 17.6473 26.2376 17.6414 26.2325C 17.6312 26.2237 17.6134 26.2084 17.5935 26.1917C 17.5571 26.1611 17.4968 26.1115 17.4282 26.0575C 17.2984 25.9556 17.091 25.802 16.8663 25.6576C 16.4591 25.3971 15.747 25 15 25L 15 27C 15.1263 27 15.4141 27.1029 15.7886 27.3424C 15.9548 27.448 16.0837 27.5444 16.1923 27.63C 16.243 27.6697 16.2777 27.6983 16.3063 27.7224C 16.3189 27.733 16.3261 27.7392 16.3329 27.745C 16.3354 27.7473 16.3362 27.7479 16.3376 27.7491C 16.3379 27.7494 16.3378 27.7494 16.3377 27.7492C 16.3378 27.7493 16.3371 27.7487 16.3371 27.7487C 16.3373 27.7489 16.3367 27.7483 16.3367 27.7484C 16.3367 27.7483 16.3365 27.7482 16.3365 27.7482C 16.3364 27.748 16.3362 27.7479 17 27ZM 15 25C 14.253 25 13.5409 25.3971 13.1337 25.6576C 12.909 25.802 12.7016 25.9556 12.5718 26.0575C 12.5032 26.1115 12.4429 26.1611 12.4065 26.1917C 12.3866 26.2084 12.3688 26.2237 12.3586 26.2325C 12.3527 26.2376 12.3471 26.2425 12.3441 26.2451C 12.3422 26.2468 12.3402 26.2485 12.3393 26.2493C 12.3387 26.2499 12.3379 26.2506 12.3376 26.2509C 12.3373 26.2511 12.337 26.2514 12.3368 26.2515C 12.3367 26.2516 12.3366 26.2518 12.3365 26.2518C 12.3364 26.2519 12.3362 26.2521 13 27C 13.6638 27.7479 13.6636 27.748 13.6635 27.7482C 13.6635 27.7482 13.6633 27.7483 13.6633 27.7484C 13.6633 27.7483 13.6627 27.7489 13.6629 27.7487C 13.6629 27.7487 13.6622 27.7493 13.6623 27.7492C 13.6622 27.7494 13.6621 27.7494 13.6624 27.7491C 13.6638 27.7479 13.6646 27.7473 13.6671 27.745C 13.6739 27.7392 13.6811 27.733 13.6937 27.7224C 13.7223 27.6983 13.757 27.6697 13.8077 27.63C 13.9163 27.5444 14.0452 27.448 14.2114 27.3424C 14.5859 27.1029 14.8737 27 15 27L 15 25ZM 21 27C 21.5819 26.1868 21.5818 26.1867 21.5818 26.1866C 21.5817 26.1866 21.5816 26.1865 21.5815 26.1865C 21.5814 26.1864 21.5812 26.1863 21.581 26.1861C 21.5807 26.1859 21.5802 26.1855 21.5796 26.1851C 21.5787 26.1845 21.577 26.1833 21.5752 26.182C 21.5721 26.1798 21.5667 26.176 21.5606 26.1716C 21.5492 26.1636 21.5308 26.1507 21.509 26.1356C 21.4674 26.1066 21.4029 26.0625 21.3275 26.0121C 21.1807 25.9141 20.9633 25.7739 20.7332 25.6382C 20.5052 25.5042 20.2199 25.3508 19.9652 25.2391C 19.7306 25.1371 19.3695 25 19 25L 19 27C 18.9317 27 18.9713 26.9879 19.1681 27.0734C 19.3449 27.1492 19.522 27.2458 19.7186 27.3618C 19.9132 27.4761 20.0829 27.5859 20.217 27.6754C 20.282 27.7188 20.3314 27.7527 20.3685 27.7785C 20.3861 27.7907 20.3983 27.7993 20.4077 27.8059C 20.412 27.8089 20.4145 27.8107 20.4167 27.8123C 20.4176 27.8129 20.4179 27.8131 20.4184 27.8135C 20.4185 27.8135 20.4185 27.8136 20.4185 27.8135C 20.4185 27.8135 20.4183 27.8134 20.4183 27.8134C 20.4183 27.8134 20.4182 27.8134 20.4182 27.8133C 20.4181 27.8133 20.4181 27.8132 21 27ZM 19 25C 18.6292 25 18.2683 25.1354 18.0299 25.2387C 17.7737 25.3507 17.4876 25.5048 17.26 25.6391C 17.0302 25.7752 16.8134 25.916 16.6676 26.0141C 16.5925 26.0646 16.5283 26.109 16.4869 26.138C 16.4652 26.1532 16.4469 26.1662 16.4356 26.1742C 16.4294 26.1786 16.4241 26.1825 16.4209 26.1847C 16.4192 26.186 16.4175 26.1872 16.4166 26.1878C 16.416 26.1882 16.4154 26.1887 16.4151 26.1889C 16.4149 26.189 16.4147 26.1892 16.4146 26.1893C 16.4145 26.1893 16.4144 26.1894 16.4144 26.1894C 16.4143 26.1895 16.4142 26.1895 17 27C 17.5858 27.8105 17.5857 27.8105 17.5856 27.8106C 17.5856 27.8106 17.5856 27.8106 17.5855 27.8107C 17.5855 27.8106 17.5853 27.8108 17.5854 27.8108C 17.5853 27.8108 17.5853 27.8108 17.5854 27.8107C 17.5859 27.8104 17.5862 27.8102 17.587 27.8096C 17.5892 27.808 17.5917 27.8063 17.5958 27.8033C 17.6051 27.7967 17.617 27.7882 17.6344 27.7761C 17.6711 27.7504 17.7198 27.7166 17.784 27.6734C 17.9169 27.584 18.0845 27.4748 18.2777 27.3609C 18.473 27.2452 18.6484 27.1493 18.8249 27.0738C 19.0194 26.9896 19.0625 27 19 27L 19 25ZM 16 1L 18 1L 18 -1L 16 -1L 16 1ZM 17.0194 0.196116L 20.0194 15.1961L 21.9806 14.8039L 18.9806 -0.196116L 17.0194 0.196116ZM 13.9806 15.1961L 16.9806 0.196116L 15.0194 -0.196116L 12.0194 14.8039L 13.9806 15.1961ZM 6.23522 1L 27.7648 1L 27.7648 -1L 6.23522 -1L 6.23522 1ZM 27.7648 1L 33.0619 15.3464L 34.9381 14.6536L 29.641 0.307252L 27.7648 1ZM 0.938096 15.3464L 6.23522 1L 4.35903 0.307252L -0.938096 14.6536L 0.938096 15.3464ZM 6.23522 -1C 5.39782 -1 4.64908 -0.478309 4.35903 0.307252L 6.23522 1C 6.23525 0.999926 6.23487 1.00024 6.23522 1C 6.23557 0.999759 6.23514 1 6.23522 1L 6.23522 -1ZM 27.7648 1C 27.7649 1 27.7644 0.999759 27.7648 1C 27.7651 1.00024 27.7648 0.999926 27.7648 1L 29.641 0.307252C 29.3509 -0.47831 28.6022 -1 27.7648 -1L 27.7648 1Z"/>
</defs>
</svg>
