<svg width="72" height="72" viewBox="0 0 72 72" version="2.0" xmlns="http://www.w3.org/2000/svg" xmlns:xlink="http://www.w3.org/1999/xlink" xmlns:figma="http://www.figma.com/figma/ns">
<title>Frame-4.svg</title>
<desc>Created using Figma 0.90</desc>
<g id="Canvas" transform="translate(314 52)" figma:type="canvas">
<mask id="mask0_outline" mask-type="alpha">
<path d="M -314 -52L -242 -52L -242 20L -314 20L -314 -52Z" fill="#FFFFFF"/>
</mask>
<g id="Frame" style="mix-blend-mode:normal;" mask="url(#mask0_outline)" figma:type="frame">
<g id="Vector" style="mix-blend-mode:normal;" figma:type="vector">
<use xlink:href="#path0_stroke" transform="translate(-301 -40)" fill="#FFFFFF" style="mix-blend-mode:normal;"/>
</g>
</g>
</g>
<defs>
<path id="path0_stroke" d="M 18.5414 23.2102L 18.1466 22.2915C 17.9026 22.3963 17.7103 22.5939 17.6122 22.8407C 17.5141 23.0874 17.5181 23.3631 17.6235 23.6069L 18.5414 23.2102ZM 39.9723 14L 40.8903 13.6033C 40.6715 13.0971 40.0842 12.8635 39.5775 13.0813L 39.9723 14ZM 45.9309 27.7898L 46.3258 28.7085C 46.5697 28.6037 46.762 28.4061 46.8601 28.1593C 46.9583 27.9126 46.9542 27.6369 46.8489 27.3931L 45.9309 27.7898ZM 24.5 37L 23.582 37.3967C 23.8008 37.9029 24.3881 38.1365 24.8948 37.9187L 24.5 37ZM 4.92033 4.60886L 4.52919 3.68853L 2.68853 4.47081L 3.07967 5.39114L 4.92033 4.60886ZM 47.3896 34.921L 48.3106 34.5313L 47.5313 32.6894L 46.6104 33.079L 47.3896 34.921ZM 18.5922 41.8911L 18.9833 42.8115L 20.824 42.0292L 20.4328 41.1089L 18.5922 41.8911ZM 22.6104 43.2329L 21.6894 43.6225L 22.4687 45.4645L 23.3896 45.0748L 22.6104 43.2329ZM 12 7.99163L 11.6052 7.07289C 11.3615 7.17761 11.1694 7.37483 11.0712 7.62118C 10.9729 7.86752 10.9765 8.14281 11.0813 8.38648L 12 7.99163ZM 30.5955 0L 31.5142 -0.394844C 31.2961 -0.902254 30.708 -1.13681 30.2006 -0.918748L 30.5955 0ZM 37.136 15.2189L 37.5308 16.1377C 37.7745 16.033 37.9666 15.8358 38.0648 15.5894C 38.1631 15.3431 38.1595 15.0678 38.0547 14.8241L 37.136 15.2189ZM 18.5405 23.2106L 17.6218 23.6054C 17.7265 23.8491 17.9237 24.0412 18.1701 24.1394C 18.4164 24.2377 18.6917 24.2341 18.9354 24.1293L 18.5405 23.2106ZM 4 6L 5 6L 5 4L 4 4L 4 6ZM 0 4L -1 4L -1 6L 0 6L 0 4ZM 18.3925 5.31915L 17.9977 4.4004C 17.7493 4.50714 17.5547 4.70988 17.4583 4.96242C 17.3619 5.21496 17.3718 5.49578 17.4858 5.74089L 18.3925 5.31915ZM 24.6074 2.64824L 25.5141 2.22649C 25.286 1.73613 24.7094 1.51595 24.2125 1.72949L 24.6074 2.64824ZM 27.7149 9.32909L 28.1097 10.2478C 28.3581 10.1411 28.5526 9.93836 28.6491 9.68582C 28.7455 9.43328 28.7356 9.15245 28.6216 8.90734L 27.7149 9.32909ZM 21.5 12L 20.5933 12.4217C 20.8214 12.9121 21.398 13.1323 21.8948 12.9187L 21.5 12ZM 26.1607 19.9357L 25.7659 19.017C 25.2585 19.235 25.0239 19.8231 25.242 20.3305L 26.1607 19.9357ZM 32.3756 17.2648L 33.2943 16.8699C 33.0763 16.3625 32.4882 16.128 31.9808 16.346L 32.3756 17.2648ZM 35.4009 24.3042L 35.7957 25.223C 36.0394 25.1182 36.2315 24.921 36.3297 24.6747C 36.428 24.4283 36.4243 24.153 36.3196 23.9094L 35.4009 24.3042ZM 29.186 26.9751L 28.2673 27.37C 28.4853 27.8774 29.0735 28.1119 29.5809 27.8939L 29.186 26.9751ZM 18.9363 24.129L 40.3672 14.9187L 39.5775 13.0813L 18.1466 22.2915L 18.9363 24.129ZM 39.0544 14.3967L 45.0129 28.1864L 46.8489 27.3931L 40.8903 13.6033L 39.0544 14.3967ZM 45.5361 26.871L 24.1052 36.0813L 24.8948 37.9187L 46.3258 28.7085L 45.5361 26.871ZM 25.418 36.6033L 19.4594 22.8136L 17.6235 23.6069L 23.582 37.3967L 25.418 36.6033ZM 20.4328 41.1089L 4.92033 4.60886L 3.07967 5.39114L 18.5922 41.8911L 20.4328 41.1089ZM 46.6104 33.079L 22.6104 43.2329L 23.3896 45.0748L 47.3896 34.921L 46.6104 33.079ZM 12.3948 8.91038L 30.9903 0.918748L 30.2006 -0.918748L 11.6052 7.07289L 12.3948 8.91038ZM 29.6767 0.394844L 36.2172 15.6138L 38.0547 14.8241L 31.5142 -0.394844L 29.6767 0.394844ZM 36.7412 14.3002L 18.1457 22.2918L 18.9354 24.1293L 37.5308 16.1377L 36.7412 14.3002ZM 19.4593 22.8157L 12.9187 7.59679L 11.0813 8.38648L 17.6218 23.6054L 19.4593 22.8157ZM 4 4L 0 4L 0 6L 4 6L 4 4ZM 18.7874 6.2379L 25.0022 3.56698L 24.2125 1.72949L 17.9977 4.4004L 18.7874 6.2379ZM 23.7007 3.06998L 26.8081 9.75083L 28.6216 8.90734L 25.5141 2.22649L 23.7007 3.06998ZM 27.32 8.41034L 21.1052 11.0813L 21.8948 12.9187L 28.1097 10.2478L 27.32 8.41034ZM 22.4067 11.5783L 19.2992 4.89741L 17.4858 5.74089L 20.5933 12.4217L 22.4067 11.5783ZM 26.5556 20.8545L 32.7704 18.1835L 31.9808 16.346L 25.7659 19.017L 26.5556 20.8545ZM 31.4568 17.6596L 34.4821 24.699L 36.3196 23.9094L 33.2943 16.8699L 31.4568 17.6596ZM 35.006 23.3855L 28.7912 26.0564L 29.5809 27.8939L 35.7957 25.223L 35.006 23.3855ZM 30.1048 26.5803L 27.0795 19.5409L 25.242 20.3305L 28.2673 27.37L 30.1048 26.5803ZM 22 45.9833C 22 47.6402 20.6569 48.9833 19 48.9833L 19 50.9833C 21.7614 50.9833 24 48.7448 24 45.9833L 22 45.9833ZM 19 48.9833C 17.3431 48.9833 16 47.6402 16 45.9833L 14 45.9833C 14 48.7448 16.2386 50.9833 19 50.9833L 19 48.9833ZM 16 45.9833C 16 44.3265 17.3431 42.9833 19 42.9833L 19 40.9833C 16.2386 40.9833 14 43.2219 14 45.9833L 16 45.9833ZM 19 42.9833C 20.6569 42.9833 22 44.3265 22 45.9833L 24 45.9833C 24 43.2219 21.7614 40.9833 19 40.9833L 19 42.9833Z"/>
</defs>
</svg>
