<svg width="72" height="72" viewBox="0 0 72 72" version="2.0" xmlns="http://www.w3.org/2000/svg" xmlns:xlink="http://www.w3.org/1999/xlink" xmlns:figma="http://www.figma.com/figma/ns">
<title>Frame-1.svg</title>
<desc>Created using Figma 0.90</desc>
<g id="Canvas" transform="translate(222 52)" figma:type="canvas">
<mask id="mask0_outline" mask-type="alpha">
<path d="M -222 -52L -150 -52L -150 20L -222 20L -222 -52Z" fill="#FFFFFF"/>
</mask>
<g id="Frame" style="mix-blend-mode:normal;" mask="url(#mask0_outline)" figma:type="frame">
<g id="Vector" style="mix-blend-mode:normal;" figma:type="vector">
<use xlink:href="#path0_stroke" transform="translate(-211 -36)" fill="#FFFFFF" style="mix-blend-mode:normal;"/>
</g>
</g>
</g>
<defs>
<path id="path0_stroke" d="M 14 -1L 13 -1L 13 1L 14 1L 14 -1ZM 29 27L 28 27L 28 29L 29 29L 29 27ZM 14.4934 28.4735L 14.9669 27.5927L 13.2052 26.6457L 12.7318 27.5265L 14.4934 28.4735ZM 13.8462 29L 14.8462 29L 14.8462 27L 13.8462 27L 13.8462 29ZM 13.8462 1L 14.8462 1L 14.8462 -1L 13.8462 -1L 13.8462 1ZM 30 27L 29 27L 29 29L 30 29L 30 27ZM 37.2682 33.5265L 36.7948 32.6457L 35.0331 33.5927L 35.5066 34.4735L 37.2682 33.5265ZM 22 33L 21 33L 21 35L 22 35L 22 33ZM 36.1538 33L 35.1538 33L 35.1538 35L 36.1538 35L 36.1538 33ZM 49.0156 12.5034L 48.519 11.6354L 46.7831 12.6286L 47.2796 13.4966L 49.0156 12.5034ZM 14 1L 30 1L 30 -1L 14 -1L 14 1ZM 29 28C 29 29 29 29 29 29C 29.0001 29 29.0001 29 29.0001 29C 29.0002 29 29.0004 29 29.0006 29C 29.001 29 29.0015 29 29.0023 29C 29.0038 29 29.006 29 29.0089 29C 29.0147 29 29.0232 29 29.034 29C 29.0557 29 29.0868 29 29.1242 29C 29.1989 29 29.2991 29 29.4008 29C 29.604 29 29.8131 29 29.8361 29C 29.8369 29 29.8374 29 29.8377 29C 29.8379 29 29.8381 29 29.8381 29C 29.8382 29 29.8382 29 29.8382 29C 29.8382 29 29.8382 28 29.8382 27C 29.8382 27 29.8373 27 29.8357 27C 29.8324 27 29.8258 27 29.8156 27C 29.7951 27 29.76 27 29.7073 27C 29.6019 27 29.4261 27 29.1558 27C 28.6152 27 27.697 27 26.2093 27L 26.2093 29C 27.697 29 28.6152 29 29.1558 29C 29.4261 29 29.6019 29 29.7073 29C 29.76 29 29.7951 29 29.8156 29C 29.8258 29 29.8324 29 29.8357 29C 29.8373 29 29.8382 29 29.8382 29C 29.8382 28 29.8382 27 29.8382 27C 29.8382 27 29.8382 27 29.8381 27C 29.8381 27 29.8379 27 29.8377 27C 29.8374 27 29.8369 27 29.8361 27C 29.8131 27 29.604 27 29.4008 27C 29.2991 27 29.1989 27 29.1242 27C 29.0868 27 29.0557 27 29.034 27C 29.0232 27 29.0147 27 29.0089 27C 29.006 27 29.0038 27 29.0023 27C 29.0015 27 29.001 27 29.0006 27C 29.0004 27 29.0002 27 29.0001 27C 29.0001 27 29.0001 27 29 27C 29 27 29 27 29 28ZM 26.2093 27C 21.871 27 19.2012 28.6252 17.4402 30.269C 16.5846 31.0713 15.9532 31.861 15.4791 32.4074C 15.2457 32.6767 15.0897 32.849 14.9413 32.9664C 14.8037 33.0784 14.8406 33 15 33L 15 35C 15.5273 35 15.9377 34.7341 16.2034 34.5179C 16.4584 34.3072 16.7357 34.0108 16.9901 33.7176C 17.4916 33.139 18.0535 32.4287 18.8049 31.731C 20.2579 30.3748 22.4568 29 26.2093 29L 26.2093 27ZM 15 33C 14.7627 33 14.2744 32.7635 14.0049 31.8438C 13.7541 30.9878 13.8029 29.758 14.4934 28.4735L 12.7318 27.5265C 11.8096 29.242 11.6771 31.0122 12.0856 32.4062C 12.4754 33.7365 13.4871 35 15 35L 15 33ZM 13.8462 27C 6.76181 27 1 21.1901 1 14L -1 14C -1 22.2738 5.63646 29 13.8462 29L 13.8462 27ZM 1 14C 1 6.80985 6.76181 1 13.8462 1L 13.8462 -1C 5.63646 -1 -1 5.72618 -1 14L 1 14ZM 43 14C 43 21.1797 37.1797 27 30 27L 30 29C 38.2843 29 45 22.2843 45 14L 43 14ZM 30 1C 37.1797 1 43 6.8203 43 14L 45 14C 45 5.71573 38.2843 -1 30 -1L 30 1ZM 23.7907 35C 27.5432 35 29.7421 36.3748 31.1951 37.731C 31.9465 38.4287 32.5084 39.139 33.0099 39.7176C 33.2643 40.0108 33.5416 40.3072 33.7966 40.5179C 34.0623 40.7341 34.4727 41 35 41L 35 39C 35.1594 39 35.1963 39.0784 35.0587 38.9664C 34.9103 38.849 34.7543 38.6767 34.5209 38.4074C 34.0468 37.861 33.4154 37.0713 32.5598 36.269C 30.7988 34.6252 28.129 33 23.7907 33L 23.7907 35ZM 35 41C 36.5129 41 37.5246 39.7365 37.9144 38.4062C 38.3229 37.0122 38.1904 35.242 37.2682 33.5265L 35.5066 34.4735C 36.1971 35.758 36.2459 36.9878 35.9951 37.8438C 35.7256 38.7635 35.2373 39 35 39L 35 41ZM 23.7907 33L 22 33L 22 35L 23.7907 35L 23.7907 33ZM 36.1538 35C 44.3635 35 51 28.2738 51 20L 49 20C 49 27.1901 43.2382 33 36.1538 33L 36.1538 35ZM 51 20C 50.9906 17.313 50.2479 14.6723 49.0156 12.5034L 47.2796 13.4966C 48.4036 15.4461 49.0094 17.587 49 20L 51 20ZM 13 14C 13 14.5523 12.5523 15 12 15L 12 17C 13.6569 17 15 15.6569 15 14L 13 14ZM 12 15C 11.4477 15 11 14.5523 11 14L 9 14C 9 15.6569 10.3431 17 12 17L 12 15ZM 11 14C 11 13.4477 11.4477 13 12 13L 12 11C 10.3431 11 9 12.3431 9 14L 11 14ZM 12 13C 12.5523 13 13 13.4477 13 14L 15 14C 15 12.3431 13.6569 11 12 11L 12 13ZM 23 14C 23 14.5523 22.5523 15 22 15L 22 17C 23.6569 17 25 15.6569 25 14L 23 14ZM 22 15C 21.4477 15 21 14.5523 21 14L 19 14C 19 15.6569 20.3431 17 22 17L 22 15ZM 21 14C 21 13.4477 21.4477 13 22 13L 22 11C 20.3431 11 19 12.3431 19 14L 21 14ZM 22 13C 22.5523 13 23 13.4477 23 14L 25 14C 25 12.3431 23.6569 11 22 11L 22 13ZM 33 14C 33 14.5523 32.5523 15 32 15L 32 17C 33.6569 17 35 15.6569 35 14L 33 14ZM 32 15C 31.4477 15 31 14.5523 31 14L 29 14C 29 15.6569 30.3431 17 32 17L 32 15ZM 31 14C 31 13.4477 31.4477 13 32 13L 32 11C 30.3431 11 29 12.3431 29 14L 31 14ZM 32 13C 32.5523 13 33 13.4477 33 14L 35 14C 35 12.3431 33.6569 11 32 11L 32 13Z"/>
</defs>
</svg>
