<svg width="72" height="72" viewBox="0 0 72 72" version="2.0" xmlns="http://www.w3.org/2000/svg" xmlns:xlink="http://www.w3.org/1999/xlink" xmlns:figma="http://www.figma.com/figma/ns">
<title>multi.svg</title>
<desc>Created using Figma 0.90</desc>
<g id="Canvas" transform="translate(1073 -280)" figma:type="canvas">
<mask id="mask0_alpha" mask-type="alpha">
<path d="M -1073 280L -1001 280L -1001 352L -1073 352L -1073 280Z" fill="#FFFFFF"/>
</mask>
<g id="multi" style="mix-blend-mode:normal;" mask="url(#mask0_alpha)" figma:type="frame">
<g id="Union" style="mix-blend-mode:normal;" figma:type="vector">
<use xlink:href="#path0_fill" transform="translate(-1064.34 290)" fill="#FFFFFF" style="mix-blend-mode:normal;"/>
</g>
</g>
</g>
<defs>
<path id="path0_fill" fill-rule="evenodd" d="M 20.9504 4C 20.9504 2.95471 21.6624 2 22.9504 2C 23.679 2 24.152 2.26331 24.4529 2.60187C 24.7703 2.95883 24.9504 3.46307 24.9504 4C 24.9504 4.55228 25.3981 5 25.9504 5C 26.5027 5 26.9504 4.55228 26.9504 4C 26.9504 3.03693 26.6305 2.04117 25.9478 1.27313C 25.2487 0.486694 24.2217 0 22.9504 0C 20.3724 0 18.9504 2.04529 18.9504 4C 18.9504 4.93372 19.1891 5.66412 19.592 6.2572C 19.9679 6.79022 20.465 7.19833 20.8504 7.48749C 20.9109 7.53284 20.9687 7.57565 21.024 7.61652C 21.3212 7.8364 21.5435 8.00082 21.7007 8.21063C 21.8431 8.38849 21.9504 8.60663 21.9504 9L 21.9504 10.3526L 15.549 13.224C 14.8351 11.5845 12.7918 10.4628 10.9695 11.3779L 2.20573 15.7789C 0.238203 16.767 -0.560992 19.1595 0.41789 21.1317L 1.65751 23.6296C 2.67204 25.6737 5.18828 26.4562 7.18315 25.348L 9.01542 24.33C 9.08415 24.6018 9.18266 24.8705 9.3123 25.1317L 10.552 27.6296C 10.8822 28.295 11.3716 28.8268 11.9504 29.2031L 11.9504 43C 11.9504 45.7614 14.189 48 16.9504 48L 20.8946 48C 20.9113 48 20.9279 47.9996 20.9445 47.9988C 21.4073 50.2816 23.4255 52 25.8448 52L 37.8448 52C 40.6062 52 42.8448 49.7614 42.8448 47L 42.8448 26.74L 47.4745 29.4374C 49.3417 30.5253 51.7354 29.9335 52.8805 28.1009L 54.0752 26.1887C 55.2785 24.2629 54.6391 21.7228 52.6675 20.5962L 43.9924 15.639C 42.2154 14.6236 40.1276 15.6446 39.3091 17.2324L 32.8448 14.3509L 32.8448 13C 32.8448 12.1434 32.5772 11.4865 32.1569 10.9612C 31.7969 10.5262 31.3488 10.1903 30.9919 9.92276L 30.9911 9.92218L 30.9449 9.88751L 30.9179 9.86728C 30.5677 9.60486 30.3226 9.4212 30.1408 9.13342C 29.9811 8.89838 29.8448 8.56628 29.8448 8C 29.8448 6.95471 30.5569 6 31.8448 6C 32.5734 6 33.0464 6.26331 33.3475 6.60187C 33.6647 6.95883 33.8448 7.46307 33.8448 8C 33.8448 8.55228 34.2925 9 34.8448 9C 35.3971 9 35.8448 8.55228 35.8448 8C 35.8448 7.03693 35.5249 6.04117 34.8422 5.27313C 34.1432 4.48669 33.1161 4 31.8448 4C 29.2668 4 27.8448 6.04529 27.8448 8C 27.8448 8.93372 28.0835 9.66412 28.4864 10.2572C 28.8623 10.7902 29.3594 11.1983 29.7448 11.4875C 29.8016 11.5301 29.8561 11.5704 29.9081 11.6089L 29.9184 11.6165C 30.2156 11.8364 30.4379 12.0008 30.5953 12.2106C 30.7375 12.3885 30.8448 12.6066 30.8448 13L 30.8448 13.4242L 23.9504 10.3509L 23.9504 9C 23.9504 8.14337 23.6828 7.48651 23.2625 6.96124C 22.9023 6.52594 22.4538 6.18985 22.0966 5.92218L 22.0503 5.88751L 22.0234 5.86728C 21.6733 5.60486 21.4281 5.4212 21.2464 5.13342C 21.0867 4.89838 20.9504 4.56628 20.9504 4ZM 29.4345 14.9852L 22.9517 12.0954L 16.379 15.0436C 16.6326 15.492 16.9303 15.9369 17.2857 16.3675C 17.3451 16.4402 17.3926 16.5189 17.4284 16.601L 19.8639 15.3779C 21.6863 14.4628 23.7295 15.5845 24.4434 17.224L 29.4345 14.9852ZM 15.6331 17.5026C 15.0157 16.7144 14.5223 15.8527 14.1475 15.0492C 14.1326 15.0227 14.1188 14.9954 14.1062 14.9671C 14.096 14.9445 14.0868 14.9217 14.0784 14.8988C 13.951 14.6169 13.8383 14.3434 13.7403 14.084C 13.4147 13.2203 12.4577 12.8686 11.8671 13.1652L 3.10331 17.5662C 2.11955 18.0603 1.71989 19.2565 2.20939 20.2426L 3.44902 22.7405C 3.95634 23.7625 5.2144 24.1538 6.21184 23.5997L 8.53166 22.3109C 8.70207 22.2162 8.88811 22.1767 9.06938 22.1863C 9.37761 21.1765 10.0827 20.2899 11.1001 19.7789L 15.6331 17.5026ZM 20.8448 46L 20.8448 26.6995L 16.0776 29.348C 15.4021 29.7232 14.6668 29.8817 13.9504 29.8478L 13.9504 43C 13.9504 44.6569 15.2935 46 16.9504 46L 20.8448 46ZM 25.2771 19.042L 31.8461 16.0954L 38.4626 19.0448C 37.3149 21.0831 35.33 23.0071 31.8791 23.0126C 28.428 23.018 26.433 21.0881 25.2771 19.042ZM 31.8822 25.0126C 36.9407 25.0045 39.4969 21.6925 40.7244 18.9979C 40.7297 18.987 40.7348 18.9761 40.7397 18.965L 40.7493 18.9428C 40.8516 18.7156 40.9445 18.493 41.0286 18.2773C 41.3803 17.3758 42.4092 17.0378 43.0002 17.3755L 51.6752 22.3327C 52.6611 22.896 52.9808 24.166 52.3791 25.1289L 51.1844 27.0411C 50.6118 27.9574 49.415 28.2533 48.4814 27.7094L 43.8517 25.0119C 42.5184 24.2351 40.8448 25.1969 40.8448 26.74L 40.8448 47C 40.8448 48.6569 39.5016 50 37.8448 50L 25.8448 50C 24.1879 50 22.8448 48.6569 22.8448 47L 22.8448 26.6995C 22.8448 25.1746 21.2066 24.2106 19.8736 24.9512L 15.1062 27.5997C 14.1088 28.1538 12.8508 27.7625 12.3435 26.7405L 11.1038 24.2426C 10.6144 23.2565 11.014 22.0603 11.9977 21.5662L 20.7615 17.1652C 21.3521 16.8686 22.3092 17.2203 22.6347 18.084C 22.7378 18.3576 22.8551 18.644 22.9882 18.9381C 22.9921 18.9478 22.9963 18.9575 23.0007 18.9671C 23.0065 18.9804 23.0127 18.9935 23.0192 19.0064C 24.2588 21.708 26.8251 25.0206 31.8822 25.0126Z"/>
</defs>
</svg>
