<svg width="72" height="72" viewBox="0 0 72 72" version="2.0" xmlns="http://www.w3.org/2000/svg" xmlns:xlink="http://www.w3.org/1999/xlink" xmlns:figma="http://www.figma.com/figma/ns">
<title>Frame.svg</title>
<desc>Created using Figma 0.90</desc>
<g id="Canvas" transform="translate(222 144)" figma:type="canvas">
<mask id="mask0_outline" mask-type="alpha">
<path d="M -222 -144L -150 -144L -150 -72L -222 -72L -222 -144Z" fill="#FFFFFF"/>
</mask>
<g id="Frame" style="mix-blend-mode:normal;" mask="url(#mask0_outline)" figma:type="frame">
<g id="Vector" style="mix-blend-mode:normal;" figma:type="vector">
<use xlink:href="#path0_stroke" transform="translate(-215 -127)" fill="#FFFFFF" style="mix-blend-mode:normal;"/>
</g>
</g>
</g>
<defs>
<path id="path0_stroke" d="M 22 0L 22.4472 -0.894427C 22.1657 -1.03519 21.8343 -1.03519 21.5528 -0.894427L 22 0ZM 4 38L 3 38C 3 38.5523 3.44772 39 4 39L 4 38ZM -0.447214 10.1056C -0.941192 10.3526 -1.14142 10.9532 -0.894427 11.4472C -0.647438 11.9412 -0.0467649 12.1414 0.447214 11.8944L -0.447214 10.1056ZM 43.5528 11.8944C 44.0468 12.1414 44.6474 11.9412 44.8944 11.4472C 45.1414 10.9532 44.9412 10.3526 44.4472 10.1056L 43.5528 11.8944ZM 10 17L 10 16C 9.44772 16 9 16.4477 9 17L 10 17ZM 34 17L 35 17C 35 16.4477 34.5523 16 34 16L 34 17ZM 55 38L 55 39C 55.5523 39 56 38.5523 56 38L 55 38ZM 56 23C 56 22.4477 55.5523 22 55 22C 54.4477 22 54 22.4477 54 23L 56 23ZM 57.5528 24.8944C 58.0468 25.1414 58.6474 24.9412 58.8944 24.4472C 59.1414 23.9532 58.9412 23.3526 58.4472 23.1056L 57.5528 24.8944ZM 40.4472 14.1056C 39.9532 13.8586 39.3526 14.0588 39.1056 14.5528C 38.8586 15.0468 39.0588 15.6474 39.5528 15.8944L 40.4472 14.1056ZM 45 28L 45 27C 44.4477 27 44 27.4477 44 28L 45 28ZM 50 28L 51 28C 51 27.4477 50.5523 27 50 27L 50 28ZM 3 9L 3 38L 5 38L 5 9L 3 9ZM 39 9L 39 38L 41 38L 41 9L 39 9ZM 4 39L 10 39L 10 37L 4 37L 4 39ZM 34 39L 40 39L 40 37L 34 37L 34 39ZM 11 38L 11 17L 9 17L 9 38L 11 38ZM 10 18L 34 18L 34 16L 10 16L 10 18ZM 33 17L 33 38L 35 38L 35 17L 33 17ZM 34 37L 10 37L 10 39L 34 39L 34 37ZM 21.5528 0.894427L 39.5528 9.89443L 40.4472 8.10557L 22.4472 -0.894427L 21.5528 0.894427ZM 39.5528 9.89443L 43.5528 11.8944L 44.4472 10.1056L 40.4472 8.10557L 39.5528 9.89443ZM 0.447214 11.8944L 4.44721 9.89443L 3.55279 8.10557L -0.447214 10.1056L 0.447214 11.8944ZM 4.44721 9.89443L 22.4472 0.894427L 21.5528 -0.894427L 3.55279 8.10557L 4.44721 9.89443ZM 56 38L 56 23L 54 23L 54 38L 56 38ZM 58.4472 23.1056L 40.4472 14.1056L 39.5528 15.8944L 57.5528 24.8944L 58.4472 23.1056ZM 40 39L 45 39L 45 37L 40 37L 40 39ZM 46 38L 46 28L 44 28L 44 38L 46 38ZM 45 29L 50 29L 50 27L 45 27L 45 29ZM 45 39L 50 39L 50 37L 45 37L 45 39ZM 50 39L 55 39L 55 37L 50 37L 50 39ZM 49 28L 49 38L 51 38L 51 28L 49 28ZM 22 30L 33 30L 33 28L 22 28L 22 30ZM 33 30L 33 37L 35 37L 35 30L 33 30ZM 33 37L 22 37L 22 39L 33 39L 33 37ZM 22 37L 22 30L 20 30L 20 37L 22 37ZM 22 28C 20.8954 28 20 28.8954 20 30L 22 30C 22 29.9982 22.0002 29.9989 21.9996 30.0003C 21.9993 30.001 21.9993 30.0007 22 30C 22.0007 29.9993 22.001 29.9993 22.0003 29.9996C 21.9989 30.0002 21.9982 30 22 30L 22 28ZM 33 30C 33.0018 30 33.0011 30.0002 32.9997 29.9996C 32.999 29.9993 32.9993 29.9993 33 30C 33.0007 30.0007 33.0007 30.001 33.0004 30.0003C 32.9998 29.9989 33 29.9982 33 30L 35 30C 35 28.8954 34.1046 28 33 28L 33 30ZM 33 37C 33 37.0018 32.9998 37.0011 33.0004 36.9997C 33.0007 36.999 33.0007 36.9993 33 37C 32.9993 37.0007 32.999 37.0007 32.9997 37.0004C 33.0011 36.9998 33.0018 37 33 37L 33 39C 34.1046 39 35 38.1046 35 37L 33 37ZM 22 37C 21.9982 37 21.9989 36.9998 22.0003 37.0004C 22.001 37.0007 22.0007 37.0007 22 37C 21.9993 36.9993 21.9993 36.999 21.9996 36.9997C 22.0002 37.0011 22 37.0018 22 37L 20 37C 20 38.1046 20.8954 39 22 39L 22 37Z"/>
</defs>
</svg>
